# Blender 4.4.3
# www.blender.org
mtllib compact_right_finger_3_3.mtl
o right_finger_3_3
v 0.001290 -0.016181 0.024332
v 0.003283 -0.015340 0.024224
v 0.003998 -0.014770 0.024317
v 0.004518 -0.014236 0.024270
v 0.005011 -0.013591 0.024212
v 0.005450 -0.012798 0.024155
v 0.005731 -0.012027 0.024134
v 0.005320 -0.010713 0.024751
v 0.005553 -0.010869 0.024635
v 0.005764 -0.010856 0.024443
v 0.005915 -0.011278 0.024029
v 0.005354 -0.011740 0.024716
v 0.005435 -0.012353 0.024522
v 0.002420 -0.015819 0.024186
v 0.005977 -0.010360 0.024035
v 0.005083 -0.012601 0.024748
v 0.004886 -0.013378 0.024624
v 0.004390 -0.014096 0.024631
v 0.005328 -0.005871 0.024412
v 0.005602 -0.005804 0.024252
v 0.005793 -0.005734 0.024042
v 0.005981 -0.006307 0.023735
v 0.005451 -0.003871 0.023539
v 0.005034 -0.003112 0.023474
v 0.004437 -0.002311 0.023201
v 0.004518 -0.002502 0.023631
v 0.003933 -0.001846 0.023448
v 0.003302 -0.001356 0.023262
v 0.002438 -0.000879 0.023139
v 0.001299 -0.000494 0.023217
v 0.005315 -0.004782 0.024245
v 0.005083 -0.003980 0.024145
v 0.005460 -0.004323 0.023959
v 0.005739 -0.004660 0.023609
v 0.005914 -0.005389 0.023617
v 0.004876 -0.003221 0.023924
v 0.002635 -0.016891 0.007767
v 0.003414 -0.016375 0.007679
v 0.004243 -0.015422 0.007448
v 0.005266 -0.013731 0.007334
v 0.003970 -0.015990 0.007770
v 0.004726 -0.015121 0.007685
v 0.005355 -0.014131 0.007684
v 0.005733 -0.013034 0.007586
v 0.005879 -0.012001 0.007486
v 0.002100 -0.017255 0.008217
v 0.003101 -0.016763 0.008132
v 0.004034 -0.016051 0.008060
v 0.004815 -0.015171 0.007984
v 0.005415 -0.014180 0.008019
v 0.005821 -0.013038 0.007906
v 0.005982 -0.012000 0.007826
v 0.005980 -0.006931 0.007455
v 0.005875 -0.006940 0.007133
v 0.001718 -0.001543 0.007138
v 0.002581 -0.001884 0.007106
v 0.003349 -0.002341 0.007125
v 0.004043 -0.002894 0.007143
v 0.004844 -0.003800 0.007204
v 0.005431 -0.004783 0.007350
v 0.005822 -0.005895 0.007405
v 0.004933 -0.004081 0.006997
v 0.005357 -0.004848 0.007030
v 0.005733 -0.005948 0.007085
v 0.002670 -0.002112 0.006738
v 0.003537 -0.002615 0.006844
v 0.004346 -0.003479 0.006771
v 0.003473 -0.002746 0.006656
v 0.004882 -0.004541 0.006664
v 0.005335 -0.005512 0.006737
v 0.005629 -0.006730 0.006828
v 0.003113 -0.002664 0.006504
v -0.000001 -0.016242 0.025426
v 0.002121 -0.015633 0.025403
v 0.003045 -0.014836 0.025354
v 0.002122 -0.000890 0.024326
v 0.003046 -0.001685 0.024394
v 0.003597 -0.002525 0.024461
v 0.003597 -0.013995 0.025298
v 0.001120 -0.016090 0.025426
v 0.001134 -0.000437 0.024284
v 0.000025 -0.000291 0.024262
v -0.002647 -0.016244 0.025400
v -0.002397 -0.000286 0.024237
v -0.002400 -0.013217 0.007219
v -0.002278 -0.005375 0.006648
v -0.002309 -0.007369 0.006793
v -0.000234 -0.017958 0.007586
v -0.002475 -0.017946 0.007563
v -0.002210 -0.001060 0.006334
v -0.000201 -0.001063 0.006354
v 0.004237 -0.003682 0.006589
v 0.005659 -0.012034 0.007216
v 0.005514 -0.012974 0.007282
v 0.003069 -0.016435 0.007508
v 0.004897 -0.014511 0.007388
vn 0.9612 -0.1460 0.2341
vn 0.9690 -0.0106 0.2469
vn 0.8026 -0.0438 0.5949
vn 0.5762 -0.0087 0.8173
vn 0.5420 -0.0816 0.8364
vn 0.7620 -0.2417 0.6009
vn 0.8845 -0.3954 0.2477
vn 0.9336 -0.2452 0.2614
vn 0.5482 -0.1912 0.8142
vn 0.6832 -0.3752 0.6265
vn 0.8171 -0.5145 0.2602
vn 0.7460 -0.6127 0.2609
vn 0.6496 -0.5012 0.5717
vn 0.6140 0.1128 0.7812
vn 0.8230 0.1356 0.5517
vn 0.8246 0.5348 0.1844
vn 0.7393 0.6723 0.0388
vn 0.7003 0.6133 0.3654
vn 0.5208 0.1918 0.8319
vn 0.7663 0.3154 0.5597
vn 0.8814 0.4313 0.1928
vn 0.9364 0.2783 0.2137
vn 0.9626 0.1776 0.2047
vn 0.9700 0.0438 0.2390
vn 0.6371 0.7435 0.2034
vn 0.6732 0.4521 0.5852
vn 0.5455 0.3048 0.7807
vn 0.7616 0.4496 -0.4667
vn 0.7935 0.5702 -0.2126
vn 0.9025 0.4040 -0.1489
vn 0.8154 0.3400 -0.4686
vn 0.9604 0.2315 -0.1550
vn 0.8607 0.1808 -0.4760
vn 0.9859 0.0626 -0.1554
vn 0.8824 0.0259 -0.4698
vn 0.3950 0.7146 -0.5774
vn 0.4220 0.8773 -0.2286
vn 0.5528 0.8044 -0.2177
vn 0.5480 0.6834 -0.4823
vn 0.6769 0.6954 -0.2413
vn 0.6187 0.5117 -0.5961
vn 0.4759 0.5256 -0.7051
vn 0.4442 0.0995 0.8904
vn 0.3399 0.0453 0.9394
vn 0.6821 0.3507 -0.6417
vn 0.7497 0.2201 -0.6241
vn 0.7832 0.0528 -0.6195
vn 0.4082 0.5755 -0.7086
vn 0.5220 0.3977 -0.7546
vn 0.0098 -0.0727 -0.9973
vn 0.0100 -0.0728 -0.9973
vn 0.0100 -0.0727 -0.9973
vn -0.0009 -0.9926 0.1211
vn -0.0054 -0.9955 0.0950
vn -0.0059 -0.9954 0.0953
vn -0.9898 -0.0308 -0.1393
vn -0.9898 -0.0309 -0.1393
vn -0.9898 -0.0308 -0.1392
vn -0.0001 -0.0000 -1.0000
vn 0.0097 -0.0729 -0.9973
vn -0.9998 0.0150 -0.0112
vn -0.9998 0.0149 -0.0111
vn -0.9998 0.0149 -0.0112
vn -0.9998 0.0148 -0.0111
vn 0.1319 -0.9861 0.1011
vn 0.1337 -0.9857 0.1028
vn 0.1322 -0.9859 0.1029
vn 0.1258 -0.9877 0.0934
vn -0.0088 -0.3873 0.9219
vn -0.0099 0.0718 0.9974
vn -0.9998 0.0146 -0.0111
vn 0.0099 -0.0731 -0.9973
vn 0.0143 -0.0715 -0.9973
vn 0.0105 -0.0733 -0.9973
vn 0.0154 -0.0704 -0.9974
vn 0.0096 -0.0722 -0.9973
vn 0.0129 -0.0754 -0.9971
vn 0.0136 -0.0756 -0.9970
vn 0.3996 -0.6752 -0.6200
vn 0.3785 -0.7988 -0.4676
vn 0.2892 -0.9568 -0.0303
vn 0.3673 -0.9259 -0.0880
vn -0.0095 0.0734 0.9973
vn -0.0098 0.0727 0.9973
vn -0.0098 0.0726 0.9973
vn -0.0100 0.0727 0.9973
vn -0.0102 0.0728 0.9973
vn -0.0101 0.0728 0.9973
vn 0.3429 0.9173 -0.2025
vn 0.3483 0.7897 -0.5050
vn 0.1222 0.9915 -0.0443
vn 0.1223 0.9915 -0.0438
vn 0.0097 -0.0732 -0.9973
vn 0.0392 -0.0572 -0.9976
vn 0.0186 -0.0695 -0.9974
vn 0.0252 -0.0729 -0.9970
vn 0.0127 -0.0754 -0.9971
vn 0.0142 -0.0768 -0.9969
vn 0.6566 -0.6989 0.2837
vn 0.4058 -0.9027 0.1428
vn 0.3659 -0.9123 0.1842
vn 0.3138 -0.9436 0.1052
vn 0.4667 -0.8340 0.2944
vn -0.0107 0.0731 0.9973
vn 0.5423 -0.8173 0.1948
vn 0.5903 -0.6219 0.5146
vn 0.5530 -0.3112 0.7729
vn 0.5529 -0.3113 0.7729
vn 0.3899 -0.0972 0.9157
vn 0.1655 0.0717 0.9836
vn 0.1666 0.0718 0.9834
vn -0.0099 0.0728 0.9973
vn -0.0099 0.0727 0.9973
vn -0.0100 0.0729 0.9973
vn 0.1314 0.9908 -0.0328
vn 0.9045 -0.4022 -0.1420
vn 0.3668 0.9284 0.0593
vn 0.4197 0.9075 0.0195
vn 0.3279 0.9444 -0.0250
vn 0.5092 -0.6989 -0.5023
vn 0.5976 -0.5711 -0.5628
vn 0.5991 -0.6702 -0.4381
vn 0.4444 0.2779 0.8516
vn 0.5331 0.4090 0.7406
vn 0.5334 0.4090 0.7404
vn 0.5829 0.6818 0.4419
vn 0.4647 0.8663 0.1831
vn 0.7625 -0.6188 -0.1890
vn 0.8190 -0.4030 -0.4084
vn 0.5261 -0.8423 -0.1177
vn 0.6994 -0.4442 -0.5599
vn 0.7469 -0.3220 -0.5818
vn 0.5501 0.8310 0.0827
vn 0.7007 -0.5443 -0.4612
vn 0.8503 -0.5234 0.0553
vn 0.8541 -0.5187 0.0383
vn 0.8544 -0.5181 0.0404
vn 0.9861 -0.0865 -0.1417
vn 0.2637 0.9630 -0.0560
vn 0.2637 0.9629 -0.0570
vn 0.0022 0.9991 -0.0431
vn 0.0019 0.9991 -0.0430
vn 0.0024 0.9991 -0.0428
vn 0.6688 -0.7344 -0.1154
vn 0.8698 -0.2504 -0.4251
vn 0.8817 -0.0972 -0.4617
vn 0.9605 -0.2520 -0.1178
vn 0.7735 -0.2316 -0.5899
vn 0.7762 -0.1080 -0.6211
vt 0.000000 0.000000
vt 0.197570 0.283797
vt 0.217589 0.309010
vt 0.525208 0.611320
vt 0.542337 0.611320
vt 0.570742 0.611320
vt 0.586371 0.611320
vt 0.000001 0.000002
vt 0.526651 0.676027
vt 0.580994 0.827939
vt 0.583917 0.830130
vt 0.577732 0.826289
s 1
f 11/1/1 15/1/2 10/1/3
f 9/1/4 12/1/5 10/1/3
f 10/1/3 12/1/5 13/1/6
f 6/1/7 7/1/8 13/1/6
f 16/1/9 17/1/10 13/1/6
f 13/1/6 17/1/10 6/1/7
f 6/1/7 17/1/10 5/1/11
f 4/1/12 5/1/11 18/1/13
f 18/1/13 5/1/11 17/1/10
f 20/1/14 10/1/3 21/1/15
f 24/1/16 25/1/17 26/1/18
f 31/1/19 20/1/14 33/1/20
f 33/1/20 20/1/14 21/1/15
f 23/1/21 33/1/20 34/1/22
f 35/1/23 21/1/15 22/1/24
f 26/1/18 25/1/17 27/1/25
f 24/1/16 26/1/18 36/1/26
f 36/1/26 32/1/27 33/1/20
f 62/1/28 59/1/29 60/1/30
f 62/1/28 60/1/30 63/1/31
f 63/1/31 60/1/30 61/1/32
f 63/1/31 61/1/32 64/1/33
f 64/1/33 61/1/32 53/1/34
f 64/1/33 53/1/34 54/1/35
f 65/1/36 56/1/37 57/1/38
f 65/1/36 57/1/38 66/1/39
f 66/1/39 57/1/38 58/1/40
f 66/1/39 58/1/40 67/1/41
f 67/1/41 58/1/40 59/1/29
f 67/1/41 59/1/29 62/1/28
f 65/1/36 66/1/39 68/1/42
f 68/1/42 66/1/39 67/1/41
f 19/1/43 8/1/44 9/1/4 20/1/14
f 67/1/41 62/1/28 69/1/45
f 69/1/45 62/1/28 63/1/31
f 69/1/45 63/1/31 70/1/46
f 70/1/46 63/1/31 64/1/33
f 70/1/46 64/1/33 71/2/47
f 71/2/47 64/1/33 54/1/35
f 72/3/48 65/1/36 68/1/42
f 92/1/49 72/1/48 67/1/41
f 72/1/48 68/1/42 67/1/41
f 92/1/49 67/1/41 69/1/45
f 89/4/50 85/5/51 88/1/52
f 83/1/53 89/1/54 88/1/55
f 86/6/56 90/7/57 85/1/58
f 90/7/59 87/1/59 85/1/59
f 87/1/60 88/1/52 85/1/51
f 89/4/61 84/8/62 85/5/63
f 84/8/62 86/6/64 85/1/63
f 1/1/65 80/1/66 73/1/67
f 88/1/68 1/1/65 73/1/67
f 73/1/69 80/1/70 83/1/53
f 84/8/62 89/4/61 83/1/62
f 84/8/62 90/7/71 86/6/64
f 91/1/72 92/1/73 90/1/74
f 92/1/73 88/1/52 90/1/74
f 88/1/52 87/1/60 90/7/74
f 92/1/73 71/2/75 88/1/52
f 71/2/75 94/1/76 88/1/52
f 94/1/76 40/1/77 88/1/52
f 40/1/77 95/1/78 88/1/52
f 95/1/79 37/1/80 88/1/81
f 37/1/80 46/1/82 88/1/81
f 74/1/83 79/1/84 80/1/85
f 82/1/86 83/9/87 80/1/85
f 82/1/86 84/8/88 83/9/87
f 55/1/89 56/1/37 91/1/90
f 56/1/37 65/1/36 91/1/90
f 65/1/36 72/3/48 91/1/90
f 82/1/91 30/1/91 91/1/92
f 72/3/93 92/1/73 91/1/72
f 69/10/94 70/1/94 92/11/94
f 70/12/95 71/2/75 92/1/73
f 71/2/96 93/1/96 94/1/96
f 96/1/97 39/1/98 40/1/77
f 39/1/98 95/1/78 40/1/77
f 18/1/13 3/1/99 4/1/12
f 14/1/100 80/1/101 1/1/102
f 14/1/100 74/1/103 80/1/101
f 75/1/104 79/1/84 74/1/83
f 14/1/100 2/1/105 74/1/103
f 2/1/105 3/1/99 74/1/103
f 3/1/99 75/1/106 74/1/103
f 75/1/107 17/1/108 79/1/108
f 17/1/10 16/1/9 79/1/109
f 16/1/9 12/1/5 79/1/109
f 12/1/5 8/1/44 79/1/109
f 8/1/44 19/1/43 79/1/109
f 19/1/110 78/1/111 79/1/111
f 76/1/112 81/1/113 82/1/86
f 78/1/114 76/1/112 82/1/86
f 81/1/115 30/1/115 82/1/115
f 50/1/116 6/1/7 5/1/11
f 81/1/117 29/1/118 30/1/119
f 95/1/79 38/1/120 37/1/80
f 33/1/20 32/1/27 31/1/19
f 39/1/121 38/1/120 95/1/79
f 41/1/122 38/1/120 39/1/121
f 18/1/13 75/1/106 3/1/99
f 19/1/43 31/1/19 78/1/123
f 31/1/19 32/1/27 78/1/123
f 32/1/27 36/1/26 78/1/123
f 36/1/124 77/1/124 78/1/125
f 77/1/112 76/1/112 78/1/114
f 18/1/13 17/1/10 75/1/106
f 31/1/19 19/1/43 20/1/14
f 77/1/126 27/1/25 76/1/127
f 76/1/127 29/1/118 81/1/117
f 50/1/116 49/1/128 43/1/129
f 47/1/130 37/1/80 38/1/120
f 35/1/23 61/1/32 34/1/22
f 83/1/53 88/1/55 73/1/69
f 36/1/26 26/1/18 77/1/126
f 26/1/18 27/1/25 77/1/126
f 43/1/129 96/1/131 40/1/132
f 28/1/133 76/1/127 27/1/25
f 28/1/133 29/1/118 76/1/127
f 28/1/133 57/1/38 56/1/37
f 42/1/134 39/1/121 96/1/131
f 50/1/135 5/1/136 49/1/137
f 59/1/29 25/1/17 24/1/16
f 49/1/128 5/1/11 4/1/12
f 35/1/23 22/1/24 53/1/34
f 15/1/2 11/1/1 52/1/138
f 79/1/84 78/1/114 82/1/86 80/1/85
f 47/1/130 2/1/105 14/1/100 46/1/82
f 47/1/130 46/1/82 37/1/80
f 55/1/139 91/1/139 30/1/140
f 14/1/100 1/1/102 46/1/82
f 84/8/141 82/1/141 91/1/142 90/7/143
f 41/1/122 42/1/134 49/1/128 48/1/144
f 43/1/129 42/1/134 96/1/131
f 48/1/144 49/1/128 4/1/12 3/1/99
f 15/1/2 22/1/24 21/1/15 10/1/3
f 35/1/23 53/1/34 61/1/32
f 9/1/4 8/1/44 12/1/5
f 44/1/145 45/1/146 52/1/138 51/1/147
f 60/1/30 59/1/29 24/1/16 23/1/21
f 25/1/17 59/1/29 58/1/40
f 43/1/129 49/1/128 42/1/134
f 94/1/148 93/1/149 45/1/146 44/1/145
f 57/1/38 28/1/133 27/1/25 58/1/40
f 7/1/8 11/1/1 10/1/3 13/1/6
f 55/1/89 30/1/119 29/1/118 56/1/37
f 13/1/6 12/1/5 16/1/9
f 20/1/14 9/1/4 10/1/3
f 40/1/132 94/1/148 44/1/145 43/1/129
f 21/1/15 35/1/23 34/1/22 33/1/20
f 42/1/134 41/1/122 39/1/121
f 29/1/118 28/1/133 56/1/37
f 38/1/120 41/1/122 48/1/144 47/1/130
f 1/1/102 88/1/81 46/1/82
f 36/1/26 33/1/20 23/1/21 24/1/16
f 50/1/116 51/1/147 7/1/8 6/1/7
f 45/1/146 93/1/149 71/2/47 54/1/35
f 43/1/129 44/1/145 51/1/147 50/1/116
f 60/1/30 23/1/21 34/1/22 61/1/32
f 22/1/24 15/1/2 52/1/138 53/1/34
f 11/1/1 7/1/8 51/1/147
f 47/1/130 48/1/144 3/1/99 2/1/105
f 58/1/40 27/1/25 25/1/17
f 53/1/34 52/1/138 45/1/146 54/1/35
f 51/1/147 52/1/138 11/1/1
