# Blender 4.3.2
# www.blender.org
mtllib compact_right_arm_5.mtl
o right_arm_5
v -0.022401 0.029923 0.003405
v -0.037037 -0.004358 0.003597
v -0.026440 -0.026023 0.003476
v -0.015906 -0.033678 0.003539
v 0.018303 0.032345 0.003536
v 0.028840 0.023560 0.003464
v 0.034844 0.013026 0.003592
v 0.035548 -0.011964 0.003488
v 0.025437 -0.027194 0.003556
v 0.014274 -0.034293 0.003405
v 0.003117 -0.036963 0.003485
v -0.036180 0.008287 0.003549
v -0.032511 0.017943 0.003362
v -0.008419 0.036175 0.003520
v 0.005218 0.036985 0.003541
v -0.021609 0.000108 -0.000276
v 0.013443 -0.018264 -0.000131
v 0.010321 0.019218 -0.000151
v -0.033546 -0.016084 0.003453
v -0.008512 0.009672 0.121529
v 0.008398 -0.009715 0.121521
v -0.025771 0.025804 0.021546
v -0.008616 -0.036364 0.003686
v 0.019685 -0.030393 0.021969
v 0.005643 -0.035877 0.020995
v 0.031816 -0.017989 0.020650
v 0.037402 -0.000288 0.003683
v -0.007494 0.035846 0.020417
v -0.034648 0.010492 0.022194
v 0.025034 0.008903 0.121255
v 0.020858 0.027009 0.068977
v -0.020749 -0.027142 0.068784
v -0.025101 -0.008957 0.121048
v 0.002838 -0.014518 0.117576
v -0.002725 0.014532 0.117573
vn -0.3072 -0.4660 -0.8298
vn -0.1195 -0.0019 -0.9928
vn 0.0751 -0.1009 -0.9921
vn -0.6977 0.4079 -0.5889
vn -0.8068 0.1648 -0.5673
vn 0.0585 0.1065 -0.9926
vn 0.7472 0.2539 -0.6142
vn 0.8236 0.0027 -0.5671
vn 0.7263 -0.5073 0.4639
vn 0.8820 0.4625 0.0901
vn 0.8820 0.4625 0.0897
vn 0.6375 0.5112 -0.5764
vn -0.1476 -0.9379 0.3140
vn -0.0756 -0.7730 0.6299
vn -0.1224 -0.8132 0.5689
vn 0.4612 0.8829 0.0884
vn 0.4024 0.7198 -0.5656
vn 0.8701 -0.4755 0.1298
vn -0.9756 0.1987 0.0931
vn 0.5782 -0.5911 -0.5624
vn 0.7847 -0.2529 -0.5659
vn 0.1166 0.8184 -0.5627
vn 0.0074 -0.0324 0.9994
vn 0.2981 -0.4005 0.8665
vn 0.5378 -0.8112 0.2295
vn -0.8312 -0.0944 -0.5479
vn -0.7024 0.7070 0.0826
vn 0.3131 -0.7541 -0.5773
vn -0.1406 0.9854 0.0963
vn 0.0205 0.6162 0.7873
vn 0.1463 -0.9812 0.1260
vn 0.5456 -0.8241 0.1527
vn 0.3427 -0.9152 0.2118
vn -0.0681 0.9738 0.2170
vn -0.0681 0.9739 0.2166
vn 0.0517 -0.8044 -0.5919
vn 0.0714 -0.9735 0.2174
vn 0.0714 -0.9736 0.2170
vn -0.0703 -0.6450 -0.7610
vn -0.1979 0.7778 -0.5965
vn -0.4731 0.6554 -0.5888
vn -0.5327 0.8162 0.2237
vn -0.7297 0.6439 0.2299
vn -0.4605 0.8620 0.2117
vn -0.1109 -0.9867 0.1191
vn -0.5675 -0.5668 -0.5972
vn -0.8477 0.4988 0.1803
vn -0.8477 0.4990 0.1800
vn -0.9906 -0.0966 0.0969
vn -0.7179 -0.3471 -0.6035
vn -0.8763 -0.4730 0.0919
vn -0.8763 -0.4730 0.0916
vn -0.7039 -0.7086 0.0492
vn -0.3461 -0.9357 0.0681
vn 0.1487 0.9380 0.3130
s 1
f 4//1 16//2 17//3
f 13//4 16//2 12//5
f 18//6 7//7 27//8
f 7//7 30//9 27//8
s 0
f 7//10 31//11 30//11
s 1
f 17//3 16//2 18//6
f 18//6 6//12 7//7
f 32//13 34//14 33//15
f 7//7 6//12 31//16
f 6//12 5//17 31//16
f 27//8 30//9 26//18
f 12//5 29//19 13//4
f 9//20 17//3 8//21
f 26//18 8//21 27//8
f 5//17 15//22 31//16
s 0
f 30//23 20//23 33//23
s 1
f 30//9 33//15 21//24
s 0
f 34//25 24//25 21//25
s 1
f 2//26 29//19 12//5
f 13//4 29//19 22//27
f 10//28 17//3 9//20
f 15//22 28//29 31//16
f 35//30 20//30 30//30
f 25//31 24//32 34//33
s 0
f 28//34 35//35 31//34
s 1
f 33//15 34//14 21//24
f 10//28 11//36 17//3
s 0
f 32//37 25//37 34//38
s 1
f 9//20 24//32 10//28
f 11//36 23//39 17//3
f 14//40 15//22 18//6
f 13//4 22//27 1//41
s 0
f 35//42 22//42 20//42
s 1
f 22//43 33//43 20//43
f 23//39 4//1 17//3
f 1//41 14//40 18//6
s 0
f 28//44 22//44 35//44
s 1
f 23//39 25//31 32//45
f 4//1 3//46 16//2
s 0
f 22//47 29//48 33//48
s 1
f 29//19 2//26 33//49
f 2//26 19//50 33//49
s 0
f 19//51 32//52 33//52
s 1
f 3//46 4//1 32//53
s 0
f 4//54 23//54 32//54
s 1
f 3//46 19//50 16//2
f 13//4 1//41 16//2
f 19//50 3//46 32//53
f 21//24 26//18 30//9
f 16//2 19//50 2//26
f 28//29 14//40 1//41
f 17//3 27//8 8//21
f 9//20 26//18 24//32
f 15//22 5//17 18//6
f 5//17 6//12 18//6
f 15//22 14//40 28//29
f 1//41 18//6 16//2
s 0
f 35//55 30//55 31//55
s 1
f 10//28 24//32 25//31
f 11//36 10//28 25//31
f 9//20 8//21 26//18
f 17//3 18//6 27//8
f 2//26 12//5 16//2
f 1//41 22//27 28//29
f 23//39 11//36 25//31
f 21//24 24//32 26//18
