# Blender 4.4.3
# www.blender.org
mtllib compact_right_finger_3_2.mtl
o right_finger_3_2
v 0.001175 -0.018612 0.038381
v 0.001978 -0.018345 0.038636
v 0.005950 -0.013612 0.038070
v 0.005876 -0.013468 0.038437
v 0.005623 -0.013405 0.038776
v 0.005338 -0.014574 0.038855
v 0.005568 -0.014892 0.038383
v 0.005204 -0.015650 0.038442
v 0.004611 -0.016496 0.038529
v 0.003867 -0.017247 0.038594
v 0.002965 -0.017884 0.038623
v 0.005955 -0.006387 0.037533
v 0.005893 -0.006500 0.037916
v 0.005654 -0.006474 0.038268
v 0.005584 -0.005102 0.037709
v 0.001205 -0.001382 0.037168
v -0.000083 -0.001229 0.037829
v 0.003991 -0.003084 0.038011
v 0.002087 -0.001650 0.037488
v 0.002932 -0.002038 0.037508
v 0.003840 -0.002672 0.037574
v 0.004584 -0.003414 0.037612
v 0.005212 -0.004319 0.037666
v 0.005265 -0.016820 0.007354
v 0.004808 -0.017252 0.007320
v 0.003317 -0.019388 0.007469
v 0.003110 -0.020007 0.007587
v 0.004777 -0.018843 0.007808
v 0.005331 -0.017692 0.007655
v 0.002628 -0.020686 0.007881
v 0.003811 -0.019890 0.007815
v 0.002776 -0.020854 0.008327
v 0.003537 -0.020386 0.008336
v 0.002070 -0.021174 0.008392
v 0.001081 -0.021443 0.008662
v -0.000220 -0.021633 0.007638
v 0.005752 -0.017129 0.008076
v 0.005431 -0.018029 0.008097
v 0.004953 -0.018896 0.008255
v 0.004286 -0.019727 0.008268
v 0.005952 -0.016062 0.007979
v 0.005698 -0.016070 0.007547
v 0.005947 -0.008128 0.007402
v 0.005687 -0.008194 0.006985
v 0.005354 -0.008241 0.006766
v 0.005745 -0.007021 0.007380
v 0.005053 -0.006722 0.006669
v 0.005392 -0.006180 0.007178
v 0.003739 -0.003934 0.007329
v 0.004422 -0.004607 0.007206
v 0.004879 -0.005288 0.007083
v 0.005274 -0.005742 0.007613
v 0.002926 -0.003365 0.007440
v 0.004636 -0.005450 0.006727
v 0.005348 -0.006580 0.006886
v 0.000414 -0.002688 0.006265
v 0.001658 -0.002868 0.006285
v -0.002255 -0.002673 0.006236
v 0.002513 -0.003307 0.006326
v 0.003364 -0.004155 0.006396
v 0.004928 -0.007733 0.006656
v 0.004222 -0.018949 0.007515
v -0.002556 -0.021636 0.007613
v -0.002860 -0.018674 0.039078
v -0.000200 -0.018672 0.039104
v 0.004911 -0.015511 0.038920
v 0.004026 -0.016693 0.038999
v 0.002544 -0.017774 0.039058
v -0.002587 -0.001220 0.037806
v 0.005189 -0.004797 0.038145
v 0.002447 -0.002026 0.037916
vn 0.8936 -0.3245 0.3103
vn 0.7711 -0.2221 0.5968
vn 0.4215 -0.1888 0.8870
vn 0.8283 -0.4596 0.3204
vn 0.6053 -0.7115 0.3568
vn 0.5875 -0.5408 0.6019
vn 0.3755 -0.7129 0.5922
vn 0.4877 -0.8015 0.3461
vn 0.9828 -0.1394 0.1212
vn 0.9851 0.1472 0.0892
vn 0.9168 0.1260 0.3789
vn 0.9096 -0.0770 0.4082
vn 0.4839 0.8438 0.2321
vn 0.3659 0.8004 0.4748
vn 0.5840 0.6340 0.5069
vn 0.5998 0.7651 0.2342
vn 0.7413 0.6208 0.2551
vn 0.4699 0.2799 0.8372
vn 0.8214 0.5121 0.2510
vn 0.9049 0.3400 0.2561
vn 0.7895 0.1538 0.5942
vn 0.3445 -0.6971 -0.6288
vn 0.3063 -0.4971 -0.8118
vn 0.4937 -0.5991 -0.6303
vn 0.3231 -0.3066 -0.8953
vn 0.6467 -0.4775 -0.5948
vn 0.6680 -0.3103 -0.6764
vn 0.4239 -0.1493 -0.8933
vn 0.8159 -0.5590 -0.1477
vn 0.7066 -0.6825 -0.1868
vn 0.9386 -0.2496 -0.2380
vn 0.8828 -0.4116 -0.2263
vn 0.5709 -0.8017 -0.1771
vn 0.7217 0.0259 -0.6917
vn 0.7110 -0.1078 -0.6948
vn 0.3777 -0.0317 -0.9254
vn 0.9365 0.2283 -0.2662
vn 0.9577 0.0753 -0.2778
vn 0.7033 0.2052 -0.6807
vn 0.5095 0.1220 -0.8518
vn 0.8782 0.4688 -0.0951
vn 0.8518 0.3651 -0.3756
vn 0.7679 0.4953 -0.4062
vn 0.7332 0.6262 -0.2650
vn 0.0050 -0.0722 -0.9974
vn 0.0069 -0.0699 -0.9975
vn 0.0030 -0.0716 -0.9974
vn 0.1578 -0.2242 -0.9617
vn 0.0908 -0.2161 -0.9721
vn 0.0887 -0.2189 -0.9717
vn 0.0106 -0.0916 -0.9957
vn 0.1770 -0.9754 -0.1315
vn 0.3437 -0.9239 -0.1681
vn 0.1958 -0.9805 0.0186
vn 0.0142 -0.0669 -0.9977
vn 0.2234 -0.1653 -0.9606
vn 0.4581 -0.8678 -0.1927
vn 0.1922 -0.9652 0.1775
vn 0.3210 -0.8737 0.3656
vn 0.1337 -0.9651 0.2254
vn -0.0027 0.0590 0.9983
vn -0.0019 0.0691 0.9976
vn -0.0035 0.0705 0.9975
vn -0.0092 0.0722 0.9973
vn -0.0090 0.0762 0.9971
vn -0.0098 0.0728 0.9973
vn 0.0131 0.4357 -0.9000
vn 0.0106 -0.0389 -0.9992
vn 0.0054 0.9972 -0.0741
vn 0.0120 -0.0680 -0.9976
vn 0.0170 -0.0652 -0.9977
vn 0.0183 -0.0645 -0.9978
vn 0.7454 -0.5781 0.3319
vn 0.5631 0.3072 -0.7672
vn 0.0005 0.0675 0.9977
vn -0.0054 0.0730 0.9973
vn -0.0079 0.0760 0.9971
vn -0.0109 0.0736 0.9972
vn -0.0102 0.0749 0.9971
vn 0.3216 0.9173 0.2347
vn 0.0747 0.9970 0.0184
vn 0.4990 0.8628 -0.0812
vn 0.4980 0.8534 -0.1542
vn 0.4264 0.9013 -0.0763
vn 0.6356 0.7547 -0.1629
vn 0.6332 0.5940 -0.4962
vn 0.1509 -0.0054 -0.9885
vn 0.1508 -0.0059 -0.9886
vn 0.5919 0.4228 -0.6862
vn 0.1441 0.9885 -0.0455
vn 0.1442 0.9884 -0.0468
vn 0.2064 0.9773 0.0477
vn 0.0009 -0.9955 0.0948
vn -0.0000 -0.9956 0.0937
vn 0.8157 -0.0686 0.5744
vn 0.2138 -0.0289 -0.9764
vn 0.9585 -0.1133 -0.2617
vn -0.9998 0.0143 -0.0105
vn -0.9998 0.0149 -0.0111
vn 0.0051 0.9989 -0.0460
vt 0.000000 0.000000
vt 0.000946 0.001590
vt 0.491454 0.860468
vt 0.560317 0.853218
vt 0.512871 0.775650
vt 0.560292 0.854806
s 1
f 7/1/1 6/1/2 66/1/3
f 7/1/1 66/1/3 8/1/4
f 10/1/5 67/1/6 68/1/7
f 10/1/5 68/1/7 11/1/8
f 3/1/9 12/1/10 13/1/11
f 3/1/9 13/1/11 4/1/12
f 20/1/13 71/1/14 18/1/15
f 18/1/15 21/1/16 20/1/13
f 21/1/16 18/1/15 22/1/17
f 22/1/17 18/1/15 70/1/18
f 22/1/17 70/1/18 23/1/19
f 13/1/11 12/1/10 15/1/20
f 13/1/11 15/1/20 14/1/21
f 14/1/21 15/1/20 70/1/18
f 30/1/22 27/1/23 31/1/24
f 31/1/24 27/1/23 62/1/25
f 28/1/26 62/1/25 29/1/27
f 29/1/27 62/1/25 24/1/28
f 39/1/29 40/1/30 28/1/26
f 37/1/31 38/1/32 29/1/27
f 33/1/33 31/1/24 40/1/30
f 40/1/30 31/1/24 28/1/26
f 44/1/34 42/1/35 24/1/28
f 44/1/34 24/1/28 45/1/36
f 46/1/37 43/1/38 55/1/39
f 55/1/39 43/1/38 44/1/34
f 55/1/39 44/1/34 47/1/40
f 47/1/40 44/1/34 45/1/36
f 52/1/41 46/1/37 48/1/42
f 48/1/42 46/1/37 55/1/39
f 51/1/43 50/1/44 52/1/41
f 58/2/45 25/1/46 63/3/47
f 25/1/46 26/1/47 63/3/47
f 62/1/25 27/1/23 26/1/48
f 27/1/49 36/1/49 26/1/50
f 36/1/51 63/3/51 26/1/51
f 27/1/23 30/1/22 36/1/52
f 30/1/22 34/1/53 36/1/52
f 34/1/53 35/1/54 36/1/52
f 61/1/55 25/1/46 58/2/45
f 24/1/28 62/1/25 25/1/56
f 15/1/20 46/1/37 52/1/41
f 34/1/53 30/1/22 32/1/57
f 1/1/58 2/1/59 65/1/60
f 2/1/59 68/1/7 65/1/60
f 68/1/61 67/1/61 65/1/61
f 67/1/62 5/1/63 65/1/64
f 69/1/65 64/1/66 65/1/64
f 56/4/67 57/5/68 58/6/69
f 57/5/70 61/1/55 58/2/45
f 57/5/70 59/1/71 61/1/55
f 59/1/71 60/1/72 61/1/55
f 9/1/73 39/1/29 8/1/4
f 47/1/40 54/1/74 55/1/39
f 67/1/62 6/1/75 5/1/63
f 14/1/76 18/1/77 5/1/63
f 71/1/78 17/1/79 18/1/77
f 17/1/79 69/1/65 18/1/77
f 14/1/21 70/1/18 18/1/15
f 71/1/14 19/1/80 17/1/81
f 53/1/82 59/1/83 57/5/84
f 49/1/85 50/1/44 59/1/83
f 50/1/86 60/1/86 59/1/86
f 53/1/82 49/1/85 59/1/83
f 47/1/87 61/1/88 60/1/88
f 50/1/44 51/1/43 60/1/89
f 51/1/43 54/1/74 60/1/89
f 54/1/74 47/1/40 60/1/89
f 31/1/24 62/1/25 28/1/26
f 23/1/19 70/1/18 15/1/20
f 66/1/3 6/1/2 67/1/6
f 71/1/14 20/1/13 19/1/80
f 57/5/90 56/1/90 16/1/91
f 16/1/92 19/1/80 57/5/84
f 10/1/5 40/1/30 9/1/73
f 11/1/8 33/1/33 10/1/5
f 9/1/73 40/1/30 39/1/29
f 10/1/5 33/1/33 40/1/30
f 52/1/41 23/1/19 15/1/20
f 8/1/4 38/1/32 7/1/1
f 46/1/37 12/1/10 43/1/38
f 8/1/4 39/1/29 38/1/32
f 46/1/37 15/1/20 12/1/10
f 62/1/25 26/1/48 25/1/56
f 5/1/63 18/1/77 69/1/65 65/1/64
f 63/3/93 36/1/94 65/1/94 64/1/94
f 16/1/92 17/1/81 19/1/80
f 1/1/58 65/1/60 36/1/52 35/1/54
f 52/1/41 48/1/42 51/1/43
f 4/1/12 13/1/11 14/1/21 5/1/95
f 6/1/2 7/1/1 4/1/12 5/1/95
f 53/1/82 57/5/84 19/1/80 20/1/13
f 47/1/40 45/1/36 61/1/96
f 61/1/96 45/1/36 24/1/28 25/1/56
f 42/1/35 29/1/27 24/1/28
f 37/1/31 3/1/9 7/1/1 38/1/32
f 29/1/27 42/1/35 41/1/97 37/1/31
f 32/1/57 11/1/8 2/1/59 34/1/53
f 21/1/16 22/1/17 50/1/44 49/1/85
f 51/1/43 48/1/42 55/1/39 54/1/74
f 10/1/5 9/1/73 67/1/6
f 34/1/53 2/1/59 1/1/58 35/1/54
f 9/1/73 8/1/4 66/1/3 67/1/6
f 3/1/9 4/1/12 7/1/1
f 58/2/98 63/3/99 64/1/99 69/1/99
f 43/1/38 41/1/97 42/1/35 44/1/34
f 29/1/27 38/1/32 28/1/26
f 49/1/85 53/1/82 20/1/13 21/1/16
f 37/1/31 41/1/97 3/1/9
f 12/1/10 3/1/9 41/1/97 43/1/38
f 58/2/69 69/1/100 17/1/81 56/1/67
f 68/1/7 2/1/59 11/1/8
f 22/1/17 23/1/19 52/1/41 50/1/44
f 31/1/24 33/1/33 32/1/57 30/1/22
f 11/1/8 32/1/57 33/1/33
f 39/1/29 28/1/26 38/1/32
f 56/1/67 17/1/81 16/1/92
