# Blender 4.4.3
# www.blender.org
mtllib compact_right_finger_2_3.mtl
o right_finger_2_3
v 0.000978 -0.016117 0.025625
v 0.002185 -0.015926 0.024225
v 0.003309 -0.015327 0.024192
v 0.003931 -0.014828 0.024293
v 0.004429 -0.014392 0.024047
v 0.004517 -0.014168 0.024391
v 0.005019 -0.013581 0.024200
v 0.005450 -0.012798 0.024155
v 0.005725 -0.012048 0.024128
v 0.005547 -0.010382 0.024638
v 0.005480 -0.011443 0.024666
v 0.005785 -0.010887 0.024409
v 0.005910 -0.011296 0.024041
v 0.005454 -0.012313 0.024518
v 0.005977 -0.010387 0.024028
v 0.004887 -0.013434 0.024585
v 0.005494 -0.005796 0.024332
v 0.005772 -0.005742 0.024071
v 0.005981 -0.006334 0.023746
v 0.005456 -0.003881 0.023541
v 0.005045 -0.003130 0.023475
v 0.004437 -0.002312 0.023202
v 0.004521 -0.002484 0.023581
v 0.003923 -0.001833 0.023397
v 0.003308 -0.001358 0.023222
v 0.002201 -0.000768 0.023145
v 0.005280 -0.003977 0.023971
v 0.005489 -0.004710 0.024103
v 0.005736 -0.004651 0.023612
v 0.005914 -0.005389 0.023617
v 0.001057 -0.000403 0.024479
v 0.004887 -0.003179 0.023869
v 0.002307 -0.017158 0.008039
v 0.003047 -0.016631 0.007705
v 0.001645 -0.017407 0.008206
v 0.003116 -0.016753 0.008129
v 0.003829 -0.016224 0.008078
v 0.004451 -0.015623 0.008022
v 0.004979 -0.014929 0.007978
v 0.005421 -0.014161 0.007921
v 0.005729 -0.013329 0.007842
v 0.005867 -0.012774 0.007797
v 0.005974 -0.011997 0.007728
v 0.005972 -0.006920 0.007376
v 0.005803 -0.006986 0.007026
v 0.001658 -0.001528 0.007090
v 0.002570 -0.001880 0.007097
v 0.003349 -0.002341 0.007125
v 0.004043 -0.002894 0.007143
v 0.004851 -0.003814 0.007193
v 0.005427 -0.004774 0.007352
v 0.005822 -0.005895 0.007405
v 0.005362 -0.004865 0.007025
v 0.005769 -0.005926 0.007186
v 0.002507 -0.001955 0.006837
v 0.003506 -0.002710 0.006697
v 0.004123 -0.003274 0.006740
v 0.004697 -0.003940 0.006795
v 0.005649 -0.005977 0.006952
v 0.002569 -0.002151 0.006639
v 0.002121 -0.015619 0.025600
v 0.003043 -0.014825 0.025552
v 0.002121 -0.000875 0.024524
v 0.003043 -0.001669 0.024591
v 0.003597 -0.002511 0.024658
v 0.003597 -0.013981 0.025496
v -0.003229 -0.016231 0.025591
v 0.000022 -0.016226 0.025624
v 0.000001 -0.000271 0.024459
v 0.005247 -0.004903 0.006868
v -0.000200 -0.001100 0.006536
v 0.005284 -0.014084 0.007539
v 0.004709 -0.015068 0.007606
v 0.003951 -0.015936 0.007664
v 0.002229 -0.017026 0.007722
v -0.000204 -0.017887 0.007761
v 0.005815 -0.012004 0.007392
v 0.005665 -0.013003 0.007465
v -0.002974 -0.000273 0.024428
v -0.002787 -0.001096 0.006509
v -0.002885 -0.007358 0.006966
v -0.002929 -0.010150 0.007169
v -0.003051 -0.017859 0.007845
v -0.003050 -0.017902 0.007734
vn 0.8159 -0.0497 0.5760
vn 0.5387 0.0459 0.8412
vn 0.6019 -0.0737 0.7952
vn 0.9615 -0.1508 0.2298
vn 0.9699 -0.0111 0.2432
vn 0.7477 -0.2353 0.6210
vn 0.9342 -0.2495 0.2551
vn 0.7163 -0.3884 0.5796
vn 0.8838 -0.3969 0.2477
vn 0.8235 -0.4838 0.2965
vn 0.7141 -0.6814 0.1605
vn 0.7194 -0.5760 0.3883
vn 0.6475 -0.7233 0.2398
vn 0.8059 0.1247 0.5787
vn 0.9686 0.0440 0.2448
vn 0.8286 0.5314 0.1764
vn 0.7402 0.6714 0.0357
vn 0.7187 0.6218 0.3110
vn 0.7271 0.3591 0.5852
vn 0.6965 0.2455 0.6742
vn 0.8894 0.4118 0.1987
vn 0.6205 0.1119 0.7762
vn 0.9285 0.2921 0.2292
vn 0.9626 0.1753 0.2064
vn 0.6435 0.7487 0.1596
vn 0.7107 0.4709 0.5226
vn 0.9722 0.0583 -0.2269
vn 0.9728 -0.0853 -0.2154
vn 0.8979 0.0342 -0.4388
vn 0.8996 -0.0957 -0.4261
vn 0.7921 0.5608 -0.2409
vn 0.8989 0.4120 -0.1492
vn 0.8247 0.3438 -0.4490
vn 0.9621 0.2362 -0.1362
vn 0.9066 0.2016 -0.3707
vn 0.3860 0.7905 -0.4754
vn 0.3374 0.9015 -0.2710
vn 0.4341 0.8786 -0.1991
vn 0.5557 0.7957 -0.2408
vn 0.5575 0.7022 -0.4428
vn 0.6744 0.6960 -0.2464
vn 0.6698 0.5990 -0.4389
vn 0.7347 0.5041 -0.4541
vn 0.8594 0.1705 -0.4820
vn 0.7331 0.3031 -0.6089
vn 0.3882 0.6858 -0.6156
vn -0.9998 0.0153 -0.0111
vn -0.9998 0.0148 -0.0114
vn -0.9998 0.0152 -0.0106
vn 0.0001 -0.0000 1.0000
vn -0.0000 -0.0000 1.0000
vn -0.0004 0.0003 1.0000
vn -0.9995 -0.0000 0.0311
vn -0.9995 -0.0000 0.0312
vn -0.9995 0.0003 0.0307
vn 0.0100 -0.0728 -0.9973
vn 0.0101 -0.0726 -0.9973
vn 0.0101 -0.0724 -0.9973
vn 0.6991 -0.6770 -0.2299
vn 0.6285 -0.7037 -0.3313
vn 0.7471 -0.5597 -0.3586
vn -0.9998 0.0154 -0.0115
vn -0.9998 0.0150 -0.0113
vn 0.0352 0.4781 -0.8776
vn 0.0031 0.9832 -0.1824
vn 0.0098 -0.0729 -0.9973
vn -0.9998 0.0152 -0.0111
vn -0.0002 0.9989 -0.0459
vn -0.0098 0.0748 0.9972
vn -0.0100 0.0730 0.9973
vn -0.0097 0.0736 0.9972
vn 0.1133 -0.9894 0.0906
vn 0.1137 -0.9894 0.0899
vn -0.0102 0.0728 0.9973
vn 0.1254 0.9909 -0.0482
vn 0.1251 0.9910 -0.0473
vn 0.1250 0.9911 -0.0467
vn 0.0490 -0.0214 -0.9986
vn 0.0495 -0.0214 -0.9985
vn 0.0507 -0.0222 -0.9985
vn 0.0202 -0.0645 -0.9977
vn 0.0207 -0.0634 -0.9978
vn 0.0179 -0.0674 -0.9976
vn 0.0192 -0.0708 -0.9973
vn 0.0177 -0.0711 -0.9973
vn 0.0107 -0.0742 -0.9972
vn 0.0147 -0.0749 -0.9971
vn 0.0074 -0.0724 -0.9973
vn 0.0110 -0.0731 -0.9973
vn -0.0000 -0.0447 -0.9990
vn 0.3394 -0.8366 -0.4300
vn 0.3907 -0.9009 -0.1888
vn 0.2464 -0.9691 0.0108
vn 0.3010 -0.9523 -0.0506
vn -0.0098 0.0736 0.9972
vn -0.0102 0.0727 0.9973
vn -0.0101 0.0728 0.9973
vn 0.3741 -0.9185 0.1284
vn 0.0226 -0.0698 -0.9973
vn 0.0193 -0.0759 -0.9969
vn 0.0172 -0.0749 -0.9970
vn 0.0098 -0.0732 -0.9973
vn 0.5298 -0.8395 -0.1204
vn 0.4995 -0.7970 -0.3396
vn 0.4720 0.8683 0.1528
vn 0.3777 0.9259 -0.0001
vn 0.3360 0.9414 0.0288
vn 0.5408 -0.8234 0.1719
vn 0.4344 -0.8713 0.2283
vn 0.6028 -0.6742 0.4268
vn 0.6033 -0.6739 0.4264
vn 0.6489 -0.5739 0.4995
vn 0.6355 -0.3723 0.6764
vn -0.0098 0.0729 0.9973
vn -0.0099 0.0728 0.9973
vn 0.0214 -0.0642 -0.9977
vn 0.6291 -0.7658 -0.1332
vn 0.5036 -0.1174 0.8560
vn 0.2841 0.0697 0.9563
vn 0.2852 0.0698 0.9559
vn -0.0101 0.0727 0.9973
vn 0.6115 0.7019 0.3652
vn 0.5472 0.8349 0.0600
vn 0.5656 0.3070 0.7654
vn 0.6237 0.4608 0.6314
vn 0.6244 0.4603 0.6311
vn 0.8641 -0.5004 0.0543
vn 0.8675 -0.4958 0.0391
vn 0.8678 -0.4953 0.0394
vn 0.9605 -0.1945 -0.1991
vn 0.3238 -0.9338 0.1523
vn 0.8809 -0.3981 -0.2559
vn 0.0024 -0.9957 0.0929
vn 0.0027 -0.9957 0.0930
vn 0.9309 -0.3125 -0.1892
vn 0.8835 -0.2490 -0.3968
vn 0.2392 0.9694 -0.0544
vn 0.2399 0.9693 -0.0541
vn 0.2395 0.9694 -0.0544
vn 0.7739 -0.5175 -0.3651
vn 0.8228 -0.4086 -0.3951
vn 0.8004 -0.5976 0.0467
vn 0.8007 -0.5972 0.0476
vn 0.8002 -0.5979 0.0474
vn 0.8003 -0.5979 0.0455
vn -0.0103 0.0728 0.9973
vn 0.0019 0.9989 -0.0467
vt 0.000000 0.000000
vt 0.415681 0.643237
vt 0.152616 0.243815
vt 0.002839 0.004406
vt 0.000001 0.000000
vt 0.492262 0.383454
vt 0.549423 0.841565
s 1
f 12/1/1 10/1/2 11/1/3
f 13/1/4 15/1/5 12/1/1
f 12/1/1 14/1/6 13/1/4
f 13/1/4 14/1/6 9/1/7
f 14/1/6 16/1/8 8/1/9
f 8/1/9 16/1/8 7/1/10
f 5/1/11 7/1/10 6/1/12
f 4/1/13 5/1/11 6/1/12
f 18/1/14 10/1/2 12/1/1
f 18/1/14 12/1/1 19/1/15
f 19/1/15 12/1/1 15/1/5
f 21/1/16 22/1/17 23/1/18
f 27/1/19 28/1/20 20/1/21
f 28/1/20 17/1/22 18/1/14
f 20/1/21 28/1/20 29/1/23
f 30/1/24 18/1/14 19/1/15
f 23/1/18 22/1/17 24/1/25
f 21/1/16 23/1/18 32/1/26
f 44/1/27 43/1/28 45/2/29
f 45/2/29 43/1/28 77/3/30
f 50/1/31 51/1/32 53/1/33
f 53/1/33 51/1/32 52/1/34
f 53/1/33 52/1/34 54/1/35
f 54/1/35 52/1/34 44/1/27
f 55/1/36 46/1/37 47/1/38
f 55/1/36 47/1/38 48/1/39
f 55/1/36 48/1/39 56/1/40
f 56/1/40 48/1/39 49/1/41
f 56/1/40 49/1/41 57/1/42
f 57/1/42 49/1/41 50/1/31
f 57/1/42 50/1/31 58/1/43
f 58/1/43 50/1/31 53/1/33
f 53/1/33 54/1/35 59/1/44
f 59/1/44 54/1/35 44/1/27
f 59/1/44 44/1/27 45/4/29
f 70/1/45 58/1/43 53/1/33
f 60/1/46 55/1/36 56/1/40
f 17/1/22 10/1/2 18/1/14
f 83/1/47 82/1/48 84/1/49
f 82/1/50 80/1/51 84/1/52
f 80/1/53 81/1/54 84/1/55
f 81/1/56 76/1/57 84/1/58
f 38/1/59 74/1/60 73/1/61
f 67/1/62 83/1/47 84/1/49
f 67/1/62 82/1/48 83/1/47
f 67/1/62 80/1/63 82/1/48
f 71/1/64 60/1/46 80/1/65
f 76/1/57 81/1/56 80/1/66
f 67/1/62 79/5/67 80/1/63
f 79/5/68 69/1/68 80/1/68
f 1/1/69 67/1/70 68/1/71
f 76/1/72 1/1/72 68/1/73
f 1/1/69 79/5/74 67/6/70
f 46/1/37 55/1/36 71/1/64
f 55/1/36 60/1/46 71/1/64
f 69/1/75 31/1/76 71/1/77
f 56/1/78 57/1/79 60/1/80
f 57/1/81 70/1/82 60/1/83
f 70/1/84 45/4/85 60/1/86
f 45/2/85 77/3/87 60/1/86
f 77/3/87 74/1/88 60/1/86
f 74/1/88 34/1/89 60/1/86
f 34/1/89 76/1/57 60/1/86
f 34/1/90 75/1/90 76/1/90
f 75/1/91 33/1/92 76/1/93
f 33/1/92 35/1/94 76/1/93
f 61/1/95 62/1/96 1/1/69
f 62/1/96 31/1/97 1/1/69
f 2/1/98 35/1/94 33/1/92
f 59/1/99 45/4/85 70/7/84
f 78/1/100 72/1/101 77/3/87
f 72/1/101 73/1/102 77/3/87
f 73/1/102 74/1/88 77/3/87
f 36/1/103 33/1/92 34/1/104
f 63/1/105 26/1/106 31/1/107
f 2/1/98 3/1/108 61/1/109
f 3/1/108 4/1/13 61/1/109
f 4/1/110 62/1/110 61/1/111
f 6/1/12 16/1/8 62/1/112
f 16/1/113 66/1/113 62/1/113
f 66/1/97 31/1/97 62/1/96
f 4/1/13 6/1/12 62/1/112
f 66/1/97 65/1/114 31/1/97
f 65/1/114 63/1/115 31/1/97
f 58/1/116 70/1/82 57/1/81
f 74/1/60 38/1/59 37/1/117
f 9/1/7 14/1/6 8/1/9
f 33/1/92 75/1/91 34/1/104
f 14/1/6 66/1/118 16/1/8
f 14/1/6 11/1/3 66/1/118
f 11/1/3 10/1/2 66/1/118
f 10/1/2 17/1/22 66/1/118
f 17/1/119 65/1/120 66/1/120
f 65/1/114 64/1/121 63/1/115
f 64/1/122 24/1/25 63/1/105
f 25/1/123 48/1/39 47/1/38
f 30/1/24 52/1/34 29/1/23
f 26/1/106 46/1/37 31/1/107
f 17/1/22 28/1/20 65/1/124
f 28/1/20 27/1/19 65/1/124
f 27/1/19 32/1/26 65/1/124
f 32/1/125 64/1/126 65/1/126
f 76/1/57 80/1/66 60/1/86
f 24/1/25 25/1/123 63/1/105
f 25/1/123 26/1/106 63/1/105
f 32/1/26 23/1/18 64/1/122
f 23/1/18 24/1/25 64/1/122
f 20/1/21 51/1/32 21/1/16
f 40/1/127 7/1/128 39/1/129
f 12/1/1 11/1/3 14/1/6
f 50/1/31 22/1/17 21/1/16
f 22/1/17 49/1/41 24/1/25
f 13/1/4 42/1/130 43/1/28
f 30/1/24 19/1/15 44/1/27
f 15/1/5 13/1/4 43/1/28
f 59/1/44 70/1/45 53/1/33
f 1/1/131 76/1/93 35/1/94
f 2/1/98 1/1/131 35/1/94
f 8/1/9 7/1/10 40/1/132
f 76/1/133 68/1/133 67/1/133 84/1/134
f 13/1/4 9/1/7 41/1/135 42/1/130
f 6/1/12 7/1/10 16/1/8
f 61/1/109 1/1/131 2/1/98
f 42/1/130 41/1/135 78/1/136
f 2/1/98 33/1/92 36/1/103 3/1/108
f 46/1/137 71/1/138 31/1/139
f 40/1/132 41/1/135 9/1/7 8/1/9
f 39/1/140 38/1/59 73/1/61
f 26/1/106 47/1/38 46/1/37
f 18/1/14 30/1/24 29/1/23 28/1/20
f 73/1/61 72/1/141 40/1/132 39/1/140
f 48/1/39 25/1/123 24/1/25 49/1/41
f 26/1/106 25/1/123 47/1/38
f 30/1/24 44/1/27 52/1/34
f 32/1/26 27/1/19 20/1/21 21/1/16
f 22/1/17 50/1/31 49/1/41
f 5/1/142 38/1/143 39/1/144 7/1/145
f 78/1/136 77/3/30 43/1/28 42/1/130
f 37/1/117 38/1/59 5/1/11 4/1/13
f 79/5/74 1/1/69 31/1/97 69/1/146
f 21/1/16 51/1/32 50/1/31
f 34/1/104 74/1/60 37/1/117 36/1/103
f 71/1/64 80/1/65 69/1/147
f 4/1/13 3/1/108 36/1/103 37/1/117
f 72/1/141 78/1/136 41/1/135 40/1/132
f 51/1/32 20/1/21 29/1/23 52/1/34
f 19/1/15 15/1/5 43/1/28 44/1/27
