# Blender 4.3.2
# www.blender.org
mtllib compact_right_arm_1.mtl
o right_arm_1
v -0.094770 -0.006022 -0.057057
v -0.092268 0.029983 -0.057024
v -0.068826 -0.026463 -0.057016
v -0.041331 -0.024001 -0.057066
v -0.020109 0.014545 -0.056983
v -0.037181 0.041692 -0.057041
v -0.065194 0.048587 -0.057008
v -0.106110 0.017541 0.034973
v -0.056163 0.058505 0.035437
v -0.071493 -0.035927 0.035392
v -0.091823 0.045600 0.035018
v -0.100624 -0.013745 0.035010
v -0.057489 0.057925 -0.036530
v -0.086228 0.049466 -0.035342
v -0.106833 0.019709 -0.034918
v -0.096627 -0.019547 -0.035518
v -0.071069 -0.035395 -0.035246
v 0.010056 0.032953 -0.031030
v 0.010263 0.035665 0.028653
v 0.010287 0.046253 -0.005151
v -0.004459 -0.036572 -0.031048
v -0.003781 -0.032902 0.034709
v -0.004154 -0.046981 0.001615
v 0.000747 -0.007272 0.046700
v 0.002715 0.002679 -0.048719
v 0.004651 0.014630 0.045475
vn -0.7817 0.1135 0.6132
vn -0.9645 0.1704 -0.2019
vn -0.6924 -0.4041 0.5977
vn -0.5872 -0.2564 -0.7678
vn -0.7740 -0.6019 -0.1966
vn -0.5357 0.5930 0.6012
vn 0.6279 0.0969 0.7722
vn -0.0455 0.7972 0.6020
vn 0.2452 0.5086 -0.8254
vn 0.7138 0.4870 -0.5034
vn 0.7490 -0.1100 -0.6534
vn 0.5904 -0.2143 0.7781
vn -0.2963 -0.7402 0.6035
vn 0.6375 0.5917 0.4934
vn 0.7477 0.6623 -0.0482
vn 0.2655 0.0814 -0.9607
vn 0.5648 -0.6164 0.5487
vn -0.5340 0.3189 -0.7830
vn -0.5687 0.7986 -0.1970
vn 0.4369 -0.8991 0.0276
vn 0.9849 -0.1733 0.0044
vn -0.1749 -0.5888 -0.7891
vn -0.2924 -0.9303 -0.2215
vn 0.6017 -0.6806 -0.4179
vn 0.1318 -0.4749 -0.8701
vn 0.0048 0.9739 -0.2270
vn -0.1085 0.6060 -0.7880
s 1
f 8//1 15//2 12//3
f 1//4 16//5 15//2
f 11//6 26//7 9//8
f 6//9 18//10 25//11
f 8//1 12//3 24//12
f 12//3 10//13 24//12
f 24//12 19//14 26//7
f 11//6 15//2 8//1
f 19//14 20//15 9//8
f 25//11 5//16 6//9
f 10//13 22//17 24//12
f 12//3 16//5 10//13
f 2//18 15//2 14//19
f 19//14 9//8 26//7
f 24//12 23//20 19//14
f 23//20 22//17 10//13
s 0
f 18//21 19//21 23//21
s 1
f 3//22 17//23 16//5
f 1//4 15//2 2//18
f 25//11 18//10 23//20
f 21//24 25//11 23//20
f 4//25 5//16 25//11
f 4//25 21//24 3//22
f 23//20 10//13 17//23
f 4//25 25//11 21//24
f 11//6 14//19 15//2
f 12//3 15//2 16//5
f 14//19 9//8 13//26
f 24//12 11//6 8//1
f 20//15 6//9 13//26
f 10//13 16//5 17//23
f 1//4 3//22 16//5
f 13//26 6//9 7//27
f 14//19 13//26 7//27
f 20//15 13//26 9//8
f 18//10 20//15 19//14
f 17//23 21//24 23//20
f 7//27 2//18 14//19
f 2//18 4//25 1//4
f 5//16 4//25 6//9
f 2//18 7//27 6//9
f 3//22 1//4 4//25
f 24//12 22//17 23//20
f 14//19 11//6 9//8
f 24//12 26//7 11//6
f 20//15 18//10 6//9
f 17//23 3//22 21//24
f 2//18 6//9 4//25
