# Blender 4.3.2
# www.blender.org
o waist_2
v 0.322832 -0.027328 0.073733
v 0.378464 -0.014166 -0.051763
v 0.376275 -0.012858 0.051275
v 0.413403 -0.059229 0.051565
v 0.405958 -0.044931 -0.051572
v 0.410876 -0.080765 -0.055965
v 0.398115 -0.121378 0.051518
v 0.400791 -0.116222 -0.051201
v 0.363331 -0.145006 -0.051074
v 0.358129 -0.145611 0.051012
v 0.304725 -0.140032 0.050640
v 0.305115 -0.138985 -0.052273
v 0.373922 -0.095626 -0.077092
v 0.364133 -0.044916 -0.077355
v 0.311371 -0.055354 -0.077345
v 0.385887 -0.113582 -0.067990
v 0.287733 -0.102263 0.068247
v 0.399204 -0.062893 0.068041
v 0.297660 -0.038416 0.069054
v 0.371064 -0.023534 0.068923
v 0.392679 -0.106530 0.067960
v 0.349057 -0.130582 0.073402
v 0.325463 -0.111346 -0.077323
v 0.261351 -0.081761 0.053116
v 0.328793 -0.001309 0.052584
v 0.328428 -0.001455 -0.053526
v 0.261406 -0.081421 -0.053948
vn 0.7499 -0.5809 0.3166
vn 0.8729 -0.0426 -0.4861
vn 0.9246 0.2071 0.3199
vn 0.7899 -0.5311 -0.3067
vn 0.2330 -0.8857 -0.4015
vn 0.2137 -0.9295 0.3004
vn -0.2094 -0.8597 0.4658
vn -0.0885 -0.9279 -0.3623
vn -0.0001 -0.0004 -1.0000
vn 0.0026 -0.0007 -1.0000
vn 0.0238 -0.4525 -0.8914
vn 0.4353 -0.4198 -0.7965
vn -0.3805 -0.0961 -0.9198
vn 0.2607 -0.1159 -0.9584
vn 0.2483 0.3301 -0.9107
vn 0.5233 -0.2618 0.8109
vn -0.5643 0.4765 -0.6742
vn 0.8123 0.4000 -0.4245
vn 0.4775 0.7766 -0.4111
vn -0.7664 0.6424 -0.0012
vn -0.0843 0.4250 -0.9013
vn 0.1560 0.8402 -0.5194
vn -0.4081 0.0519 0.9114
vn -0.2510 0.0268 0.9676
vn -0.4608 0.0605 0.8854
vn -0.0964 -0.0277 0.9950
vn -0.0968 -0.0285 0.9949
vn 0.5098 0.8142 0.2778
vn -0.1900 0.0171 0.9816
vn -0.4014 0.6313 0.6635
vn 0.0284 0.6266 0.7788
vn -0.6931 -0.5364 0.4817
vn 0.0824 -0.6823 0.7264
vn 0.0958 0.0460 0.9943
vn 0.6192 0.1389 0.7729
vn 0.3609 0.4466 0.8187
vn 0.2377 0.9637 0.1217
vn 0.0835 0.0160 0.9964
vn 0.0825 0.0178 0.9964
vn -0.7663 0.6424 0.0017
vn -0.3037 -0.5114 0.8039
vn -0.7963 -0.6049 -0.0092
vn -0.4682 -0.3788 -0.7983
vn -0.7664 0.6423 0.0018
vn -0.8022 -0.5970 -0.0023
vt 0.000000 0.000000
s 1
f 7/1/1 6/1/2 4/1/3
f 7/1/1 8/1/4 6/1/2
f 7/1/1 9/1/5 8/1/4
f 10/1/6 9/1/5 7/1/1
f 11/1/7 9/1/5 10/1/6
f 11/1/7 12/1/8 9/1/5
s 0
f 23/1/9 15/1/10 14/1/9
s 1
f 9/1/5 23/1/11 16/1/12
f 27/1/13 15/1/13 23/1/13
f 13/1/14 23/1/11 14/1/15
f 21/1/16 7/1/1 4/1/3
s 0
f 27/1/17 26/1/17 15/1/17
s 1
f 5/1/18 14/1/15 2/1/19
s 0
f 19/1/20 25/1/20 24/1/20
s 1
f 6/1/2 13/1/14 14/1/15
f 14/1/15 15/1/21 26/1/22
f 13/1/14 16/1/12 23/1/11
f 17/1/23 19/1/24 24/1/25
s 0
f 22/1/26 1/1/27 17/1/26
s 1
f 5/1/18 3/1/28 4/1/3
f 1/1/29 19/1/24 17/1/23
s 0
f 1/1/30 25/1/30 19/1/30
f 1/1/31 20/1/31 25/1/31
f 17/1/32 24/1/32 11/1/32
s 1
f 7/1/1 22/1/33 10/1/6
f 6/1/2 16/1/12 13/1/14
f 1/1/34 18/1/35 20/1/36
f 5/1/18 4/1/3 6/1/2
f 3/1/28 25/1/37 20/1/36
f 14/1/15 5/1/18 6/1/2
f 21/1/16 18/1/35 22/1/33
s 0
f 1/1/38 22/1/39 18/1/39
f 25/1/40 27/1/40 24/1/40
s 1
f 22/1/33 17/1/41 11/1/7
s 0
f 11/1/42 27/1/42 12/1/42
s 1
f 3/1/28 26/1/22 25/1/37
f 4/1/3 3/1/28 20/1/36
f 6/1/2 8/1/4 16/1/12
f 21/1/16 22/1/33 7/1/1
f 14/1/15 26/1/22 2/1/19
s 0
f 12/1/43 27/1/43 23/1/43
s 1
f 22/1/33 11/1/7 10/1/6
f 9/1/5 12/1/8 23/1/11
f 4/1/3 20/1/36 18/1/35
f 8/1/4 9/1/5 16/1/12
f 18/1/35 21/1/16 4/1/3
f 5/1/18 2/1/19 3/1/28
s 0
f 25/1/44 26/1/44 27/1/44
f 11/1/45 24/1/45 27/1/45
s 1
f 3/1/28 2/1/19 26/1/22
