# Blender 4.4.3
# www.blender.org
mtllib compact_right_finger_5_3.mtl
o right_finger_5_3
v 0.000981 -0.006308 0.023470
v 0.001740 -0.006074 0.023724
v 0.003215 -0.005410 0.023645
v 0.003890 -0.004903 0.023632
v 0.004474 -0.004351 0.023563
v 0.005026 -0.003620 0.023502
v 0.005445 -0.002858 0.023459
v 0.005725 -0.002096 0.023431
v 0.005769 -0.000845 0.023742
v 0.005911 -0.001342 0.023345
v 0.005228 -0.001953 0.024078
v 0.005462 -0.002359 0.023814
v 0.002723 -0.005206 0.024235
v 0.002321 -0.005679 0.024025
v 0.002414 -0.005842 0.023655
v 0.005981 -0.000400 0.023322
v 0.004945 -0.002965 0.024070
v 0.004887 -0.003483 0.023889
v 0.004115 -0.004450 0.023958
v 0.004223 -0.003985 0.024146
v 0.003141 -0.005225 0.024011
v 0.005773 0.004208 0.023374
v 0.005977 0.003653 0.023055
v 0.005444 0.006096 0.022832
v 0.005027 0.006853 0.022771
v 0.004466 0.007595 0.022725
v 0.003905 0.008132 0.022728
v 0.003237 0.008633 0.022667
v 0.002432 0.009069 0.022614
v 0.001756 0.009311 0.022649
v 0.005222 0.005681 0.023468
v 0.005458 0.005631 0.023264
v 0.002305 0.008973 0.023005
v 0.005733 0.005310 0.022920
v 0.005914 0.004562 0.022921
v 0.001075 0.009493 0.022375
v 0.002258 0.008728 0.023275
v 0.003514 0.008259 0.023080
v 0.004390 0.007435 0.023125
v 0.004887 0.006773 0.023172
v 0.002666 -0.006919 0.007061
v 0.003422 -0.006418 0.006985
v 0.004262 -0.005553 0.006835
v 0.005635 -0.002062 0.006497
v 0.003969 -0.006040 0.007074
v 0.004726 -0.005170 0.006989
v 0.005355 -0.004181 0.006988
v 0.005733 -0.003085 0.006889
v 0.005873 -0.002072 0.006785
v 0.002107 -0.007300 0.007523
v 0.003100 -0.006813 0.007444
v 0.004041 -0.006093 0.007367
v 0.004825 -0.005204 0.007282
v 0.005430 -0.004194 0.007306
v 0.005819 -0.003095 0.007210
v 0.005980 -0.002059 0.007116
v 0.005982 0.003017 0.006775
v 0.005881 0.002990 0.006445
v 0.005623 0.002904 0.006136
v 0.002157 0.008258 0.006446
v 0.003114 0.007772 0.006419
v 0.003825 0.007243 0.006441
v 0.004454 0.006633 0.006466
v 0.004987 0.005919 0.006500
v 0.005290 0.005435 0.006640
v 0.005654 0.004620 0.006680
v 0.005879 0.003768 0.006728
v 0.005356 0.005105 0.006335
v 0.005733 0.004002 0.006389
v 0.002700 0.007833 0.006058
v 0.003453 0.007297 0.006015
v 0.003969 0.006964 0.006162
v 0.004727 0.006089 0.006200
v 0.004293 0.006416 0.006000
v 0.004941 0.005493 0.006050
v 0.005177 0.004751 0.005996
v 0.005480 0.003869 0.006063
v 0.002917 0.007354 0.005781
v 0.003785 0.006704 0.005836
v -0.000200 0.008892 0.005637
v 0.004564 0.005816 0.005909
v -0.000153 -0.007984 0.006869
v -0.002462 -0.008005 0.006848
v 0.005524 -0.002857 0.006552
v 0.005303 -0.003662 0.006611
v 0.004829 -0.004645 0.006678
v 0.003758 -0.005906 0.006757
v 0.002793 -0.006606 0.006798
v -0.002198 0.008895 0.005617
v 0.002664 -0.005092 0.024288
v -0.000198 -0.006316 0.024349
v -0.002631 -0.006318 0.024325
v 0.003523 -0.004517 0.024250
v -0.002586 -0.003470 0.024117
v 0.004402 -0.003520 0.024191
v -0.002381 0.009640 0.023163
v -0.000196 0.009640 0.023184
v 0.005480 0.004258 0.023625
v 0.005448 -0.000884 0.024004
v 0.005165 0.005491 0.023541
v 0.004417 0.007003 0.023418
v -0.002426 0.006747 0.023373
v 0.003310 0.008118 0.023328
vn 0.9595 -0.1473 0.2399
vn 0.9699 -0.0124 0.2431
vn 0.7892 -0.0352 0.6131
vn 0.6323 -0.0199 0.7745
vn 0.6215 -0.1171 0.7746
vn 0.7623 -0.2336 0.6036
vn 0.8842 -0.3989 0.2431
vn 0.9351 -0.2470 0.2540
vn 0.5122 -0.2126 0.8321
vn 0.5694 -0.5345 0.6246
vn 0.6806 -0.4036 0.6115
vn 0.4463 -0.3240 0.8342
vn 0.6247 -0.7258 0.2881
vn 0.7376 -0.6225 0.2617
vn 0.5209 -0.8089 0.2727
vn 0.4545 -0.6348 0.6249
vn 0.2886 -0.4680 0.8352
vn 0.4075 -0.4505 0.7944
vn 0.2055 -0.3237 0.9236
vn 0.3253 -0.7093 0.6253
vn 0.3966 -0.8798 0.2622
vn 0.9328 0.2843 0.2217
vn 0.7623 0.3146 0.5656
vn 0.7956 0.1282 0.5921
vn 0.9639 0.1753 0.2004
vn 0.9691 0.0442 0.2425
vn 0.2890 0.6594 0.6940
vn 0.4036 0.6039 0.6873
vn 0.3357 0.7859 0.5193
vn 0.4912 0.6872 0.5352
vn 0.8216 0.5403 0.1821
vn 0.7283 0.6621 0.1765
vn 0.6951 0.4648 0.5485
vn 0.6041 0.5779 0.5488
vn 0.5513 0.4657 0.6922
vn 0.8787 0.0334 -0.4762
vn 0.8799 -0.1005 -0.4644
vn 0.7667 0.0062 -0.6420
vn 0.7725 -0.1021 -0.6268
vn 0.8060 0.5200 -0.2828
vn 0.8857 0.4240 -0.1891
vn 0.8218 0.3410 -0.4565
vn 0.9335 0.3140 -0.1732
vn 0.8653 0.1840 -0.4663
vn 0.9724 0.1695 -0.1601
vn 0.9863 0.0593 -0.1541
vn 0.3959 0.7281 -0.5595
vn 0.4138 0.8697 -0.2692
vn 0.5233 0.8197 -0.2329
vn 0.4905 0.6177 -0.6147
vn 0.6303 0.7452 -0.2176
vn 0.6044 0.6098 -0.5126
vn 0.7360 0.6342 -0.2369
vn 0.7051 0.4776 -0.5241
vn 0.5654 0.4468 -0.6933
vn 0.6379 0.3179 -0.7014
vn 0.7155 0.2355 -0.6577
vn 0.7537 0.1349 -0.6432
vn 0.3657 0.5605 -0.7430
vn 0.4845 0.4726 -0.7361
vn 0.5661 0.3528 -0.7450
vn 0.4232 -0.2370 0.8745
vn 0.0105 -0.0723 -0.9973
vn 0.0099 -0.0728 -0.9973
vn 0.8831 0.4295 0.1891
vn -0.0101 0.0727 0.9973
vn -0.0101 0.0728 0.9973
vn -0.0001 -0.0000 -1.0000
vn -0.0000 -0.0000 -1.0000
vn -0.0000 -0.0001 -1.0000
vn -0.9998 0.0149 -0.0111
vn -0.9998 0.0148 -0.0111
vn 0.0107 -0.0727 -0.9973
vn 0.0098 -0.0729 -0.9973
vn 0.2356 -0.9557 0.1762
vn 0.2907 -0.9070 0.3047
vn 0.2393 -0.8303 0.5034
vn -0.0195 0.0948 0.9953
vn -0.0119 0.0723 0.9973
vn -0.0099 0.0728 0.9973
vn -0.0100 0.0728 0.9973
vn 0.9998 -0.0000 -0.0215
vn 0.0327 0.6224 0.7820
vn -0.0004 0.9968 0.0803
vn 0.3544 0.7474 -0.5619
vn 0.0132 -0.0662 -0.9977
vn 0.0127 -0.0697 -0.9975
vn 0.0126 -0.0680 -0.9976
vn 0.0881 0.9952 -0.0424
vn 0.3882 -0.7987 -0.4597
vn 0.3646 -0.6670 -0.6497
vn 0.4926 -0.7033 -0.5126
vn 0.2917 0.9261 0.2393
vn 0.2019 0.9692 0.1410
vn 0.0059 -0.0717 -0.9974
vn 0.2921 -0.9559 -0.0308
vn 0.3677 -0.9259 -0.0868
vn -0.0083 0.0731 0.9973
vn -0.0132 0.0728 0.9973
vn 0.0069 -0.0752 -0.9971
vn 0.0086 -0.0738 -0.9972
vn -0.0110 0.0723 0.9973
vn 0.4320 0.1918 0.8812
vn 0.3796 0.1131 0.9182
vn 0.5196 0.2788 0.8077
vn 0.4932 -0.5873 -0.6418
vn 0.5446 -0.5236 -0.6552
vn 0.0029 -0.0708 -0.9975
vn 0.0006 -0.0701 -0.9975
vn 0.0108 0.0664 0.9977
vn 0.0109 0.0669 0.9977
vn -0.0110 0.0724 0.9973
vn 0.0243 -0.0674 -0.9974
vn 0.0242 -0.0678 -0.9974
vn 0.0264 -0.0723 -0.9970
vn -0.0127 0.0719 0.9973
vn 0.0005 0.0812 0.9967
vn 0.5235 -0.8443 -0.1142
vn 0.0181 -0.0779 -0.9968
vn 0.0191 -0.0772 -0.9968
vn 0.6715 -0.7320 -0.1147
vn 0.8153 -0.4083 -0.4106
vn 0.6829 -0.4455 -0.5789
vn 0.7546 -0.3184 -0.5737
vn 0.9075 -0.3951 -0.1425
vn 0.7686 -0.6107 -0.1905
vn 0.4055 0.9016 0.1507
vn 0.8541 -0.5184 0.0416
vn 0.8568 -0.5142 0.0396
vn 0.9600 -0.2530 -0.1203
vn 0.9859 -0.0862 -0.1437
vn 0.7030 -0.5460 -0.4558
vn 0.8179 -0.5112 0.2641
vn 0.8509 0.5243 -0.0322
vn 0.8512 0.5239 -0.0319
vn 0.2777 0.9590 -0.0566
vn 0.2768 0.9593 -0.0557
vn 0.2774 0.9591 -0.0555
vn 0.0039 -0.9954 0.0956
vn 0.0044 -0.9954 0.0960
vn 0.8646 -0.2458 -0.4383
vn 0.0775 -0.9925 0.0949
vn 0.6405 0.7461 0.1821
vn 0.5120 0.8431 0.1644
vn 0.5992 -0.6770 -0.4274
vn 0.7617 -0.1931 -0.6185
vn 0.0011 0.9991 -0.0425
vt 0.000000 0.000000
vt 0.230321 0.332589
vt 0.291778 0.417352
vt 0.126783 0.180326
vt 0.120312 0.171118
vt 0.563447 0.810723
s 1
f 10/1/1 16/1/2 9/1/3
f 99/1/4 11/1/5 9/1/3
f 9/1/3 11/1/5 12/1/6
f 7/1/7 8/1/8 12/1/6
f 17/1/9 12/1/6 11/1/5
f 19/1/10 18/1/11 20/1/12
f 20/1/12 18/1/11 17/1/9
f 4/1/13 5/1/14 19/1/10
f 3/1/15 4/1/13 21/1/16
f 21/1/16 4/1/13 19/1/10
f 13/1/17 93/1/18 90/1/19
f 21/1/16 13/1/17 14/1/20
f 21/1/16 14/1/20 3/1/15
f 3/1/15 14/1/20 15/1/21
f 34/1/22 32/1/23 22/1/24
f 34/1/22 22/1/24 35/1/25
f 35/1/25 22/1/24 23/1/26
f 37/1/27 103/1/28 33/1/29
f 33/1/29 103/1/28 38/1/30
f 25/1/31 26/1/32 40/1/33
f 40/1/33 26/1/32 39/1/34
f 40/1/33 39/1/34 101/1/35
f 58/1/36 49/1/37 59/2/38
f 59/2/38 49/1/37 44/1/39
f 64/1/40 65/1/41 68/1/42
f 68/1/42 65/1/41 66/1/43
f 68/1/42 66/1/43 69/1/44
f 69/1/44 66/1/43 67/1/45
f 69/1/44 67/1/45 57/1/46
f 69/1/44 57/1/46 58/1/36
f 70/1/47 60/1/48 61/1/49
f 70/1/47 61/1/49 71/1/50
f 71/1/50 61/1/49 62/1/51
f 71/1/50 62/1/51 72/1/52
f 72/1/52 62/1/51 63/1/53
f 72/1/52 63/1/53 73/1/54
f 73/1/54 63/1/53 64/1/40
f 73/1/54 64/1/40 68/1/42
f 71/1/50 72/1/52 74/1/55
f 74/1/55 72/1/52 73/1/54
f 74/1/55 73/1/54 75/1/56
f 75/1/56 73/1/54 68/1/42
f 75/1/56 68/1/42 76/3/57
f 76/3/57 68/1/42 69/1/44
f 76/3/57 69/1/44 77/1/58
f 77/1/58 69/1/44 58/1/36
f 77/1/58 58/1/36 59/2/38
f 78/1/59 70/1/47 71/1/50
f 78/1/59 71/1/50 79/4/60
f 76/1/57 81/1/61 75/1/56
f 81/1/61 79/5/60 74/1/55
f 81/1/61 74/1/55 75/1/56
f 95/1/62 93/1/18 20/1/12
f 83/1/63 89/1/64 82/1/64
f 24/1/65 65/1/41 25/1/31
f 91/1/66 94/1/67 92/1/66
f 94/1/68 96/1/69 92/1/70
f 96/1/71 89/1/72 92/1/72
f 87/1/73 88/1/74 89/1/64
f 88/1/74 82/1/64 89/1/64
f 1/1/75 2/1/76 91/1/77
f 2/1/76 14/1/20 91/1/77
f 14/1/20 13/1/17 91/1/77
f 13/1/17 90/1/19 91/1/77
f 90/1/78 93/1/78 91/1/78
f 37/1/79 96/1/80 91/1/66
f 96/1/80 102/1/81 91/1/66
f 102/1/81 94/1/67 91/1/66
f 102/1/82 96/1/82 94/1/82
f 37/1/27 97/1/83 96/1/84
f 60/1/48 70/1/47 80/1/85
f 70/1/47 78/1/59 80/1/85
f 78/1/86 79/5/87 80/1/88
f 97/1/89 36/1/89 80/1/89
f 41/1/90 88/1/91 42/1/92
f 37/1/27 33/1/29 97/1/83
f 33/1/29 30/1/93 97/1/83
f 30/1/93 36/1/94 97/1/83
f 79/5/87 86/1/95 87/1/73
f 88/1/91 41/1/90 82/1/96
f 41/1/90 50/1/97 82/1/96
f 95/1/98 37/1/79 93/1/99
f 37/1/79 91/1/66 93/1/99
f 81/1/100 77/1/101 79/4/87
f 77/1/101 86/1/95 79/5/87
f 95/1/98 103/1/102 37/1/79
f 100/1/103 98/1/104 31/1/105
f 42/1/92 87/1/106 43/1/107
f 74/1/55 79/4/60 71/1/50
f 44/1/108 84/1/109 86/1/95
f 77/1/101 44/1/108 86/1/95
f 12/1/6 17/1/9 18/1/11
f 11/1/110 99/1/110 95/1/111
f 99/1/112 103/1/102 95/1/98
f 76/1/113 77/1/113 81/1/114
f 59/2/115 44/1/115 77/6/115
f 99/1/112 100/1/116 103/1/102
f 100/1/117 101/1/117 103/1/117
f 51/1/118 41/1/90 42/1/92
f 85/1/119 86/1/120 84/1/120
f 52/1/121 5/1/14 4/1/13
f 17/1/9 95/1/62 20/1/12
f 99/1/4 98/1/104 100/1/103
f 47/1/122 86/1/123 85/1/124
f 54/1/125 53/1/126 47/1/122
f 43/1/107 87/1/106 86/1/123
f 29/1/127 60/1/48 30/1/93
f 54/1/128 6/1/129 53/1/129
f 10/1/1 55/1/130 56/1/131
f 46/1/132 43/1/107 86/1/123
f 30/1/93 33/1/29 29/1/127
f 5/1/14 53/1/126 6/1/133
f 34/1/22 66/1/43 24/1/65
f 14/1/20 2/1/76 15/1/21
f 56/1/131 16/1/2 10/1/1
f 24/1/65 66/1/43 65/1/41
f 35/1/25 23/1/26 57/1/46
f 101/1/35 100/1/103 31/1/105
f 65/1/134 64/1/135 25/1/134
f 89/1/64 80/1/88 79/5/87 87/1/73
f 50/1/97 2/1/76 1/1/75 82/1/96
f 36/1/136 30/1/137 60/1/138 80/1/138
f 5/1/14 6/1/133 18/1/11 19/1/10
f 42/1/92 88/1/91 87/1/106
f 82/1/139 91/1/139 92/1/139 83/1/140
f 15/1/21 2/1/76 50/1/97
f 40/1/33 101/1/35 31/1/105 32/1/23
f 98/1/104 22/1/24 32/1/23 31/1/105
f 48/1/141 47/1/122 85/1/124
f 1/1/142 91/1/142 82/1/142
f 52/1/121 53/1/126 5/1/14
f 54/1/125 55/1/130 8/1/8 7/1/7
f 17/1/9 11/1/5 95/1/62
f 18/1/11 6/1/133 7/1/7 12/1/6
f 39/1/34 26/1/32 27/1/143 38/1/30
f 27/1/143 28/1/144 38/1/30
f 42/1/92 45/1/145 52/1/121 51/1/118
f 85/1/124 84/1/146 48/1/141
f 51/1/118 52/1/121 4/1/13 3/1/15
f 34/1/22 24/1/65 32/1/23
f 33/1/29 38/1/30 28/1/144 29/1/127
f 96/1/84 97/1/83 80/1/147 89/1/147
f 47/1/122 48/1/141 55/1/130 54/1/125
f 20/1/12 93/1/18 19/1/10
f 61/1/49 60/1/48 29/1/127 28/1/144
f 40/1/33 32/1/23 24/1/65 25/1/31
f 46/1/132 45/1/145 43/1/107
f 45/1/145 46/1/132 53/1/126 52/1/121
f 12/1/6 8/1/8 10/1/1 9/1/3
f 62/1/51 27/1/143 26/1/32 63/1/53
f 21/1/16 19/1/10 93/1/18 13/1/17
f 57/1/46 23/1/26 16/1/2 56/1/131
f 42/1/92 43/1/107 45/1/145
f 101/1/35 39/1/34 38/1/30 103/1/28
f 84/1/146 44/1/39 49/1/37 48/1/141
f 47/1/122 46/1/132 86/1/123
f 51/1/118 3/1/15 15/1/21 50/1/97
f 63/1/53 26/1/32 25/1/31 64/1/40
f 83/1/72 92/1/72 89/1/72
f 51/1/118 50/1/97 41/1/90
f 9/1/3 22/1/24 98/1/104 99/1/4
f 9/1/3 16/1/2 23/1/26 22/1/24
f 47/1/122 53/1/126 46/1/132
f 10/1/1 8/1/8 55/1/130
f 35/1/25 57/1/46 67/1/45
f 61/1/49 28/1/144 27/1/143 62/1/51
f 7/1/7 6/1/133 54/1/125
f 56/1/131 49/1/37 58/1/36 57/1/46
f 66/1/43 34/1/22 35/1/25 67/1/45
f 48/1/141 49/1/37 56/1/131 55/1/130
