# Blender 4.3.2
# www.blender.org
o left_arm_2
v 0.008118 -0.059539 0.044402
v 0.007445 -0.059259 -0.043210
v -0.021892 -0.060432 -0.033745
v -0.022103 -0.060253 0.033275
v -0.010052 -0.074912 0.042309
v 0.030563 -0.072849 -0.041990
v 0.042063 -0.060279 0.033376
v -0.007430 -0.074709 -0.042982
v 0.042027 -0.060278 -0.033403
v -0.033052 -0.059949 0.007791
v -0.030921 -0.059967 -0.013470
v 0.052832 -0.059948 0.008350
v 0.051441 -0.059994 -0.012054
v 0.030022 -0.072980 0.042341
v -0.019835 -0.138399 -0.031395
v 0.018992 -0.138314 0.042928
v 0.002433 -0.138446 -0.043109
v 0.049007 -0.138354 -0.018197
v -0.019914 -0.138379 0.031340
v -0.003665 -0.138335 0.040860
v 0.045918 -0.138197 0.025546
v 0.033570 -0.138440 -0.036701
v -0.032895 -0.138409 -0.008532
v -0.030413 -0.138338 0.014849
v 0.053281 -0.138418 0.000003
v 0.009999 -0.142399 0.033421
vn -0.7360 -0.6298 0.2483
vn -0.9877 0.0083 0.1559
vn -0.7606 -0.6292 -0.1600
vn 0.6536 -0.6040 0.4561
vn 0.7472 -0.6644 0.0167
vn 0.9282 -0.0003 0.3720
vn 0.6566 -0.6823 -0.3215
vn 0.9734 -0.0123 -0.2286
vn -0.9650 0.0078 -0.2620
vn 0.0379 0.9988 -0.0300
vn -0.0222 0.9982 0.0549
vn 0.0007 0.9997 -0.0226
vn 0.0003 1.0000 -0.0008
vn 0.0030 0.9999 0.0106
vn -0.0161 0.9997 -0.0204
vn 0.0255 0.9996 0.0115
vn -0.0310 0.9995 -0.0001
vn -0.2575 -0.5695 0.7806
vn -0.4887 0.0759 0.8691
vn -0.5598 -0.6174 0.5526
vn 0.0002 -0.9825 0.1865
vn 0.3940 -0.6472 -0.6526
vn 0.6679 -0.0409 -0.7431
vn 0.8265 -0.0156 0.5627
vn 0.6115 -0.0544 0.7894
vn 0.2683 0.3835 -0.8837
vn 0.2637 0.3685 -0.8914
vn 0.2966 0.3469 0.8898
vn 0.2262 -0.6149 0.7554
vn -0.1063 -0.6452 -0.7566
vn 0.3746 -0.0291 -0.9267
vn -0.0789 0.0866 -0.9931
vn -0.0012 0.0092 1.0000
vn 0.0061 -0.1419 0.9899
vn -0.3074 0.0556 -0.9499
vn -0.5324 -0.6503 -0.5419
vn -0.7167 0.0549 -0.6952
vn -0.7354 0.0664 0.6744
vn -0.3378 0.2768 0.8996
vn 0.9976 0.0129 -0.0680
vn 0.9976 0.0133 -0.0681
vn 0.9150 0.0032 -0.4035
vt 0.000000 0.000000
vt 0.000000 0.095873
vt 0.000000 0.526155
s 1
f 24/1/1 10/2/2 23/1/3
f 21/1/4 25/1/5 12/1/6
f 25/1/5 18/1/7 13/1/8
f 11/1/9 23/1/3 10/1/2
s 0
f 13/1/10 9/1/10 2/1/10
f 13/1/11 2/1/11 3/1/11
f 13/1/12 3/1/12 11/1/12
f 13/1/13 11/1/13 10/1/13
f 13/3/14 10/2/14 4/1/14
f 13/3/15 4/1/15 1/1/15
f 13/3/16 1/1/16 7/1/16
f 13/3/17 7/1/17 12/1/17
s 1
f 20/1/18 5/1/19 19/1/20
f 26/1/21 18/1/7 25/1/5
f 21/1/4 26/1/21 25/1/5
f 18/1/7 22/1/22 9/1/23
f 21/1/4 7/1/24 14/1/25
s 0
f 6/1/26 2/1/27 9/1/27
f 14/1/28 7/1/28 1/1/28
s 1
f 22/1/22 18/1/7 26/1/21
f 21/1/4 16/1/29 26/1/21
f 22/1/22 17/1/30 6/1/31
f 17/1/30 2/1/32 6/1/31
s 0
f 5/1/33 16/1/33 14/1/33
f 5/1/34 14/1/34 1/1/34
s 1
f 8/1/35 2/1/32 17/1/30
f 20/1/18 16/1/29 5/1/19
f 22/1/22 26/1/21 17/1/30
f 8/1/35 17/1/30 15/1/36
f 7/1/24 21/1/4 12/1/6
f 15/1/36 17/1/30 26/1/21
f 15/1/36 3/1/37 8/1/35
f 24/1/1 4/1/38 10/2/2
f 15/1/36 23/1/3 3/1/37
f 24/1/1 19/1/20 4/1/38
f 20/1/18 19/1/20 26/1/21
f 5/1/19 1/1/39 4/1/38
f 23/1/3 15/1/36 26/1/21
f 24/1/1 26/1/21 19/1/20
f 24/1/1 23/1/3 26/1/21
s 0
f 12/1/40 25/1/41 13/1/40
s 1
f 23/1/3 11/1/9 3/1/37
f 19/1/20 5/1/19 4/1/38
f 14/1/25 16/1/29 21/1/4
s 0
f 9/1/42 13/1/42 18/1/42
s 1
f 16/1/29 20/1/18 26/1/21
f 8/1/35 3/1/37 2/1/32
f 22/1/22 6/1/31 9/1/23
