# Blender 4.3.2
# www.blender.org
mtllib compact_right_arm_7.mtl
o right_arm_7
v 0.017916 0.025676 0.029980
v 0.015083 0.029568 0.029968
v 0.017916 -0.018656 0.030459
v 0.017904 -0.031968 0.072287
v 0.017914 -0.027233 0.048145
v 0.017233 -0.025331 0.040559
v 0.017019 -0.030625 0.055180
v 0.016938 -0.033563 0.072467
v 0.016400 -0.033143 0.084159
v 0.017833 -0.031680 0.083788
v 0.016854 -0.031080 0.085817
v 0.016941 0.013658 0.094390
v 0.019669 0.039325 0.090471
v 0.021101 0.039980 0.087910
v 0.019656 0.044987 0.088023
v 0.020844 0.043609 0.087009
v 0.020826 0.044713 0.075862
v 0.019255 0.046653 0.073713
v 0.002960 -0.027989 0.030084
v -0.010086 -0.028108 0.030075
v -0.013444 -0.025815 0.030334
v -0.021323 -0.000549 0.030063
v -0.020372 0.008404 0.030055
v -0.020488 -0.010866 0.030467
v -0.021894 0.000045 0.030831
v -0.020622 0.010255 0.030575
v -0.014421 0.025239 0.030513
v -0.012561 0.026883 0.030105
v -0.010800 0.028017 0.030154
v 0.000216 -0.034975 0.043501
v 0.000424 -0.037811 0.054173
v 0.002332 -0.030008 0.031956
v 0.001661 -0.031612 0.034632
v -0.010563 0.039843 0.091696
v -0.008554 0.040307 0.093908
v -0.006818 0.042328 0.093006
v -0.006665 0.036674 0.096982
v -0.009114 0.033925 0.097049
v -0.010634 0.033361 0.095209
v -0.010546 0.025417 0.097469
v -0.005339 0.022303 0.100478
v -0.008381 0.014125 0.099549
v -0.008344 0.025643 0.099561
v -0.006548 0.030455 0.099291
v -0.010386 0.018946 0.098011
v -0.004349 0.013411 0.100042
v -0.009602 0.045178 0.084676
v -0.007254 0.047245 0.078788
v -0.007084 0.046049 0.086857
v -0.009648 0.042379 0.056529
v -0.010801 0.043818 0.081316
v -0.009565 0.043028 0.089915
v -0.007250 0.041317 0.050272
v -0.006919 0.046949 0.070310
v -0.009598 0.045975 0.077786
v -0.007251 0.045194 0.061580
v -0.009819 0.044833 0.066279
v -0.010472 -0.025273 0.091063
v -0.010785 -0.030487 0.087116
v -0.008898 -0.029548 0.091098
v -0.007568 -0.025377 0.093517
v -0.005765 -0.031104 0.091178
v -0.008341 0.036438 0.041324
v -0.008003 -0.034853 0.086893
v -0.009970 -0.033166 0.086671
v -0.010326 -0.035916 0.081350
v -0.007309 -0.039870 0.065886
v -0.009856 -0.038140 0.064597
v -0.007568 -0.039732 0.074259
v -0.010202 -0.037718 0.073564
v -0.007065 -0.038568 0.080357
v -0.005496 -0.035919 0.086201
v -0.006605 -0.037981 0.053991
v -0.008473 -0.036969 0.052037
v -0.007900 -0.034294 0.041486
v -0.009737 -0.030991 0.033470
v -0.011960 -0.029547 0.033104
v 0.001659 -0.039579 0.074314
v 0.009302 0.042065 0.093368
v 0.018837 0.045472 0.087832
v 0.010409 0.047506 0.075239
v 0.008593 0.044298 0.057822
v 0.008636 0.039430 0.046239
v -0.004405 -0.025117 0.093717
v -0.000972 -0.040041 0.066916
v 0.001533 -0.039570 0.066437
v 0.016900 -0.020830 0.029997
v -0.016933 -0.020750 0.030000
v -0.016933 0.020750 0.030000
vn 0.9724 -0.2090 -0.1039
vn 0.9171 -0.3770 -0.1294
vn 0.7248 -0.6356 -0.2657
vn 0.6915 -0.7035 -0.1641
vn 0.9522 -0.3047 -0.0216
vn 0.6403 -0.7673 -0.0344
vn 0.8969 -0.3739 0.2363
vn 0.4833 -0.7752 0.4068
vn 0.5748 -0.3679 0.7309
vn 0.7333 -0.1038 0.6719
vn 0.6660 0.6073 0.4332
vn 0.6729 0.1748 0.7188
vn 0.9122 0.3344 0.2370
vn 0.9612 0.0569 0.2698
vn 0.9211 0.3877 -0.0362
vn -0.4878 -0.0203 -0.8727
vn -0.8949 0.1922 -0.4027
vn -0.4258 0.0524 -0.9033
vn -0.1975 0.7233 0.6617
vn -0.5101 0.5180 0.6866
vn -0.1743 0.4399 0.8810
vn -0.5980 0.2915 0.7466
vn -0.8853 0.3120 0.3447
vn -0.9097 0.1589 0.3837
vn -0.4614 -0.0962 0.8820
vn -0.0379 0.0378 0.9986
vn -0.4612 0.1022 0.8814
vn -0.1158 0.2358 0.9649
vn 0.0672 -0.1013 0.9926
vn -0.8069 -0.0116 0.5905
vn -0.8795 0.0626 0.4717
vn -0.6842 0.6223 0.3804
vn -0.2366 0.9145 0.3283
vn -0.2514 0.9369 -0.2431
vn -0.5376 0.8298 -0.1497
vn -0.2465 0.9626 -0.1123
vn -0.7071 0.6838 0.1802
vn -0.7026 0.7116 -0.0029
vn -0.9239 0.3751 0.0763
vn -0.5619 -0.4283 0.7077
vn -0.3388 -0.2532 0.9061
vn -0.8032 -0.1723 0.5702
vn -0.0406 -0.5730 0.8185
vn -0.3885 -0.7314 0.5605
vn -0.0043 -0.8357 0.5492
vn -0.7381 -0.6724 -0.0549
vn -0.2835 -0.9565 -0.0687
vn -0.3240 -0.9394 0.1123
vn -0.8133 -0.5782 0.0656
vn -0.7640 -0.4903 0.4195
vn -0.1405 -0.9686 -0.2052
vn -0.2968 -0.9274 -0.2277
vn -0.8087 -0.5445 0.2226
vn -0.2947 -0.9082 0.2974
vn -0.4517 -0.7484 -0.4857
vn -0.2927 -0.3255 -0.8991
vn -0.2671 -0.6966 -0.6658
vn -0.2314 -0.9258 -0.2990
vn 0.1978 -0.9361 -0.2908
vn 0.2239 -0.8905 -0.3961
vn -0.2513 -0.8550 -0.4536
vn 0.2520 0.9511 0.1786
vn 0.0428 0.9989 -0.0202
vn -0.2487 0.9668 0.0590
vn 0.1509 0.9373 -0.3143
vn -0.2746 0.8796 -0.3883
vn 0.0362 0.8893 -0.4560
vn -0.3497 0.8150 -0.4620
vn 0.0731 -0.9956 -0.0591
vn 0.1576 0.5378 0.8282
vn 0.1175 -0.2747 0.9543
vn 0.2040 0.6369 0.7435
vn 0.2039 0.6372 0.7432
vn 0.2035 0.6372 0.7434
vn 0.2825 -0.9546 -0.0943
vn 0.2165 -0.9531 -0.2116
vn -0.8312 -0.1747 -0.5278
vn -0.9545 0.0139 -0.2978
vn -0.9258 -0.2243 0.3042
vn 0.5254 0.8424 -0.1198
vn 0.9980 -0.0007 -0.0630
vn 0.8665 0.4393 -0.2372
vn -0.9841 -0.0257 0.1758
vn 0.4313 -0.0098 -0.9022
vn 0.0007 -0.0135 -0.9999
vn 0.0011 -0.0135 -0.9999
vn -0.0001 -0.0104 -0.9999
vn -0.0006 -0.0098 -1.0000
vn 0.0034 -0.0004 -1.0000
vn 0.1511 -0.9157 0.3723
vn 0.1515 -0.9158 0.3719
vn 0.2064 -0.9773 0.0487
vn 0.3734 0.8515 -0.3682
vn 0.3734 0.8514 -0.3685
vn 0.7413 -0.6027 -0.2953
vn -0.6701 0.7044 -0.2339
vn -0.0218 0.7604 -0.6491
vn 0.2207 -0.7963 -0.5632
vn 0.2220 -0.6991 -0.6797
vn -0.2021 0.5281 -0.8248
vn -0.8802 0.4563 -0.1303
vn -0.9259 0.3211 -0.1991
vn -0.8515 0.4961 -0.1701
vn -0.8514 0.4960 -0.1706
vn -0.5707 0.4807 -0.6658
vn -0.3920 0.4505 -0.8021
vn -0.0924 0.0829 -0.9923
vn -0.9296 -0.3351 -0.1536
vn -0.2195 -0.2140 -0.9519
vn -0.7669 -0.5501 -0.3304
vn -0.8548 -0.5123 -0.0827
vn -0.0001 -0.0000 -1.0000
vn -0.7051 -0.6947 -0.1424
vn 0.7734 0.5620 -0.2933
vn 0.3023 0.1124 0.9466
vn -0.9410 0.3362 -0.0387
vn -0.0008 -0.0006 -1.0000
vt 0.000000 0.000000
vt 0.487175 0.508897
vt 0.435068 0.454876
vt 0.485150 0.506795
s 1
f 3/1/1 5/1/2 6/1/3
f 6/1/3 5/1/2 7/1/4
f 7/1/4 5/1/2 4/1/5
f 7/1/4 4/1/5 8/1/6
f 8/1/6 10/1/7 9/1/8
f 11/1/9 9/1/8 10/1/7
f 12/1/10 11/1/9 10/1/7
f 15/1/11 13/1/12 16/1/13
f 16/1/13 13/1/12 14/1/14
f 17/1/15 16/1/13 14/1/14
f 22/1/16 26/1/17 23/1/18
f 36/1/19 35/1/20 37/1/21
f 37/1/21 35/1/20 38/1/22
f 38/1/22 34/1/23 39/1/24
f 42/1/25 41/1/26 43/1/27
f 38/1/22 44/1/28 37/1/21
f 41/1/26 42/1/25 46/1/29
f 45/1/30 42/1/25 43/1/27
f 45/1/30 43/1/27 40/1/31
f 40/1/31 43/1/27 38/1/22
f 39/1/24 40/1/31 38/1/22
f 52/1/32 35/1/20 36/1/19
f 35/1/20 52/1/32 34/1/23
f 36/1/19 49/1/33 52/1/32
f 56/1/34 57/1/35 54/1/36
f 47/1/37 55/1/38 51/1/39
f 60/1/40 61/1/41 58/1/42
f 62/1/43 61/1/41 60/1/40
f 64/1/44 72/1/45 62/1/43
f 68/1/46 67/1/47 69/1/48
f 68/1/46 69/1/48 70/1/49
f 64/1/44 60/1/40 65/1/50
f 73/1/51 67/1/47 74/1/52
f 66/1/53 71/1/54 64/1/44
f 64/1/44 71/1/54 72/1/45
f 60/1/40 64/1/44 62/1/43
f 77/1/55 21/1/56 20/1/57
f 75/1/58 73/1/51 74/1/52
f 30/1/59 73/1/51 75/1/58
f 30/1/59 75/1/58 33/1/60
f 33/1/60 75/1/58 76/1/61
f 49/1/33 80/1/62 81/1/63
f 49/1/33 81/1/63 48/1/64
f 48/1/64 81/1/63 54/1/36
f 54/1/36 81/1/63 82/1/65
f 54/1/36 82/1/65 56/1/34
f 56/1/34 82/1/65 53/1/66
f 53/1/66 82/1/65 83/1/67
f 83/1/67 63/1/68 53/1/66
f 67/1/47 85/1/69 69/1/48
f 79/1/70 37/1/21 44/1/28
f 13/1/12 15/1/11 79/1/70
f 36/1/19 37/1/21 79/1/70
f 42/1/25 61/1/41 46/1/29
f 61/1/41 84/1/71 46/1/29
f 17/1/15 15/1/11 16/1/13
f 61/1/41 42/1/25 58/1/42
f 10/1/7 14/1/14 12/1/10
f 14/1/14 13/1/12 12/1/10
f 73/1/51 85/1/69 67/1/47
f 61/1/41 62/1/43 84/1/71
s 0
f 80/1/72 79/1/73 15/1/74
s 1
f 7/1/4 86/1/75 31/1/76
f 74/1/52 67/1/47 68/1/46
f 24/1/77 25/1/78 22/1/16
f 10/1/7 4/1/5 14/1/14
f 4/1/5 5/1/2 14/1/14
f 5/1/2 3/1/1 14/1/14
f 24/1/77 59/1/79 25/1/78
f 4/1/5 10/1/7 8/1/6
f 38/1/22 35/1/20 34/1/23
f 81/1/63 80/1/62 18/1/80
s 0
f 3/1/81 1/1/81 17/1/81
s 1
f 71/1/54 9/1/8 72/1/45
f 1/2/82 18/1/80 17/1/15
f 82/1/65 81/1/63 18/1/80
f 39/1/24 25/1/78 40/1/31
f 25/1/78 45/1/30 40/1/31
s 0
f 25/1/83 58/1/83 45/1/83
f 3/1/84 87/1/84 1/1/84
f 87/1/85 19/1/85 20/1/86
f 87/1/87 20/1/88 88/1/87
f 87/1/89 2/3/89 1/2/89
f 78/1/90 9/1/91 71/1/91
s 1
f 78/1/92 8/1/6 9/1/8
f 47/1/37 48/1/64 55/1/38
s 0
f 2/3/93 83/1/93 18/1/94
s 1
f 83/1/67 82/1/65 18/1/80
f 69/1/48 78/1/92 71/1/54
f 87/1/95 3/1/1 6/1/3
f 56/1/34 50/1/96 57/1/35
f 86/1/75 78/1/92 85/1/69
f 30/1/59 33/1/60 7/1/4
f 33/1/60 6/1/3 7/1/4
f 2/4/97 63/1/68 83/1/67
f 55/1/38 54/1/36 57/1/35
f 34/1/23 26/1/17 25/1/78
f 32/1/98 19/1/99 87/1/95
f 24/1/77 70/1/49 66/1/53
f 86/1/75 7/1/4 8/1/6
f 29/1/100 63/1/68 2/4/97
f 7/1/4 31/1/76 30/1/59
f 89/1/101 57/1/35 50/1/96
f 89/1/102 23/1/18 26/1/17
f 12/1/10 84/1/71 11/1/9
f 8/1/6 78/1/92 86/1/75
f 52/1/32 49/1/33 47/1/37
f 31/1/76 86/1/75 85/1/69
s 0
f 27/1/103 89/1/104 50/1/104
s 1
f 27/1/105 28/1/106 89/1/107
f 22/1/16 25/1/78 26/1/17
f 69/1/48 66/1/53 70/1/49
f 25/1/78 39/1/24 34/1/23
f 29/1/100 28/1/106 63/1/68
f 50/1/96 63/1/68 27/1/105
f 63/1/68 28/1/106 27/1/105
f 22/1/16 88/1/108 24/1/77
f 20/1/57 21/1/56 88/1/109
s 0
f 21/1/110 77/1/110 88/1/110
f 77/1/111 68/1/111 88/1/111
f 89/1/112 87/1/112 88/1/112
s 1
f 20/1/57 32/1/98 76/1/61
s 0
f 77/1/113 74/1/113 68/1/113
s 1
f 74/1/52 77/1/55 76/1/61
f 26/1/17 34/1/23 51/1/39
f 43/1/27 41/1/26 44/1/28
f 17/1/15 18/1/80 15/1/11
f 85/1/69 78/1/92 69/1/48
f 73/1/51 31/1/76 85/1/69
s 0
f 1/2/114 2/1/114 18/1/114
s 1
f 75/1/58 74/1/52 76/1/61
f 43/1/27 44/1/28 38/1/22
f 20/1/57 19/1/99 32/1/98
f 66/1/53 59/1/79 24/1/77
s 0
f 12/1/115 13/1/115 41/1/115
s 1
f 79/1/70 41/1/26 13/1/12
f 47/1/37 49/1/33 48/1/64
f 62/1/43 9/1/8 11/1/9
f 59/1/79 66/1/53 65/1/50
f 76/1/61 32/1/98 33/1/60
f 56/1/34 53/1/66 50/1/96
f 66/1/53 64/1/44 65/1/50
f 58/1/42 42/1/25 45/1/30
f 3/1/1 17/1/15 14/1/14
f 51/1/39 55/1/38 57/1/35
f 55/1/38 48/1/64 54/1/36
f 80/1/62 15/1/11 18/1/80
f 63/1/68 50/1/96 53/1/66
f 77/1/55 20/1/57 76/1/61
f 11/1/9 84/1/71 62/1/43
f 12/1/10 41/1/26 46/1/29
f 9/1/8 62/1/43 72/1/45
f 69/1/48 71/1/54 66/1/53
f 25/1/78 59/1/79 58/1/42
f 73/1/51 30/1/59 31/1/76
f 80/1/62 36/1/19 79/1/70
f 59/1/79 60/1/40 58/1/42
f 49/1/33 36/1/19 80/1/62
f 52/1/32 51/1/39 34/1/23
f 65/1/50 60/1/40 59/1/79
f 47/1/37 51/1/39 52/1/32
f 23/1/18 89/1/102 22/1/16
f 89/1/102 88/1/108 22/1/16
f 88/1/108 70/1/49 24/1/77
f 51/1/39 89/1/102 26/1/17
s 0
f 57/1/116 89/1/116 51/1/116
s 1
f 32/1/98 6/1/3 33/1/60
f 89/1/107 28/1/106 2/3/97
f 28/1/106 29/1/100 2/3/97
f 68/1/46 70/1/49 88/1/108
f 12/1/10 46/1/29 84/1/71
s 0
f 89/1/117 2/3/117 87/1/117
s 1
f 79/1/70 44/1/28 41/1/26
f 32/1/98 87/1/95 6/1/3
