# Blender 4.3.2
# www.blender.org
mtllib compact_waist_5.mtl
o waist_5
v -0.136169 0.006314 -0.105949
v -0.098288 0.268930 -0.105908
v 0.136707 0.007573 -0.105955
v 0.098209 0.268932 -0.105887
v -0.118117 0.000950 0.066044
v 0.138759 0.013336 0.065027
v 0.098239 0.268925 0.065970
v 0.117309 0.000633 0.066058
v -0.138896 0.014861 0.065117
v -0.154373 0.017371 -0.084546
v 0.148000 0.012500 -0.088000
v 0.111471 0.269954 0.047247
v 0.111753 0.270018 -0.087347
v 0.146843 0.076094 -0.089601
v 0.147162 0.074235 0.049634
v -0.147131 0.074916 0.049344
v -0.112375 0.269738 0.045718
v -0.110154 0.270000 -0.090000
v -0.098209 0.268932 0.065887
vn -0.8328 0.0310 0.5527
vn -0.8009 -0.5159 -0.3040
vn -0.6560 -0.3854 0.6490
vn -0.0000 0.9983 -0.0585
vn 0.0007 0.9978 -0.0666
vn -0.0001 1.0000 0.0019
vn 0.0158 0.9995 0.0288
vn -0.0000 1.0000 0.0071
vn -0.0770 0.9970 0.0003
vn 0.8030 0.1535 0.5759
vn 0.7941 0.1505 -0.5889
vn 0.0430 0.0064 0.9991
vn -0.0436 0.0040 0.9990
vn -0.2146 -0.7240 0.6556
vn 0.1933 -0.7314 0.6540
vn 0.6617 -0.4086 0.6287
vn 0.8629 0.0251 0.5048
vn 0.8395 0.0664 -0.5393
vn 0.4140 -0.6054 -0.6797
vn 0.0447 0.0068 -0.9990
vn -0.4039 -0.6135 -0.6786
vn -0.0458 0.0068 -0.9989
vn -0.9843 0.1752 -0.0221
vn -0.8056 0.1544 0.5720
vn -0.7912 0.1256 -0.5986
vn -0.9850 0.1721 -0.0158
vn 0.8548 -0.4837 -0.1881
vn 0.9838 0.1794 0.0001
vn 0.9840 0.1780 0.0021
vt 0.000000 0.000000
s 1
f 16/1/1 10/1/2 9/1/3
s 0
f 13/1/4 4/1/4 2/1/4
f 13/1/5 2/1/5 18/1/5
f 13/1/6 18/1/6 17/1/6
f 13/1/7 17/1/7 19/1/7
f 13/1/8 19/1/8 7/1/8
f 13/1/9 7/1/9 12/1/9
f 7/1/10 15/1/10 12/1/10
f 14/1/11 4/1/11 13/1/11
s 1
f 7/1/12 19/1/13 9/1/3
f 7/1/12 9/1/3 5/1/14
f 7/1/12 5/1/14 8/1/15
f 7/1/12 8/1/15 6/1/16
f 6/1/16 15/1/17 7/1/12
f 14/1/18 3/1/19 4/1/20
f 3/1/19 1/1/21 2/1/22
f 3/1/19 2/1/22 4/1/20
s 0
f 16/1/23 17/1/23 10/1/23
f 16/1/24 19/1/24 17/1/24
s 1
f 16/1/1 9/1/3 19/1/13
s 0
f 2/1/25 10/1/25 18/1/25
f 10/1/26 17/1/26 18/1/26
s 1
f 1/1/21 10/1/2 2/1/22
f 1/1/21 8/1/15 5/1/14
f 14/1/18 11/1/27 3/1/19
s 0
f 14/1/28 12/1/28 15/1/28
s 1
f 11/1/27 8/1/15 3/1/19
f 11/1/27 15/1/17 6/1/16
f 10/1/2 5/1/14 9/1/3
f 1/1/21 3/1/19 8/1/15
s 0
f 14/1/29 13/1/29 12/1/29
s 1
f 11/1/27 6/1/16 8/1/15
f 11/1/27 14/1/18 15/1/17
f 10/1/2 1/1/21 5/1/14
