# Blender 4.4.3
# www.blender.org
mtllib compact_right_finger_4_2.mtl
o right_finger_4_2
v 0.001174 -0.018403 0.038364
v 0.002119 -0.018077 0.038623
v 0.005959 -0.013372 0.038032
v 0.005874 -0.013301 0.038412
v 0.005675 -0.013165 0.038720
v 0.005191 -0.014919 0.038837
v 0.003952 -0.016422 0.039064
v 0.002638 -0.017547 0.039017
v 0.005589 -0.014594 0.038397
v 0.005248 -0.015384 0.038386
v 0.004599 -0.016299 0.038527
v 0.003861 -0.017044 0.038574
v 0.002965 -0.017675 0.038606
v 0.005970 -0.006986 0.037858
v 0.005537 -0.006199 0.038341
v 0.005875 -0.005932 0.037769
v 0.005599 -0.004984 0.037751
v 0.001155 -0.001161 0.037160
v -0.000147 -0.001004 0.037915
v 0.002562 -0.001967 0.038002
v 0.002104 -0.001450 0.037473
v 0.002925 -0.001824 0.037482
v 0.003846 -0.002468 0.037561
v 0.004596 -0.003221 0.037603
v 0.005283 -0.004212 0.037603
v 0.004774 -0.018628 0.007784
v 0.005373 -0.017548 0.007725
v 0.002591 -0.020500 0.007870
v 0.003837 -0.019668 0.007814
v 0.002767 -0.020649 0.008308
v 0.003552 -0.020166 0.008303
v 0.002054 -0.020971 0.008391
v 0.001088 -0.021232 0.008629
v -0.000205 -0.021414 0.007703
v 0.005751 -0.016920 0.008060
v 0.005426 -0.017844 0.008202
v 0.004950 -0.018690 0.008237
v 0.004293 -0.019510 0.008259
v 0.005946 -0.015889 0.007960
v 0.005695 -0.015825 0.007519
v 0.005953 -0.007952 0.007397
v 0.005663 -0.007515 0.006954
v 0.005745 -0.006811 0.007365
v 0.005399 -0.005895 0.007242
v 0.003687 -0.003708 0.007153
v 0.004432 -0.004404 0.007211
v 0.004929 -0.005126 0.007059
v 0.002871 -0.003166 0.007123
v 0.000947 -0.002477 0.007307
v 0.002620 -0.003351 0.006668
v 0.001982 -0.002783 0.007069
v 0.003833 -0.004163 0.006724
v 0.004874 -0.005932 0.006635
v -0.000222 -0.002451 0.006318
v 0.003361 -0.004230 0.006485
v 0.005374 -0.007605 0.006750
v 0.005448 -0.015763 0.007346
v 0.005056 -0.017536 0.007473
v 0.004305 -0.018758 0.007553
v 0.003085 -0.019900 0.007625
v -0.002404 -0.001003 0.037893
v -0.002604 -0.018971 0.031820
v -0.002076 -0.002453 0.006300
v -0.002373 -0.021415 0.007682
v -0.000443 -0.018497 0.039195
v -0.002654 -0.016961 0.039055
v 0.005345 -0.014037 0.038922
v 0.002650 -0.017307 0.039133
v 0.005075 -0.004531 0.038199
v 0.003983 -0.003018 0.038099
vn 0.9016 -0.0930 0.4224
vn 0.6516 -0.0078 0.7585
vn 0.6180 -0.2668 0.7395
vn 0.7648 -0.1715 0.6211
vn 0.5648 -0.5103 0.6485
vn 0.2811 -0.4313 0.8573
vn 0.3291 -0.6003 0.7289
vn 0.9032 -0.2960 0.3107
vn 0.8297 -0.4659 0.3074
vn 0.7387 -0.5739 0.3535
vn 0.6093 -0.7051 0.3627
vn 0.4900 -0.8057 0.3328
vn 0.3305 -0.8722 0.3605
vn 0.1449 -0.9578 0.2484
vn 0.2032 -0.9615 0.1851
vn 0.9841 -0.1347 0.1158
vn 0.9513 0.0547 0.3034
vn 0.5958 0.7594 0.2613
vn 0.5774 0.6157 0.5363
vn 0.7365 0.6195 0.2717
vn 0.7397 0.4047 0.5377
vn 0.8453 0.4818 0.2309
vn 0.9356 0.2025 0.2893
vn 0.7965 0.1542 0.5847
vn 0.6529 -0.4761 -0.5891
vn 0.5490 -0.2805 -0.7874
vn 0.7452 -0.3307 -0.5790
vn 0.2725 -0.2782 -0.9211
vn 0.8158 -0.5556 -0.1606
vn 0.7091 -0.6811 -0.1825
vn 0.8927 -0.4227 -0.1563
vn 0.9379 -0.2515 -0.2387
vn 0.3406 -0.9254 -0.1661
vn 0.3284 -0.6981 -0.6362
vn 0.4576 -0.8674 -0.1955
vn 0.4975 -0.5959 -0.6304
vn 0.9578 0.0521 -0.2825
vn 0.9586 -0.1177 -0.2594
vn 0.7312 -0.1269 -0.6702
vn 0.7431 0.0856 -0.6637
vn 0.9290 0.2539 -0.2692
vn 0.8655 0.3745 -0.3327
vn 0.3416 0.5981 -0.7250
vn 0.3391 0.8900 -0.3048
vn 0.4778 0.8284 -0.2925
vn 0.5109 0.5024 -0.6975
vn 0.5970 0.7473 -0.2917
vn 0.7323 0.6311 -0.2557
vn 0.7672 0.4826 -0.4225
vn 0.6317 0.2583 -0.7310
vn 0.0093 -0.0735 -0.9972
vn 0.0088 -0.0712 -0.9974
vn 0.0132 -0.0706 -0.9974
vn 0.0054 -0.0763 -0.9971
vn 0.0061 -0.0721 -0.9974
vn 0.0095 -0.0721 -0.9974
vn 0.3304 -0.5442 -0.7711
vn 0.1710 -0.9782 -0.1178
vn 0.2001 -0.9797 0.0108
vn -0.5097 -0.8361 0.2026
vn -0.1716 -0.9786 0.1137
vn -0.1209 -0.9874 0.1020
vn -0.9998 0.0152 -0.0114
vn -0.9998 0.0149 -0.0111
vn -0.9998 0.0151 -0.0088
vn 0.0063 -0.0810 -0.9967
vn 0.0053 -0.0828 -0.9966
vn 0.3175 -0.0220 -0.9480
vn 0.5628 -0.1175 -0.8182
vn 0.0042 -0.0720 -0.9974
vn -0.0080 0.0732 0.9973
vn -0.0108 0.0729 0.9973
vn -0.0089 0.0715 0.9974
vn -0.0111 0.0741 0.9972
vn -0.5662 -0.7952 0.2170
vn 0.3499 0.4001 -0.8471
vn 0.0881 0.9828 -0.1622
vn 0.1910 0.9750 -0.1138
vn 0.5704 -0.8001 -0.1857
vn 0.0216 0.0466 0.9987
vn -0.0120 0.0742 0.9972
vn 0.0412 0.0957 0.9946
vn 0.0411 0.0962 0.9945
vn -0.0098 0.0711 0.9974
vn 0.0013 0.0937 0.9956
vn 0.3793 0.7625 0.5242
vn 0.3283 0.9109 0.2499
vn 0.0728 0.9969 0.0291
vn 0.8968 0.3228 0.3026
vn 0.1977 0.9793 0.0432
vn -0.0111 0.0730 0.9973
vn 0.4782 0.8436 0.2442
vn 0.0002 0.9990 -0.0458
vn -0.0004 -0.9957 0.0922
vn 0.0005 -0.9955 0.0951
vn -0.0008 -0.9957 0.0923
vt 0.000000 0.000000
vt 0.420913 0.374690
vt 0.588108 0.851984
s 1
f 4/1/1 5/1/2 6/1/3
f 6/1/3 67/1/4 7/1/5
f 68/1/6 8/1/7 7/1/5
f 4/1/1 6/1/3 9/1/8
f 9/1/8 6/1/3 10/1/9
f 11/1/10 7/1/5 12/1/11
f 12/1/11 7/1/5 8/1/7
f 12/1/11 8/1/7 13/1/12
f 13/1/12 8/1/7 2/1/13
f 65/1/14 1/1/15 2/1/13
f 3/1/16 14/1/17 4/1/1
f 23/1/18 70/1/19 24/1/20
f 24/1/20 70/1/19 69/1/21
f 24/1/20 69/1/21 25/1/22
f 16/1/23 15/2/24 14/1/17
f 26/1/25 58/1/26 27/1/27
f 26/1/25 59/1/28 58/1/26
f 37/1/29 38/1/30 26/1/25
f 36/1/31 27/1/27 35/1/32
f 32/1/33 28/1/34 30/1/35
f 38/1/30 29/1/36 26/1/25
f 41/1/37 39/1/38 40/1/39
f 41/1/37 40/1/39 42/1/40
f 43/1/41 41/1/37 42/1/40
f 5/1/2 4/1/1 14/1/17 15/2/24
f 44/1/42 43/1/41 42/1/40
f 50/1/43 51/1/44 48/1/45
f 50/1/43 48/1/45 52/1/46
f 52/1/46 48/1/45 45/1/47
f 45/1/47 46/1/48 52/1/46
f 52/1/46 46/1/48 47/1/49
f 53/1/50 44/1/42 42/1/40
f 53/1/50 52/1/46 47/1/49
f 63/3/51 34/1/52 64/1/53
f 53/1/54 58/1/55 34/1/52
f 58/1/55 60/1/56 34/1/52
f 60/1/57 28/1/34 34/1/58
f 28/1/34 32/1/33 34/1/58
f 32/1/33 33/1/59 34/1/58
f 65/1/60 62/1/61 64/1/62
f 62/1/63 66/1/64 64/1/65
f 54/1/66 53/1/54 63/1/51
f 53/1/54 34/1/52 63/3/51
f 58/1/26 59/1/28 60/1/57
f 54/1/66 55/1/67 53/1/54
f 56/1/68 57/1/69 53/1/50
f 57/1/70 58/1/55 53/1/54
f 29/1/36 59/1/28 26/1/25
f 12/1/11 38/1/30 11/1/10
f 65/1/71 15/2/72 19/1/73
f 2/1/13 8/1/7 65/1/14
f 8/1/7 68/1/6 65/1/14
f 68/1/74 15/2/72 65/1/71
f 29/1/36 60/1/57 59/1/28
f 66/1/75 62/1/61 65/1/60
f 50/1/43 55/1/76 54/1/77
f 49/1/78 51/1/44 54/1/77
f 51/1/44 50/1/43 54/1/77
f 55/1/76 50/1/43 52/1/46
f 42/1/40 40/1/39 56/1/68
f 40/1/39 57/1/69 56/1/68
f 13/1/12 31/1/79 12/1/11
f 7/1/80 67/1/80 68/1/80
f 67/1/81 15/2/72 68/1/74
f 69/1/82 70/1/82 15/2/83
f 70/1/84 19/1/73 15/2/72
f 70/1/85 20/1/85 19/1/85
f 20/1/86 21/1/87 19/1/88
f 10/1/9 36/1/31 9/1/8
f 53/1/50 55/1/76 52/1/46
f 5/1/2 67/1/4 6/1/3
f 12/1/11 31/1/79 38/1/30
f 11/1/10 37/1/29 10/1/9
f 11/1/10 38/1/30 37/1/29
f 31/1/79 29/1/36 38/1/30
f 43/1/41 16/1/23 41/1/37
f 37/1/29 36/1/31 10/1/9
f 41/1/37 16/1/23 14/1/17
f 43/1/41 17/1/89 16/1/23
f 25/1/22 44/1/42 47/1/49
f 64/1/65 66/1/64 61/1/64 63/1/64
f 43/1/41 44/1/42 25/1/22 17/1/89
f 18/1/90 49/1/78 54/1/77 19/1/88
f 3/1/16 4/1/1 9/1/8
f 46/1/48 45/1/47 23/1/18 24/1/20
f 60/1/57 29/1/36 28/1/34
f 42/1/40 56/1/68 53/1/50
f 27/1/27 40/1/39 39/1/38 35/1/32
f 58/1/26 57/1/69 40/1/39 27/1/27
f 35/1/32 3/1/16 9/1/8 36/1/31
f 51/1/44 49/1/78 18/1/90 21/1/87
f 17/1/89 25/1/22 69/1/21
f 6/1/3 7/1/5 11/1/10 10/1/9
f 15/2/24 16/1/23 17/1/89 69/1/21
f 66/1/91 65/1/71 19/1/73 61/1/91
f 47/1/49 46/1/48 24/1/20 25/1/22
f 45/1/47 48/1/45 22/1/92 23/1/18
f 27/1/27 36/1/31 37/1/29 26/1/25
f 20/1/86 70/1/19 23/1/18 22/1/92
f 15/1/24 67/1/4 5/1/2
f 63/1/93 61/1/93 19/1/88 54/1/77
f 22/1/92 21/1/87 20/1/86
f 3/1/16 39/1/38 41/1/37 14/1/17
f 32/1/33 2/1/13 1/1/15 33/1/59
f 47/1/49 44/1/42 53/1/50
f 30/1/35 13/1/12 2/1/13 32/1/33
f 1/1/15 65/1/14 34/1/58 33/1/59
f 29/1/36 31/1/79 30/1/35 28/1/34
f 65/1/94 64/1/95 34/1/96
f 18/1/90 19/1/88 21/1/87
f 21/1/87 22/1/92 48/1/45 51/1/44
f 35/1/32 39/1/38 3/1/16
f 13/1/12 30/1/35 31/1/79
