# Blender 4.4.3
# www.blender.org
mtllib compact_right_finger_1_1.mtl
o right_finger_1_1
v 0.002502 0.010048 0.025920
v 0.001797 0.012047 0.025113
v 0.000918 0.008257 0.026643
v 0.001893 0.008899 0.026384
v 0.007655 0.000276 -0.006731
v 0.007946 0.000389 -0.007694
v 0.008892 0.001790 -0.007423
v 0.009372 0.002542 -0.008362
v 0.009041 0.002249 -0.009166
v 0.008526 0.002126 -0.009851
v 0.007975 0.002315 -0.010480
v 0.007776 0.000389 -0.008458
v 0.007362 0.000396 -0.009169
v 0.006683 0.000368 -0.009662
v 0.005630 0.001065 -0.010359
v 0.007030 0.001833 -0.010562
v 0.011195 0.007247 -0.010124
v 0.010698 0.006434 -0.010793
v 0.010039 0.005877 -0.011337
v 0.011301 0.007593 -0.009454
v 0.015604 0.025756 0.003898
v 0.006760 0.010347 0.020419
v 0.000768 0.006974 0.025009
v 0.007972 0.011561 0.020182
v 0.008433 0.012626 0.020520
v 0.009082 0.012979 0.019341
v 0.009283 0.013904 0.019883
v 0.008870 0.014375 0.020659
v 0.010088 0.015316 0.018667
v 0.007863 0.018850 0.020206
v 0.008919 0.018342 0.020165
v 0.009767 0.017622 0.019755
v 0.010280 0.016800 0.019037
v 0.005984 0.019484 0.019950
v 0.011450 0.029495 0.004692
v 0.009101 0.005476 -0.011854
v 0.007783 0.005535 -0.012163
v 0.004781 0.006282 -0.012465
v 0.015268 0.028478 0.005015
v 0.013898 0.018444 -0.001990
v 0.005672 -0.000001 -0.009755
v 0.000999 -0.005773 -0.006004
v 0.010321 0.029506 0.004389
v 0.003255 0.002327 -0.010867
v -0.000372 -0.006449 -0.005488
v 0.000304 0.008180 0.026674
v 0.000107 0.006941 0.025017
v 0.004444 0.018382 0.021005
v 0.000147 -0.006397 -0.005565
vn 0.8788 -0.4718 -0.0710
vn 0.8591 -0.4996 0.1107
vn 0.7488 -0.6628 -0.0075
vn 0.7901 -0.5341 -0.3008
vn 0.6798 -0.6843 -0.2639
vn 0.6343 -0.5562 -0.5370
vn 0.5541 -0.6741 -0.4885
vn 0.4441 -0.5191 -0.7303
vn 0.3771 -0.6314 -0.6777
vn 0.7285 -0.6551 0.2003
vn 0.2407 -0.4853 -0.8405
vn 0.2758 -0.6278 -0.7279
vn 0.9605 -0.2776 0.0203
vn 0.9345 -0.3546 -0.0316
vn 0.8616 -0.4360 -0.2600
vn 0.7028 -0.4843 -0.5210
vn 0.8744 -0.4211 0.2409
vn 0.9300 -0.2558 0.2639
vn 0.8717 -0.2694 0.4094
vn 0.7605 -0.5450 0.3530
vn 0.7855 -0.3641 0.5003
vn 0.7339 -0.0928 0.6728
vn 0.7497 0.1719 0.6391
vn 0.9118 -0.0827 0.4023
vn -0.0802 -0.4966 -0.8642
vn -0.0792 -0.4980 -0.8636
vn -0.0798 -0.4967 -0.8643
vn -0.0789 -0.4985 -0.8633
vn 0.1478 -0.9072 0.3938
vn 0.1230 -0.8508 0.5109
vn 0.0484 -0.8668 0.4964
vn 0.0497 -0.9148 0.4008
vn -0.2065 -0.2970 -0.9323
vn -0.2194 0.3376 -0.9154
vn -0.9415 0.3139 -0.1228
vn -0.0006 -0.3744 -0.9273
vn -0.0836 -0.4945 -0.8651
vn -0.0834 -0.4946 -0.8651
vn -0.0098 -0.9026 -0.4304
vn -0.0845 -0.4940 -0.8654
vn 0.6939 -0.6310 0.3469
vn 0.6586 -0.7417 0.1270
vn 0.6576 -0.6983 0.2828
vn 0.6319 -0.7147 0.2997
vn 0.6320 -0.7150 0.2988
vn 0.9699 -0.2432 0.0160
vn 0.9696 -0.2444 0.0132
vn 0.1069 -0.6749 0.7301
vn 0.2235 0.5370 -0.8134
vn 0.2144 0.5419 -0.8126
vn 0.2196 0.5372 -0.8144
vn 0.2413 0.6407 0.7289
vn 0.6474 0.5070 0.5691
vn 0.1326 0.6987 0.7030
vn -0.9415 0.3138 -0.1229
vn 0.5411 -0.5737 0.6148
vn 0.2637 -0.2965 0.9179
vn -0.0002 0.3744 0.9273
vn 0.2184 0.5371 -0.8148
vn 0.2188 0.5359 -0.8154
vn 0.2156 0.5373 -0.8154
vn -0.9415 0.3136 -0.1231
vn -0.2849 0.8401 0.4616
vn 0.0239 0.8319 0.5544
vn -0.1289 0.8497 0.5113
vn 0.5006 -0.0114 0.8656
vn 0.3652 0.2076 0.9075
vn 0.2026 0.4232 0.8831
vn 0.1316 0.5001 0.8559
vn 0.2179 0.5386 -0.8139
vn 0.2206 0.5350 -0.8156
vn 0.2211 0.5345 -0.8157
vn 0.0996 0.6120 0.7846
vn 0.4694 0.4524 0.7583
vn 0.6566 -0.6531 0.3772
vn 0.6970 0.3440 -0.6291
vn 0.2197 0.5381 -0.8137
vn 0.4172 -0.4767 -0.7738
vn 0.1439 -0.4173 -0.8973
vn 0.1415 -0.4684 -0.8721
vn 0.9388 -0.3198 0.1283
vn 0.9341 0.0265 0.3561
vn 0.0001 -0.3743 -0.9273
vt 0.000000 0.000000
vt 0.014348 0.019909
vt 0.600301 0.824555
s 1
f 8/1/1 7/1/2 6/1/3
f 8/1/1 6/1/3 9/1/4
f 9/1/4 6/1/3 12/1/5
f 10/1/6 13/1/7 11/1/8
f 11/1/8 13/1/7 14/1/9
f 7/1/2 5/1/10 6/1/3
f 16/1/11 14/1/9 41/1/12
f 20/1/13 8/1/1 17/1/14
f 17/1/14 8/1/1 18/1/15
f 18/1/15 8/1/1 9/1/4
f 18/1/15 9/1/4 19/1/16
f 19/1/16 9/1/4 10/1/6
f 26/1/17 29/1/18 27/1/19
f 24/1/20 26/1/17 25/1/21
f 25/1/21 26/1/17 27/1/19
f 25/1/21 27/1/19 28/1/22
f 32/1/23 28/1/22 33/1/24
f 27/1/19 29/1/18 33/1/24
f 27/1/19 33/1/24 28/1/22
f 7/1/2 26/1/17 24/1/20
f 7/1/2 24/1/20 5/1/10
f 44/1/25 42/1/26 45/1/27
f 42/1/26 49/1/28 45/1/27
f 49/1/29 23/1/29 45/1/29
f 23/1/30 47/1/31 45/1/32
f 38/1/33 44/1/34 45/1/35
f 38/1/33 15/1/36 44/1/34
f 15/1/37 42/1/38 44/1/39
f 15/1/37 41/1/40 42/1/38
f 5/1/10 22/1/41 42/1/42
f 22/1/43 49/1/43 42/1/43
f 22/1/44 23/1/45 49/1/44
f 40/1/46 21/1/47 20/1/13 17/1/14
f 46/1/48 47/1/31 23/1/30
f 43/1/49 35/2/50 38/1/51
f 30/1/52 39/3/53 34/1/54
f 2/1/35 43/1/55 47/1/35
f 14/1/9 42/1/42 41/1/12
f 13/1/7 12/1/5 42/1/42
f 12/1/5 6/1/3 42/1/42
f 6/1/3 5/1/10 42/1/42
f 14/1/9 13/1/7 42/1/42
f 4/1/56 3/1/57 23/1/30
f 4/1/56 46/1/48 3/1/57
f 4/1/58 2/1/58 46/1/58
f 17/1/59 38/1/51 35/2/50
f 36/1/60 37/1/61 38/1/51
f 17/1/59 36/1/60 38/1/51
f 2/1/35 48/1/62 43/1/55
f 48/1/63 34/1/63 43/1/63
f 34/1/54 35/2/64 43/1/65
f 25/1/21 4/1/66 24/1/20
f 4/1/66 22/1/41 24/1/20
f 1/1/67 2/1/68 4/1/66
f 25/1/21 28/1/22 4/1/66
f 28/1/22 1/1/67 4/1/66
f 2/1/35 47/1/35 46/1/35
f 30/1/69 48/1/69 2/1/69
f 39/3/70 17/1/59 35/2/50
f 18/1/71 36/1/60 17/1/59
f 18/1/71 19/1/72 36/1/60
f 39/3/53 35/2/64 34/1/54
f 48/1/73 30/1/52 34/1/54
f 28/1/22 32/1/23 1/1/67
f 32/1/23 31/1/74 1/1/67
f 31/1/74 39/1/53 30/1/52
f 31/1/74 32/1/23 39/1/53
f 23/1/75 22/1/75 4/1/75
f 21/1/76 40/1/76 39/1/76
f 40/1/77 17/1/59 39/3/70
f 8/1/1 29/1/18 26/1/17 7/1/2
f 24/1/20 22/1/41 5/1/10
f 3/1/57 46/1/48 23/1/30
f 45/1/55 47/1/35 43/1/55 38/1/55
f 36/1/78 19/1/16 10/1/6 11/1/8
f 16/1/11 11/1/8 14/1/9
f 37/1/79 36/1/78 16/1/11 15/1/80
f 29/1/81 8/1/81 20/1/81 21/1/81
f 21/1/82 33/1/24 29/1/18
f 15/1/83 38/1/83 37/1/83
f 13/1/7 10/1/6 9/1/4 12/1/5
f 39/1/53 32/1/23 33/1/24 21/1/82
f 11/1/8 16/1/11 36/1/78
f 2/1/68 1/1/67 31/1/74 30/1/52
f 16/1/11 41/1/12 15/1/80
