# Blender 4.3.2
# www.blender.org
mtllib compact_BASE.mtl
o BASE
v -0.299350 0.006647 -0.069974
v -0.299961 -0.058883 -0.043617
v -0.300051 0.055375 0.036942
v -0.300264 -0.024695 0.063281
v 0.300067 0.021878 0.063430
v 0.300070 -0.064885 0.038920
v 0.300294 0.065773 -0.020512
v 0.299910 -0.037608 -0.054959
v 0.299462 0.004410 -0.069781
v -0.300048 0.062871 -0.029366
v -0.287904 0.107251 -0.070064
v 0.287876 0.107348 -0.070055
v -0.287182 0.106115 0.117606
v 0.203093 0.251516 -0.070000
v 0.140138 0.307886 -0.070001
v 0.056579 0.342592 -0.070000
v -0.025487 0.346925 -0.070000
v -0.099987 0.328598 -0.070000
v -0.159008 0.293607 -0.069999
v -0.204829 0.249053 -0.070000
v 0.282872 -0.168521 -0.070219
v 0.209957 -0.289499 -0.070001
v 0.242634 -0.264289 -0.070000
v -0.106087 -0.316160 -0.069998
v 0.058066 -0.321476 -0.070000
v -0.233827 -0.275933 -0.070000
v -0.282631 -0.170667 -0.070295
v -0.287019 -0.101841 0.122419
v -0.257012 0.096692 0.152010
v -0.279906 0.100930 0.134767
v -0.210205 0.240507 0.112367
v 0.210925 0.239324 0.112804
v 0.171209 0.283145 0.112682
v 0.130135 0.311876 0.113738
v 0.085661 0.332774 0.113833
v 0.019651 0.346959 0.113334
v -0.049417 0.342619 0.113128
v -0.111885 0.322464 0.112595
v -0.169585 0.284320 0.113831
v 0.287805 0.105423 0.115063
v 0.280833 0.102786 0.133254
v 0.257003 0.096500 0.152028
v 0.285859 -0.117761 0.124255
v 0.285061 -0.147781 0.115057
v 0.268191 -0.207093 0.113362
v 0.244284 -0.259747 0.114281
v 0.222778 -0.281681 0.114139
v -0.133693 -0.307737 0.120592
v -0.030654 -0.322380 0.113317
v 0.077438 -0.318103 0.113125
v -0.244330 -0.260128 0.113364
v -0.222698 -0.281730 0.113951
v -0.268263 -0.206231 0.114455
v -0.285115 -0.148428 0.114048
v -0.252803 -0.116386 0.154046
v -0.276733 -0.140588 0.136003
v -0.162862 0.237425 0.153718
v -0.206727 0.230293 0.134084
v -0.183774 0.234895 0.148235
v 0.177042 0.230111 0.152698
v 0.124334 0.280664 0.151102
v 0.165604 0.276334 0.134356
v 0.206807 0.230160 0.134107
v -0.165789 0.275242 0.135276
v -0.081797 0.292423 0.153927
v -0.124841 0.297621 0.142752
v -0.026789 0.315739 0.151758
v -0.081323 0.324396 0.135277
v 0.057968 0.306714 0.152987
v 0.079698 0.324947 0.135277
v -0.023917 0.336129 0.135843
v 0.012774 0.334045 0.140426
v 0.124470 0.304280 0.135224
v 0.269144 -0.116561 0.145370
v 0.245554 -0.154851 0.153657
v 0.252897 -0.180269 0.147536
v 0.267244 -0.184833 0.134537
v 0.205175 -0.245867 0.153796
v 0.216407 -0.256030 0.148249
v 0.232877 -0.259531 0.135913
v 0.212768 -0.275844 0.135290
v 0.068128 -0.284502 0.152814
v 0.127857 -0.290105 0.145078
v 0.138258 -0.306495 0.121339
v -0.018449 -0.303036 0.145644
v -0.129303 -0.290079 0.144816
v 0.006842 -0.314179 0.134952
v -0.081418 -0.277902 0.153980
v -0.205991 -0.245907 0.153620
v -0.215982 -0.256789 0.148159
v -0.212032 -0.276254 0.135224
v -0.232991 -0.260155 0.135342
v -0.245633 -0.181687 0.151201
v -0.259090 -0.204589 0.135172
vn 0.7910 0.5806 0.1930
vn 0.7755 0.6313 -0.0055
vn 0.6499 0.7351 0.1928
vn 0.4897 0.8472 0.2060
vn 0.5325 0.8464 -0.0086
vn 0.3179 0.9258 0.2046
vn 0.2219 0.9750 -0.0087
vn 0.0789 0.9725 0.2191
vn -0.0955 0.9954 -0.0077
vn -0.1844 0.9607 0.2074
vn -0.6293 0.7484 0.2094
vn -0.4314 0.8758 0.2164
vn -0.6078 0.7941 -0.0024
vn -0.3795 0.9252 -0.0042
vn -0.7875 0.6163 -0.0014
vn 0.8151 -0.5401 0.2094
vn 0.7930 -0.6092 -0.0065
vn 0.9123 -0.3545 0.2049
vn 0.9644 -0.2640 -0.0189
vn -0.5020 -0.8419 0.1981
vn -0.1705 -0.9853 -0.0072
vn -0.1948 -0.9286 0.3159
vn -0.6605 -0.7507 -0.0110
vn -0.0591 -0.9715 0.2294
vn 0.0903 -0.9959 -0.0087
vn 0.1120 -0.9668 0.2296
vn 0.2061 -0.9238 0.3227
vn 0.4188 -0.9081 -0.0051
vn 0.5105 -0.8356 0.2029
vn -0.9170 -0.3404 0.2080
vn -0.9570 -0.1943 0.2156
vn -0.9594 -0.2813 -0.0192
vn -0.3183 -0.0188 0.9478
vn -0.3616 0.1000 0.9269
vn -0.7617 0.1859 0.6207
vn -0.7623 -0.1238 0.6352
vn -0.1552 0.1673 0.9736
vn -0.4108 0.3265 0.8513
vn -0.6731 0.4605 0.5787
vn -0.9251 0.2880 0.2474
vn -0.7876 0.5861 0.1902
vn 0.2188 0.3377 0.9155
vn 0.2695 0.2190 0.9378
vn 0.5299 0.5940 0.6053
vn -0.5279 0.5995 0.6016
vn -0.3577 0.5866 0.7266
vn -0.0572 0.3875 0.9201
vn -0.2525 0.7502 0.6111
vn 0.0528 0.7303 0.6811
vn 0.2498 0.7486 0.6142
vn -0.0940 0.2413 0.9659
vn -0.0893 0.8064 0.5845
vn 0.0920 0.3186 0.9434
vn 0.3877 0.6889 0.6125
vn 0.3536 0.0980 0.9303
vn 0.2313 -0.0460 0.9718
vn 0.5979 -0.0454 0.8003
vn 0.9133 -0.0660 0.4020
vn 0.9347 0.2827 0.2153
vn 0.7822 0.2091 0.5868
vn 0.4924 -0.1687 0.8539
vn 0.7822 -0.2476 0.5718
vn 0.9542 -0.1883 0.2326
vn 0.3465 -0.7171 0.6047
vn 0.6372 -0.4828 0.6008
vn 0.3395 -0.3795 0.8606
vn -0.0420 -0.5911 0.8055
vn -0.0317 -0.2277 0.9732
vn -0.1244 -0.6014 0.7892
vn 0.0289 -0.8246 0.5650
vn 0.1233 -0.5963 0.7932
vn 0.0326 -0.3187 0.9473
vn 0.1377 -0.1741 0.9750
vn -0.1387 -0.1746 0.9748
vn -0.3410 -0.3887 0.8560
vn -0.3406 -0.7250 0.5986
vn -0.8179 -0.5417 0.1938
vn -0.6371 -0.4900 0.5950
vn -0.4001 -0.1341 0.9066
vn -0.7366 -0.2831 0.6143
vn -0.9267 -0.0370 0.3739
vn -0.9919 -0.0828 -0.0966
vn -0.9944 -0.0244 0.1029
vn -0.9943 0.0961 0.0465
vn -0.9901 0.1320 -0.0471
vn -0.9968 0.0121 -0.0788
vn 0.6570 0.4564 0.6001
vn 0.0029 -0.0012 -1.0000
vn 0.0002 -0.0002 -1.0000
vn 0.0001 -0.0001 -1.0000
vn -0.0000 -0.0001 -1.0000
vn -0.0000 -0.0000 -1.0000
vn -0.0002 0.0003 -1.0000
vn 0.0003 -0.0026 -1.0000
vn 0.0003 0.0025 -1.0000
vn -0.0010 -0.0019 -1.0000
vn -0.0000 0.0001 -1.0000
vn 0.0125 0.0030 -0.9999
vn -0.9343 0.3544 -0.0382
vn 0.9961 -0.0779 0.0419
vn 0.9935 0.0244 0.1114
vn 0.9896 0.1402 -0.0323
vn 0.9344 0.3539 -0.0417
vn 0.9975 0.0134 -0.0701
vn 0.9893 -0.0634 -0.1312
vt 0.000000 0.000000
s 1
f 32/1/1 14/1/2 33/1/3
f 34/1/4 33/1/3 15/1/5
f 35/1/6 34/1/4 15/1/5
f 35/1/6 15/1/5 16/1/7
f 36/1/8 16/1/7 17/1/9
f 37/1/10 36/1/8 17/1/9
f 39/1/11 38/1/12 19/1/13
f 19/1/13 38/1/12 18/1/14
f 39/1/11 19/1/13 20/1/15
f 46/1/16 23/1/17 45/1/18
f 21/1/19 45/1/18 23/1/17
f 52/1/20 24/1/21 48/1/22
f 52/1/20 26/1/23 24/1/21
f 49/1/24 25/1/25 50/1/26
f 24/1/21 25/1/25 49/1/24
f 84/1/27 22/1/28 47/1/29
f 53/1/30 54/1/31 27/1/32
f 55/1/33 29/1/34 30/1/35
f 55/1/33 30/1/35 56/1/36
f 57/1/37 59/1/38 29/1/34
f 30/1/35 58/1/39 13/1/40
f 13/1/40 58/1/39 31/1/41
f 61/1/42 60/1/43 62/1/44
f 58/1/39 59/1/38 64/1/45
f 58/1/39 64/1/45 31/1/41
f 31/1/41 64/1/45 39/1/11
f 66/1/46 67/1/47 68/1/48
f 38/1/12 68/1/48 37/1/10
f 72/1/49 70/1/50 36/1/8
f 36/1/8 70/1/50 35/1/6
f 57/1/37 65/1/51 66/1/46
f 71/1/52 68/1/48 67/1/47
f 67/1/47 72/1/49 71/1/52
f 72/1/49 67/1/47 69/1/53
f 69/1/53 61/1/42 70/1/50
f 70/1/50 61/1/42 73/1/54
f 70/1/50 73/1/54 35/1/6
f 35/1/6 73/1/54 34/1/4
f 73/1/54 62/1/44 34/1/4
f 34/1/4 62/1/44 33/1/3
f 42/1/55 75/1/56 74/1/57
f 43/1/58 40/1/59 41/1/60
f 43/1/58 41/1/60 74/1/57
f 74/1/57 41/1/60 42/1/55
f 74/1/57 76/1/61 77/1/62
f 74/1/57 77/1/62 43/1/58
f 43/1/58 77/1/62 44/1/63
f 81/1/64 47/1/29 80/1/65
f 81/1/64 80/1/65 79/1/66
f 85/1/67 88/1/68 86/1/69
f 87/1/70 48/1/22 49/1/24
f 87/1/70 84/1/27 83/1/71
f 88/1/68 82/1/72 78/1/73
f 88/1/68 89/1/74 86/1/69
f 86/1/69 89/1/74 90/1/75
f 86/1/69 90/1/75 91/1/76
f 86/1/69 91/1/76 48/1/22
f 48/1/22 91/1/76 52/1/20
f 51/1/77 52/1/20 92/1/78
f 89/1/74 93/1/79 90/1/75
f 90/1/75 93/1/79 92/1/78
f 92/1/78 93/1/79 94/1/80
f 92/1/78 94/1/80 51/1/77
f 51/1/77 94/1/80 53/1/30
f 94/1/80 93/1/79 56/1/36
f 94/1/80 56/1/36 53/1/30
f 53/1/30 56/1/36 54/1/31
f 56/1/36 28/1/81 54/1/31
f 24/1/21 49/1/24 48/1/22
f 2/1/82 4/1/83 3/1/84
f 2/1/82 3/1/84 10/1/85
f 2/1/82 10/1/85 1/1/86
f 63/1/87 40/1/59 32/1/1
f 54/1/31 4/1/83 2/1/82
f 28/1/81 4/1/83 54/1/31
f 2/1/82 1/1/86 27/1/32
s 0
f 1/1/88 11/1/88 20/1/88
f 1/1/89 20/1/89 19/1/89
f 1/1/90 19/1/90 18/1/90
f 1/1/91 18/1/91 17/1/91
f 1/1/91 17/1/91 16/1/91
f 1/1/92 16/1/92 15/1/92
f 1/1/92 15/1/92 14/1/92
f 1/1/93 14/1/93 12/1/93
f 1/1/94 12/1/94 9/1/94
f 1/1/95 9/1/95 21/1/95
f 1/1/96 21/1/96 23/1/96
f 1/1/92 23/1/92 22/1/92
f 1/1/97 22/1/97 25/1/97
f 1/1/97 25/1/97 24/1/97
f 1/1/97 24/1/97 26/1/97
f 1/1/98 26/1/98 27/1/98
s 1
f 13/1/40 4/1/83 28/1/81
f 80/1/65 47/1/29 46/1/16
f 3/1/84 4/1/83 13/1/40
f 1/1/86 10/1/85 11/1/99
f 91/1/76 90/1/75 92/1/78
f 6/1/100 44/1/63 21/1/19
f 10/1/85 13/1/40 11/1/99
f 55/1/33 89/1/74 88/1/68
f 55/1/33 88/1/68 78/1/73
f 55/1/33 78/1/73 75/1/56
f 55/1/33 75/1/56 42/1/55
f 55/1/33 42/1/55 60/1/43
f 55/1/33 60/1/43 69/1/53
f 55/1/33 69/1/53 65/1/51
f 55/1/33 65/1/51 57/1/37
f 55/1/33 57/1/37 29/1/34
f 73/1/54 61/1/42 62/1/44
f 92/1/78 52/1/20 91/1/76
f 61/1/42 69/1/53 60/1/43
f 10/1/85 3/1/84 13/1/40
f 87/1/70 49/1/24 50/1/26
f 83/1/71 81/1/64 79/1/66
f 45/1/18 21/1/19 44/1/63
f 13/1/40 28/1/81 30/1/35
f 84/1/27 47/1/29 81/1/64
f 37/1/10 17/1/9 18/1/14
f 26/1/23 52/1/20 51/1/77
f 33/1/3 14/1/2 15/1/5
f 69/1/53 67/1/47 65/1/51
f 64/1/45 59/1/38 66/1/46
f 6/1/100 43/1/58 44/1/63
f 55/1/33 56/1/36 93/1/79
f 54/1/31 2/1/82 27/1/32
f 5/1/101 7/1/102 40/1/59
f 7/1/102 12/1/103 40/1/59
f 9/1/104 8/1/105 21/1/19
f 8/1/105 6/1/100 21/1/19
f 6/1/100 8/1/105 9/1/104
f 6/1/100 9/1/104 7/1/102
f 6/1/100 7/1/102 5/1/101
f 6/1/100 5/1/101 43/1/58
f 5/1/101 40/1/59 43/1/58
f 9/1/104 12/1/103 7/1/102
f 77/1/62 45/1/18 44/1/63
f 31/1/41 39/1/11 20/1/15
f 22/1/28 23/1/17 47/1/29
f 31/1/41 11/1/99 13/1/40
f 80/1/65 76/1/61 79/1/66
f 82/1/72 88/1/68 85/1/67
f 42/1/55 63/1/87 60/1/43
f 12/1/103 32/1/1 40/1/59
f 53/1/30 26/1/23 51/1/77
f 23/1/17 46/1/16 47/1/29
f 62/1/44 32/1/1 33/1/3
f 81/1/64 83/1/71 84/1/27
f 69/1/53 70/1/50 72/1/49
f 84/1/27 87/1/70 50/1/26
f 66/1/46 39/1/11 64/1/45
f 83/1/71 78/1/73 82/1/72
f 45/1/18 80/1/65 46/1/16
f 37/1/10 68/1/48 71/1/52
f 38/1/12 37/1/10 18/1/14
f 63/1/87 62/1/44 60/1/43
f 48/1/22 85/1/67 86/1/69
f 71/1/52 36/1/8 37/1/10
f 83/1/71 85/1/67 87/1/70
f 57/1/37 66/1/46 59/1/38
f 75/1/56 76/1/61 74/1/57
f 76/1/61 78/1/73 79/1/66
f 67/1/47 66/1/46 65/1/51
f 82/1/72 85/1/67 83/1/71
f 36/1/8 35/1/6 16/1/7
f 84/1/27 25/1/25 22/1/28
f 38/1/12 66/1/46 68/1/48
f 58/1/39 29/1/34 59/1/38
f 89/1/74 55/1/33 93/1/79
f 30/1/35 28/1/81 56/1/36
f 63/1/87 41/1/60 40/1/59
f 31/1/41 20/1/15 11/1/99
f 80/1/65 77/1/62 76/1/61
f 42/1/55 41/1/60 63/1/87
f 12/1/103 14/1/2 32/1/1
f 53/1/30 27/1/32 26/1/23
f 62/1/44 63/1/87 32/1/1
f 66/1/46 38/1/12 39/1/11
f 83/1/71 79/1/66 78/1/73
f 45/1/18 77/1/62 80/1/65
f 48/1/22 87/1/70 85/1/67
f 71/1/52 72/1/49 36/1/8
f 76/1/61 75/1/56 78/1/73
f 84/1/27 50/1/26 25/1/25
f 58/1/39 30/1/35 29/1/34
