# Blender 4.4.3
# www.blender.org
mtllib left_finger_3_3_compact.mtl
o left_finger_3_3
v 0.003126 0.003980 -0.005117
v 0.005979 0.014082 -0.005997
v 0.005982 0.009005 -0.006348
v 0.005978 0.010633 -0.022534
v 0.005981 0.014688 -0.022267
v 0.003968 0.019132 -0.021923
v 0.003204 0.019700 -0.021889
v 0.002412 0.020123 -0.021844
v 0.001739 0.020361 -0.021877
v 0.001056 0.020541 -0.021598
v 0.005915 0.015594 -0.022165
v 0.005736 0.016346 -0.022142
v 0.005449 0.017129 -0.022071
v 0.005012 0.017921 -0.022011
v 0.004493 0.018596 -0.021989
v 0.005821 0.015105 -0.005937
v 0.005472 0.008209 -0.022533
v 0.005738 0.008952 -0.022533
v 0.005902 0.009660 -0.022530
v 0.005543 0.007128 -0.006507
v 0.005820 0.007955 -0.006435
v 0.005283 0.014758 -0.005155
v 0.004456 0.016407 -0.004995
v 0.005879 0.014015 -0.005666
v 0.002084 0.019330 -0.005654
v 0.003099 0.018827 -0.005648
v 0.003822 0.018291 -0.005670
v 0.004444 0.017690 -0.005695
v 0.004974 0.016988 -0.005735
v 0.005422 0.016233 -0.005884
v 0.005353 0.016157 -0.005562
v 0.005734 0.015046 -0.005618
v 0.002388 0.019022 -0.005247
v 0.003059 0.018718 -0.005363
v 0.003975 0.018003 -0.005389
v 0.004726 0.017135 -0.005428
v 0.005611 0.014003 -0.005348
v 0.003463 0.018258 -0.005187
v 0.004331 0.017274 -0.005139
v 0.004936 0.016547 -0.005278
v 0.005148 0.015888 -0.005218
v 0.005480 0.014957 -0.005293
v 0.002500 0.018612 -0.004983
v 0.003294 0.018054 -0.004988
v 0.005875 0.008959 -0.006020
v 0.005654 0.009024 -0.005733
v 0.005537 0.007924 -0.005857
v 0.005300 0.006610 -0.006433
v 0.005578 0.007428 -0.006164
v 0.005786 0.008256 -0.006086
v 0.004996 0.006090 -0.006556
v 0.004526 0.005455 -0.006607
v 0.005568 0.016275 -0.022532
v 0.002363 0.019988 -0.022238
v 0.005258 0.017004 -0.022529
v 0.004887 0.017818 -0.022399
v 0.004167 0.018740 -0.022336
v 0.003141 0.019560 -0.022278
v 0.004000 0.006535 -0.004983
v 0.000990 0.002791 -0.004983
v -0.000200 0.019913 -0.004983
v 0.001909 0.003052 -0.004983
v 0.002594 0.003457 -0.004982
v 0.004021 0.017176 -0.004983
v -0.002174 0.019912 -0.004983
v -0.002174 0.002751 -0.004983
v 0.004965 0.007279 -0.022534
v 0.004132 0.006303 -0.022534
v 0.003332 0.005668 -0.022534
v 0.002221 0.005065 -0.022534
v -0.002174 0.020695 -0.022534
v -0.000200 0.020695 -0.022534
v 0.000711 0.004688 -0.022534
v -0.002174 0.004655 -0.022534
v 0.003061 0.019357 -0.022531
v 0.005787 0.015407 -0.022535
v 0.004475 0.018149 -0.022534
vn 0.9014 0.4063 0.1496
vn 0.8224 0.5248 0.2195
vn 0.8223 0.3367 0.4588
vn 0.9601 0.2334 0.1540
vn 0.8648 0.1833 0.4675
vn 0.9857 0.0659 0.1551
vn 0.8788 0.0286 0.4764
vn 0.3620 0.9099 0.2024
vn 0.3639 0.7345 0.5728
vn 0.5184 0.8297 0.2072
vn 0.4668 0.7159 0.5193
vn 0.6289 0.7453 0.2215
vn 0.6006 0.6040 0.5239
vn 0.7347 0.6361 0.2359
vn 0.7068 0.4820 0.5177
vn 0.4670 0.5640 0.6811
vn 0.5083 0.3714 0.7770
vn 0.6247 0.3199 0.7124
vn 0.5731 0.1858 0.7981
vn 0.6525 0.1158 0.7489
vn 0.6252 -0.0130 0.7804
vn 0.3247 0.5425 0.7748
vn 0.3861 0.4445 0.8083
vn 0.3684 0.2592 0.8928
vn 0.3899 0.1642 0.9061
vn 0.3755 0.0219 0.9266
vn 0.6344 0.7536 -0.1721
vn 0.7439 0.6441 -0.1783
vn 0.5598 0.5974 -0.5742
vn 0.5180 0.8406 -0.1580
vn 0.4510 0.7324 -0.5101
vn 0.3890 0.6317 -0.6705
vn 0.3320 0.7720 -0.5421
vn 0.9645 0.0418 -0.2607
vn 0.7383 -0.0250 -0.6740
vn 0.5559 0.0907 -0.8263
vn -0.0305 -0.0315 0.9990
vn -0.0309 -0.0324 0.9990
vn -0.0301 -0.0321 0.9990
vn 0.0250 0.0269 0.9993
vn 0.0243 0.0264 0.9994
vn 0.0253 0.0265 0.9993
vn 0.1012 0.7014 0.7056
vn -0.0003 0.9771 0.2128
vn -0.0000 -0.0000 1.0000
vn 0.2266 -0.8000 0.5556
vn 0.2912 -0.7091 0.6422
vn -0.0006 0.0001 1.0000
vn 0.4826 -0.6487 0.5884
vn 0.0010 0.0026 1.0000
vn 0.0005 0.0001 1.0000
vn 0.0072 0.0009 1.0000
vn 0.0061 0.0008 1.0000
vn 0.0885 0.9951 0.0440
vn 0.0889 0.9951 0.0443
vn 0.0126 -0.9941 -0.1077
vn 0.2422 -0.9642 -0.1076
vn 0.3734 -0.9224 -0.0989
vn 0.0001 -0.0000 1.0000
vn 0.6351 -0.4921 0.5954
vn 0.4113 -0.1876 0.8920
vn 0.6433 -0.2575 0.7210
vn 0.6431 -0.2579 0.7210
vn 0.7169 -0.2152 0.6631
vn 0.6551 -0.0874 0.7504
vn 0.4824 -0.0844 0.8719
vn 0.2955 0.9398 -0.1719
vn 0.2546 0.8948 -0.3669
vn 0.2362 0.9711 -0.0338
vn 0.0006 -0.0002 -1.0000
vn 0.0013 0.0005 -1.0000
vn -0.0000 -0.0000 -1.0000
vn 0.5603 -0.8244 -0.0799
vn 0.6216 -0.7800 -0.0717
vn 0.6954 -0.7165 -0.0551
vn 0.6955 -0.7164 -0.0554
vn 0.6956 -0.7163 -0.0555
vn 0.7884 -0.5960 0.1520
vn 0.8024 -0.5445 0.2443
vn 0.7938 -0.4876 0.3636
vn 0.8531 -0.4399 0.2806
vn 0.8467 -0.3340 0.4142
vn 0.9610 -0.2443 0.1299
vn 0.9213 -0.3778 0.0916
vn -0.0026 -0.0002 -1.0000
vn -0.0027 -0.0001 -1.0000
vn 0.5194 0.4464 -0.7286
vn 0.4932 0.2426 -0.8354
vn -0.0001 0.0002 -1.0000
vn 0.5226 0.1754 -0.8343
vn 0.0202 -0.0072 -0.9998
vn 0.0204 -0.0062 -0.9998
vn 0.9873 -0.1472 -0.0600
vn 0.6896 -0.1941 -0.6977
vn -0.0152 0.0078 -0.9999
vn 0.0076 -0.0029 -1.0000
vn 0.0076 -0.0028 -1.0000
vn -0.0003 0.0003 -1.0000
vn 0.0009 0.0011 -1.0000
vn -0.0001 0.0001 -1.0000
vn -0.0014 0.0001 -1.0000
vn 0.0006 0.0004 -1.0000
vn 0.7596 -0.6482 -0.0540
vn 0.7596 -0.6482 -0.0531
vn 0.7594 -0.6484 -0.0530
vn 0.8048 -0.5918 -0.0456
vn 0.8043 -0.5923 -0.0478
vn 0.8052 -0.5913 -0.0456
vn 0.3951 0.9072 -0.1442
vn 0.9871 -0.0816 0.1380
vn 0.9656 0.1714 -0.1956
vn 0.8792 -0.1841 0.4394
vn 0.6763 0.4612 -0.5744
vn -1.0000 -0.0000 -0.0000
vn 0.8857 0.4178 -0.2022
vn 0.8168 0.5448 -0.1899
vn 0.8828 -0.1015 0.4586
vn -0.0002 -0.0002 -1.0000
vn -0.0004 0.9990 0.0447
vn -0.0003 0.9990 0.0445
vn 0.0115 -0.9941 -0.1079
vn 0.9313 0.2955 -0.2128
vn 0.8666 -0.4974 -0.0387
vn 0.9164 -0.3991 -0.0310
vn 0.8774 -0.4782 -0.0381
vt 0.000000 0.000000
s 1
f 30/1/1 29/1/2 31/1/3
f 30/1/1 31/1/3 16/1/4
f 16/1/4 31/1/3 32/1/5
f 16/1/4 32/1/5 2/1/6
f 2/1/6 32/1/5 24/1/7
f 25/1/8 33/1/9 26/1/10
f 26/1/10 33/1/9 34/1/11
f 26/1/10 34/1/11 27/1/12
f 27/1/12 34/1/11 35/1/13
f 27/1/12 35/1/13 28/1/14
f 28/1/14 35/1/13 36/1/15
f 28/1/14 36/1/15 29/1/2
f 29/1/2 36/1/15 31/1/3
f 34/1/11 33/1/9 38/1/16
f 34/1/11 38/1/16 35/1/13
f 35/1/13 38/1/16 39/1/17
f 35/1/13 39/1/17 36/1/15
f 36/1/15 39/1/17 40/1/18
f 36/1/15 40/1/18 31/1/3
f 31/1/3 40/1/18 41/1/19
f 31/1/3 41/1/19 32/1/5
f 32/1/5 41/1/19 42/1/20
f 32/1/5 42/1/20 24/1/7
f 24/1/7 42/1/20 37/1/21
f 33/1/9 43/1/22 38/1/16
f 38/1/16 43/1/22 44/1/23
f 40/1/18 39/1/17 41/1/19
f 39/1/17 44/1/23 64/1/24
f 39/1/17 64/1/24 23/1/25
f 39/1/17 23/1/25 41/1/19
f 41/1/19 23/1/25 22/1/26
f 41/1/19 22/1/26 42/1/20
f 6/1/27 15/1/28 57/1/29
f 7/1/30 6/1/27 58/1/31
f 58/1/31 6/1/27 57/1/29
f 58/1/31 75/1/32 54/1/33
f 5/1/34 4/1/35 76/1/36
s 0
f 23/1/37 64/1/38 43/1/39
f 64/1/40 44/1/41 43/1/42
s 1
f 61/1/43 65/1/44 43/1/22
s 0
f 66/1/45 60/1/45 43/1/45
s 1
f 60/1/46 62/1/47 43/1/48
f 62/1/47 63/1/49 43/1/48
s 0
f 63/1/50 59/1/51 43/1/51
f 59/1/52 23/1/53 43/1/52
s 1
f 33/1/9 25/1/8 61/1/43
s 0
f 10/1/54 72/1/55 61/1/55
s 1
f 43/1/22 33/1/9 61/1/43
s 0
f 73/1/56 60/1/56 66/1/56
s 1
f 22/1/26 37/1/21 42/1/20
f 73/1/57 70/1/58 60/1/46
f 75/1/32 58/1/31 57/1/29
s 0
f 66/1/59 43/1/59 65/1/59
s 1
f 1/1/60 59/1/61 63/1/49
s 0
f 1/1/62 47/1/63 59/1/63
s 1
f 47/1/64 46/1/65 59/1/66
f 46/1/65 37/1/21 59/1/66
f 37/1/21 22/1/26 59/1/66
f 22/1/26 23/1/25 59/1/66
f 9/1/67 72/1/68 10/1/69
f 9/1/67 54/1/33 72/1/68
f 54/1/33 75/1/32 72/1/68
s 0
f 75/1/70 67/1/71 72/1/71
f 70/1/72 74/1/72 71/1/72
f 70/1/72 73/1/72 74/1/72
s 1
f 63/1/49 69/1/73 68/1/74
s 0
f 68/1/75 52/1/76 1/1/77
s 1
f 52/1/78 51/1/79 1/1/80
f 51/1/79 48/1/81 1/1/80
f 48/1/81 49/1/82 1/1/80
f 49/1/82 47/1/64 1/1/80
f 21/1/83 49/1/82 20/1/84
f 70/1/58 62/1/47 60/1/46
f 44/1/23 39/1/17 38/1/16
s 0
f 75/1/85 77/1/86 67/1/86
s 1
f 77/1/87 55/1/88 67/1/89
f 55/1/88 53/1/90 67/1/89
f 53/1/90 76/1/36 67/1/89
f 76/1/36 4/1/35 67/1/89
s 0
f 4/1/91 19/1/92 67/1/92
s 1
f 19/1/93 18/1/94 67/1/95
s 0
f 18/1/96 17/1/97 67/1/97
f 68/1/98 69/1/99 67/1/100
f 69/1/101 70/1/102 67/1/72
s 1
f 6/1/27 27/1/12 28/1/14
f 52/1/103 68/1/104 67/1/105
s 0
f 67/1/106 51/1/107 52/1/108
s 1
f 54/1/33 9/1/67 8/1/109
f 3/1/110 19/1/93 4/1/35
f 21/1/83 19/1/93 3/1/110
f 2/1/6 5/1/34 11/1/111
f 50/1/112 47/1/64 49/1/82
f 11/1/111 5/1/34 76/1/36
f 55/1/88 77/1/87 56/1/113
f 57/1/29 56/1/113 77/1/87
f 5/1/34 2/1/6 3/1/110 4/1/35
f 1/1/60 63/1/49 68/1/74
s 0
f 65/1/114 71/1/114 74/1/114 66/1/114
s 1
f 13/1/115 14/1/116 30/1/1
f 3/1/110 2/1/6 24/1/7 45/1/117
f 77/1/87 75/1/32 57/1/29
s 0
f 71/1/72 72/1/118 67/1/72 70/1/72
s 1
f 21/1/83 50/1/112 49/1/82
f 65/1/44 61/1/43 72/1/119 71/1/120
f 20/1/84 49/1/82 48/1/81
s 0
f 74/1/121 73/1/121 66/1/121
s 1
f 57/1/29 15/1/28 14/1/116 56/1/113
f 47/1/64 50/1/112 45/1/117 46/1/65
f 70/1/58 69/1/73 63/1/49 62/1/47
f 25/1/8 9/1/67 10/1/69 61/1/43
f 26/1/10 7/1/30 8/1/109 25/1/8
f 14/1/116 29/1/2 30/1/1
f 56/1/113 14/1/116 13/1/115 55/1/88
f 53/1/90 55/1/88 13/1/115 12/1/122
f 16/1/4 2/1/6 11/1/111
f 76/1/36 53/1/90 12/1/122 11/1/111
f 50/1/112 21/1/83 3/1/110 45/1/117
f 28/1/14 29/1/2 14/1/116 15/1/28
f 8/1/109 9/1/67 25/1/8
f 30/1/1 16/1/4 12/1/122 13/1/115
f 26/1/10 27/1/12 6/1/27 7/1/30
f 11/1/111 12/1/122 16/1/4
f 46/1/65 45/1/117 24/1/7 37/1/21
f 54/1/33 8/1/109 7/1/30 58/1/31
f 15/1/28 6/1/27 28/1/14
s 0
f 48/1/123 51/1/123 67/1/123
s 1
f 18/1/94 21/1/83 20/1/84 17/1/124
f 21/1/83 18/1/94 19/1/93
f 20/1/84 48/1/81 17/1/124
f 48/1/81 67/1/125 17/1/124
