# Blender 4.4.3
# www.blender.org
mtllib left_finger_3_2_compact.mtl
o left_finger_3_2
v 0.005966 0.017263 -0.005852
v 0.005959 0.018967 -0.035786
v 0.005943 0.011736 -0.036266
v 0.005200 0.021088 -0.035876
v 0.004629 0.021923 -0.035816
v 0.003835 0.022736 -0.035608
v 0.002930 0.023360 -0.035467
v 0.005572 0.020297 -0.035952
v 0.005746 0.018360 -0.005608
v 0.005378 0.019309 -0.005451
v 0.004429 0.020758 -0.005426
v 0.004909 0.020123 -0.005424
v 0.003678 0.021472 -0.005430
v 0.000937 0.022677 -0.005425
v 0.001958 0.022412 -0.005422
v 0.002841 0.022026 -0.005422
v 0.001150 0.006774 -0.036640
v 0.002073 0.007040 -0.036639
v 0.002879 0.007408 -0.036639
v 0.003820 0.008059 -0.036638
v 0.004647 0.008904 -0.036633
v 0.005197 0.009737 -0.036636
v 0.005759 0.008282 -0.006299
v 0.005971 0.009358 -0.006451
v 0.002715 0.004504 -0.006975
v 0.003577 0.005023 -0.006749
v 0.004936 0.006455 -0.006750
v 0.004292 0.005657 -0.006546
v 0.005457 0.007382 -0.006690
v 0.005913 0.017245 -0.005562
v 0.005913 0.009438 -0.006074
v 0.005698 0.009368 -0.005761
v 0.005422 0.009584 -0.005538
v 0.005476 0.008327 -0.005792
v 0.005145 0.007408 -0.005857
v 0.005400 0.007366 -0.006237
v 0.004946 0.006562 -0.006250
v 0.005666 0.018966 -0.036466
v 0.005184 0.020641 -0.036345
v 0.005880 0.018904 -0.036173
v 0.003367 0.022731 -0.036638
v 0.001408 0.003833 -0.005421
v 0.000439 0.003721 -0.005422
v 0.003399 0.005268 -0.005418
v 0.002525 0.004373 -0.005422
v -0.000220 0.022764 -0.005422
v 0.005737 0.017975 -0.005422
v 0.005844 0.016509 -0.005420
v 0.005452 0.011365 -0.005422
v -0.002163 0.022767 -0.005422
v -0.002163 0.003725 -0.005423
v -0.002163 0.006319 -0.031701
v 0.005529 0.010412 -0.036629
v -0.000780 0.006642 -0.036643
v 0.001452 0.024073 -0.036640
v 0.000949 0.024184 -0.036638
v -0.002163 0.024207 -0.036640
v 0.001614 0.024027 -0.036640
v 0.001455 0.024071 -0.036640
v 0.002488 0.023585 -0.036640
v 0.005220 0.019652 -0.036638
v 0.005659 0.017434 -0.036637
v 0.005892 0.012012 -0.036640
v -0.002163 0.008168 -0.036640
vn 0.9920 -0.1018 0.0751
vn 0.9923 0.0852 0.0904
vn 0.9266 -0.0954 0.3637
vn 0.9087 0.0649 0.4124
vn 0.9233 -0.0184 0.3836
vn 0.7244 -0.1215 0.6786
vn 0.9362 -0.2600 0.2366
vn 0.6593 -0.2208 0.7187
vn 0.4282 -0.0820 0.9000
vn 0.9127 -0.4081 0.0215
vn 0.8541 -0.4044 0.3270
vn 0.8239 -0.5664 0.0166
vn 0.7859 -0.5175 0.3386
vn 0.7237 -0.6813 0.1100
vn 0.6476 -0.3241 0.6896
vn 0.6049 -0.0535 0.7945
vn 0.8217 0.5151 -0.2441
vn 0.9038 0.3411 -0.2586
vn 0.6568 0.3589 -0.6632
vn 0.2901 0.0344 -0.9564
vn 0.3756 0.1427 -0.9157
vn 0.6833 0.1507 -0.7144
vn 0.8952 -0.3480 -0.2786
vn 0.7108 -0.0468 -0.7018
vn 0.9811 -0.1487 -0.1234
vn 0.9326 0.2583 0.2519
vn 0.0001 -0.0000 1.0000
vn 0.9045 0.4233 0.0522
vn 0.8978 0.1594 0.4106
vn -0.0013 0.0002 1.0000
vn -0.0016 0.0007 1.0000
vn -0.0024 -0.0005 1.0000
vn -0.0014 -0.0003 1.0000
vn 0.0018 0.0020 1.0000
vn 0.0019 0.0015 1.0000
vn 0.0483 0.0347 0.9982
vn -0.0643 -0.0698 0.9955
vn -0.0640 -0.0701 0.9955
vn 0.0143 0.0151 0.9998
vn 0.0143 0.0149 0.9998
vn 0.0144 0.0150 0.9998
vn 0.0384 0.0466 0.9982
vn 0.0391 0.0449 0.9982
vn 0.0391 0.0460 0.9982
vn 0.0045 0.0262 0.9996
vn 0.0037 0.0258 0.9997
vn 0.0049 0.0261 0.9996
vn 0.0004 0.0008 1.0000
vn 0.0004 -0.0000 1.0000
vn -0.0042 0.0003 1.0000
vn -0.0042 0.0001 1.0000
vn 0.0010 0.0005 1.0000
vn 0.0009 0.0003 1.0000
vn 0.7057 -0.4037 -0.5823
vn 0.4548 -0.5331 -0.7134
vn 0.5532 -0.4412 -0.7066
vn 0.6320 -0.4536 0.6284
vn 0.4218 0.9057 0.0410
vn 0.4224 0.9055 0.0415
vn 0.4223 0.9056 0.0397
vn 0.5104 -0.8589 -0.0430
vn 0.6069 -0.7947 0.0070
vn 0.4825 -0.8759 0.0008
vn 0.6793 -0.6657 0.3088
vn 0.6797 -0.6655 0.3084
vn 0.6798 -0.6654 0.3084
vn 0.0071 0.9989 0.0457
vn 0.0006 0.0150 -0.9999
vn -0.0001 -0.0000 -1.0000
vn -0.0000 -0.0001 -1.0000
vn -0.0002 0.0006 -1.0000
vn -0.0001 -0.0015 -1.0000
vn -0.0000 -0.0022 -1.0000
vn 0.0004 0.0002 -1.0000
vn -0.0000 -0.0004 -1.0000
vn 0.0009 0.0006 -1.0000
vn -0.0075 -0.0050 -1.0000
vn 0.0104 0.0050 -0.9999
vn 0.0102 0.0050 -0.9999
vn 0.0009 0.0001 -1.0000
vn 0.3460 -0.6054 -0.7168
vn 0.2992 -0.6552 -0.6937
vn 0.0004 0.0001 -1.0000
vn 0.0001 0.0001 -1.0000
vn 0.0017 0.0003 -1.0000
vn -0.0023 -0.0000 -1.0000
vn -1.0000 -0.0000 -0.0000
vn 0.1806 -0.9791 -0.0937
vn 0.2751 -0.9570 -0.0920
vn 0.0874 -0.9916 -0.0952
vn 0.3710 -0.9246 -0.0866
vn 0.3710 -0.9246 -0.0871
vn 0.9854 0.1436 -0.0911
vn 0.9152 0.1392 -0.3783
vn 0.4001 0.9155 0.0430
vn 0.3988 0.9161 0.0418
vn 0.8411 0.5404 0.0237
vn 0.2243 0.2776 -0.9342
vn 0.5623 0.8269 -0.0095
vn 0.6448 0.7589 -0.0912
vn 0.4511 0.8925 0.0018
vn 0.4509 0.8926 0.0011
vn -0.0007 -0.0017 -1.0000
vn 0.0113 0.0391 0.9992
vn -0.0013 -0.9957 -0.0931
vn -0.0017 -0.9956 -0.0935
vn -0.0000 -0.9955 -0.0952
vn -0.6560 -0.7188 -0.2302
vn -0.1959 -0.9735 -0.1181
vn -0.7189 -0.6510 -0.2437
vn -0.1179 -0.9882 -0.0976
vn 0.7470 0.6206 -0.2384
vn 0.6423 0.6210 -0.4493
vn 0.8516 0.0368 -0.5229
vn 0.8516 0.0363 -0.5230
vn 0.4352 -0.9001 -0.0225
vn 0.6358 0.7711 0.0344
vn 0.5621 0.8262 0.0370
vn 0.2390 0.9699 0.0473
vn 0.0752 0.9960 0.0479
vn 0.1649 0.9853 0.0454
vn 0.7629 0.6459 0.0292
vn 0.0014 0.9989 0.0461
vn 0.0841 -0.9919 -0.0954
vn 0.0838 -0.9919 -0.0951
vn 0.2424 0.9690 0.0474
vn 0.2428 0.9689 0.0472
vt 0.000000 0.000000
vt 0.461316 0.348488
vt 0.526835 0.395981
vt 0.492389 0.378052
s 1
f 24/1/1 1/1/2 31/1/3
f 31/1/3 1/1/2 30/1/4
f 31/1/3 30/1/4 48/1/5
f 31/1/3 48/1/5 32/1/6
f 23/1/7 24/1/1 31/1/3
f 23/1/7 31/1/3 34/1/8
f 34/1/8 31/1/3 32/1/6
f 34/1/8 32/1/6 33/1/9
f 29/1/10 23/1/7 36/1/11
f 27/1/12 37/1/13 28/1/14
f 37/1/13 27/1/12 29/1/10
f 37/1/13 29/1/10 36/1/11
f 35/1/15 37/1/13 36/1/11
f 35/1/15 36/1/11 34/1/8
f 49/1/16 33/1/9 32/1/6 48/1/5
f 4/1/17 8/1/18 39/1/19
f 62/1/20 61/1/21 38/1/22
f 53/1/23 63/1/24 3/1/25
f 1/1/2 9/1/26 30/1/4
f 46/2/27 50/3/27 51/1/27
f 9/1/26 10/1/28 47/1/29
s 0
f 42/1/30 16/1/30 43/1/30
f 49/1/31 48/1/32 16/1/33
f 48/1/34 47/1/35 16/1/35
f 47/1/36 10/1/36 16/1/36
f 10/1/37 12/1/38 16/1/38
f 12/1/39 11/1/40 16/1/41
f 11/1/42 13/1/43 16/1/44
f 15/1/45 14/1/46 46/1/47
f 15/1/48 46/1/48 16/1/48
f 42/1/49 45/1/49 16/1/49
f 45/1/50 44/1/51 16/1/51
f 44/1/52 49/1/53 16/1/53
s 1
f 29/1/10 22/1/54 53/1/23
f 28/1/14 20/1/55 21/1/56
f 44/1/57 33/1/9 49/1/16
f 27/1/12 21/1/56 22/1/54
s 0
f 7/1/58 58/1/59 16/1/60
s 1
f 25/1/61 26/1/62 45/1/63
f 26/1/62 28/1/14 45/1/63
s 0
f 28/1/64 44/1/65 45/1/66
s 1
f 28/1/14 37/1/13 44/1/57
f 37/1/13 35/1/15 44/1/57
f 35/1/15 34/1/8 44/1/57
f 34/1/8 33/1/9 44/1/57
s 0
f 56/1/67 57/1/67 46/2/67
f 57/1/68 56/1/68 55/1/68
s 1
f 57/1/69 55/1/70 59/1/71
s 0
f 57/1/72 59/1/73 41/1/72
f 57/1/74 41/1/74 61/1/74
s 1
f 57/1/75 61/1/21 62/1/20
s 0
f 57/1/76 62/1/76 63/1/76
s 1
f 57/1/77 63/1/24 53/1/23
s 0
f 57/1/78 53/1/79 22/1/78
s 1
f 57/1/80 22/1/54 21/1/56
f 57/1/80 21/1/56 20/1/55
f 57/1/80 20/1/55 19/1/81
f 57/1/80 19/1/81 18/1/82
s 0
f 57/1/83 18/1/84 17/1/83
f 57/1/85 17/1/85 54/1/85
f 57/1/86 54/1/86 64/1/86
f 64/1/87 52/1/87 57/1/87
s 1
f 17/1/88 18/1/89 42/1/90
s 0
f 18/1/91 25/1/92 42/1/92
s 1
f 8/1/18 2/1/93 40/1/94
s 0
f 58/1/95 15/1/95 16/1/96
s 1
f 4/1/17 12/1/97 10/1/28
f 26/1/62 19/1/81 20/1/55
f 60/1/98 7/1/99 6/1/100
s 0
f 60/1/101 58/1/101 7/1/102
f 60/1/103 55/1/103 58/1/103
f 55/1/104 56/1/104 58/1/104
f 54/1/105 43/1/106 51/1/107
s 1
f 54/1/108 52/1/109 64/1/110
f 52/1/109 54/1/108 51/1/111
f 2/1/93 8/1/18 9/1/26
f 5/1/112 60/1/98 6/1/100
f 41/1/113 59/1/71 60/1/98
f 59/1/71 55/1/70 60/1/98
f 5/1/112 41/1/113 60/1/98
f 25/1/61 18/1/82 19/1/81
f 22/1/54 29/1/10 27/1/12
f 4/1/17 10/1/28 8/1/18
s 0
f 63/1/114 62/1/114 40/1/115
s 1
f 62/1/20 38/1/22 40/1/94
f 61/1/21 39/1/19 38/1/22
f 61/1/21 41/1/113 39/1/19
f 30/1/4 47/1/29 48/1/5
f 63/1/24 40/1/94 2/1/93 3/1/25
s 0
f 50/3/87 57/1/87 52/1/87 51/1/87
s 1
f 8/1/18 40/1/94 38/1/22 39/1/19
f 45/1/63 42/1/116 25/1/61
s 0
f 43/1/27 16/1/27 46/1/27 51/1/27
s 1
f 13/4/117 6/1/100 7/1/99 16/1/118
f 56/1/119 46/2/120 14/1/121
f 23/1/7 34/1/8 36/1/11
f 11/1/122 5/1/112 6/1/100 13/4/117
f 26/1/62 25/1/61 19/1/81
f 8/1/18 10/1/28 9/1/26
f 9/1/26 1/1/2 2/1/93
f 28/1/14 26/1/62 20/1/55
s 0
f 57/1/123 50/3/123 46/2/123
s 1
f 3/1/25 24/1/1 23/1/7
f 42/1/90 43/1/124 54/1/125 17/1/88
f 23/1/7 29/1/10 53/1/23 3/1/25
f 27/1/12 28/1/14 21/1/56
f 24/1/1 3/1/25 2/1/93 1/1/2
f 12/1/97 4/1/17 5/1/112 11/1/122
f 58/1/126 56/1/119 14/1/121 15/1/127
f 5/1/112 4/1/17 39/1/19 41/1/113
f 30/1/4 9/1/26 47/1/29
