# Blender 4.4.3
# www.blender.org
mtllib compact_left_finger_5_2.mtl
o left_finger_5_2
v -0.000072 0.022086 -0.004470
v 0.005370 0.016366 -0.005039
v 0.005225 0.018167 -0.036802
v 0.005966 0.016639 -0.005895
v 0.005971 0.008736 -0.006494
v 0.005958 0.018365 -0.035810
v 0.005970 0.011975 -0.036516
v 0.005237 0.020412 -0.035916
v 0.004628 0.021299 -0.035854
v 0.003843 0.022098 -0.035738
v 0.002926 0.022739 -0.035513
v 0.005586 0.019627 -0.036005
v 0.005753 0.017696 -0.005646
v 0.005413 0.018665 -0.005652
v 0.004624 0.019949 -0.005538
v 0.003773 0.020804 -0.005617
v 0.002952 0.021376 -0.005669
v 0.001133 0.006147 -0.036699
v 0.002175 0.006498 -0.036915
v 0.002973 0.006877 -0.036873
v 0.003853 0.007495 -0.036849
v 0.004641 0.008289 -0.036772
v 0.005251 0.009176 -0.036686
v 0.005603 0.009992 -0.036669
v 0.005867 0.010907 -0.036597
v 0.005754 0.007638 -0.006346
v 0.002385 0.003646 -0.005650
v 0.003568 0.004393 -0.006751
v 0.004936 0.005831 -0.006793
v 0.004282 0.005023 -0.006578
v 0.005433 0.006723 -0.006458
v 0.005184 0.018680 -0.005188
v 0.004915 0.019427 -0.005374
v 0.005047 0.018179 -0.004953
v 0.005663 0.017046 -0.005232
v 0.005907 0.016515 -0.005564
v 0.005912 0.008811 -0.006116
v 0.005674 0.008253 -0.005855
v 0.005400 0.008908 -0.005573
v 0.005128 0.007197 -0.005747
v 0.005256 0.006733 -0.006045
v 0.004933 0.005930 -0.006272
v 0.005230 0.019407 -0.036598
v 0.005656 0.018292 -0.036532
v 0.005876 0.018300 -0.036216
v 0.004823 0.020662 -0.036330
v 0.005302 0.011384 -0.037241
v 0.005680 0.011392 -0.036996
v 0.002717 0.007042 -0.037290
v 0.005209 0.009672 -0.037117
v 0.004038 0.008053 -0.037256
v 0.001633 0.003307 -0.005669
v 0.001490 0.021956 -0.004480
v 0.002517 0.021444 -0.004516
v 0.003362 0.020601 -0.004572
v 0.003932 0.019358 -0.004652
v 0.003363 0.004602 -0.005591
v 0.000879 0.003128 -0.005678
v 0.003918 0.005800 -0.005515
v -0.000155 0.023566 -0.036464
v -0.000463 0.006072 -0.037587
v 0.004830 0.009750 -0.037350
v 0.003815 0.008309 -0.037443
v 0.002670 0.007428 -0.037498
v 0.002484 0.022952 -0.036510
v 0.001624 0.023386 -0.036480
v 0.003336 0.022127 -0.036567
v -0.002243 0.022087 -0.004469
v -0.002264 0.003116 -0.005671
v -0.002331 0.005651 -0.031120
v -0.002331 0.023567 -0.036458
v -0.002346 0.007599 -0.037475
vn 0.7160 0.2977 0.6314
vn 0.8973 0.3813 0.2224
vn 0.7770 0.4784 0.4092
vn 0.7562 0.6057 0.2477
vn 0.7285 0.0928 0.6787
vn 0.4648 0.1058 0.8791
vn 0.9919 -0.1024 0.0751
vn 0.9909 0.0906 0.0995
vn 0.9190 -0.0763 0.3869
vn 0.9118 0.0212 0.4101
vn 0.7332 -0.1819 0.6552
vn 0.9365 -0.2747 0.2178
vn 0.5124 -0.2279 0.8280
vn 0.4287 -0.0778 0.9001
vn 0.7271 -0.3616 0.5836
vn 0.8237 -0.5667 0.0166
vn 0.7676 -0.5230 0.3705
vn 0.7201 -0.6821 0.1274
vn 0.9009 -0.3942 0.1814
vn 0.4793 0.1008 -0.8718
vn 0.5320 0.2489 -0.8093
vn 0.6911 0.1375 -0.7095
vn 0.9057 0.1403 -0.4001
vn 0.8905 0.3519 -0.2885
vn 0.8461 0.4779 -0.2363
vn 0.6276 0.4387 -0.6432
vn 0.7214 -0.0399 -0.6914
vn 0.9605 -0.0138 -0.2780
vn 0.9834 0.1538 -0.0959
vn 0.8326 -0.4608 -0.3074
vn 0.6620 -0.2584 -0.7036
vn 0.9047 -0.2963 -0.3061
vn 0.4941 -0.8025 -0.3344
vn 0.3428 -0.8663 -0.3633
vn 0.3482 -0.5888 -0.7294
vn 0.6089 -0.7178 -0.3377
vn 0.5176 -0.4623 -0.7200
vn 0.7509 -0.5720 -0.3300
vn 0.4838 -0.1889 -0.8545
vn 0.3872 -0.3205 -0.8645
vn 0.5358 -0.0225 -0.8440
vn 0.9392 -0.1786 -0.2931
vn 0.0037 -0.0654 0.9979
vn 0.0028 -0.0646 0.9979
vn 0.0027 -0.0651 0.9979
vn -0.0078 0.0636 -0.9979
vn -0.0046 0.0645 -0.9979
vn 0.0016 0.0605 -0.9982
vn 0.0032 0.0648 -0.9979
vn 0.0025 0.0592 -0.9982
vn 0.0036 0.0573 -0.9984
vn 0.2858 -0.4122 -0.8651
vn 0.2553 -0.7773 -0.5750
vn 0.2654 -0.9343 -0.2379
vn 0.0028 -0.0641 0.9979
vn 0.0009 -0.0663 0.9978
vn 0.0028 -0.0666 0.9978
vn 0.0007 -0.0678 0.9977
vn -0.1770 -0.9775 -0.1148
vn -0.5604 -0.8001 -0.2140
vn -0.1172 -0.9881 -0.0998
vn 0.2328 -0.9681 -0.0929
vn 0.4105 -0.9078 -0.0856
vn 0.4113 -0.9075 -0.0855
vn 0.0019 -0.0636 0.9980
vn 0.0041 -0.0652 0.9979
vn 0.1000 -0.9904 -0.0956
vn -0.6214 -0.7495 -0.2283
vn -1.0000 0.0013 0.0028
vn -1.0000 0.0009 0.0027
vn -0.0025 0.0641 -0.9979
vn -0.0030 0.0640 -0.9979
vn -0.0028 0.0623 -0.9981
vn 0.0032 0.0602 -0.9982
vn 0.0056 0.0648 -0.9979
vn 0.0026 -0.0635 0.9980
vn 0.0028 -0.0634 0.9980
vn 0.5756 -0.0325 0.8171
vn 0.3521 0.0954 0.9311
vn 0.5198 -0.8540 -0.0199
vn 0.0036 -0.9958 -0.0920
vn 0.0032 -0.9957 -0.0923
vn 0.0043 -0.9956 -0.0934
vn 0.0009 -0.0630 0.9980
vn 0.2644 -0.1083 0.9583
vn 0.1349 -0.0631 0.9889
vn 0.4497 0.8932 -0.0082
vn 0.4178 0.9057 0.0720
vn 0.4082 0.9111 0.0576
vn 0.3982 0.9163 0.0426
vn 0.4198 0.9068 0.0394
vn 0.4200 0.9066 0.0410
vn -0.0165 0.0514 -0.9985
vn 0.5677 0.8230 -0.0188
vn 0.6483 0.7476 -0.1443
vn 0.6015 0.7721 -0.2051
vn 0.6218 0.6375 -0.4550
vn 0.9354 0.2465 0.2535
vn 0.6451 0.5666 0.5126
vn 0.6513 0.6500 0.3915
vn 0.6573 0.7347 0.1682
vn 0.5571 0.8144 0.1622
vn 0.5576 0.8142 0.1620
vn 0.5578 0.8141 0.1617
vn 0.4460 0.8876 0.1153
vn 0.1010 0.9939 0.0448
vn 0.1010 0.9939 0.0434
vn 0.5930 -0.8051 0.0107
vn 0.6536 -0.6881 0.3151
vn 0.6538 -0.6880 0.3148
vn 0.4753 -0.2722 0.8367
vn 0.4750 -0.2727 0.8367
vn 0.7427 0.6311 -0.2237
vn 0.6671 -0.5337 0.5197
vn 0.0831 0.9955 0.0458
vn 0.0817 0.9956 0.0457
vn 0.2318 -0.9683 -0.0928
vn 0.0005 0.9989 0.0462
vn -0.0000 0.9989 0.0462
vn 0.5746 0.8176 0.0356
vt 0.000000 0.000000
vt 0.021288 0.033032
vt 0.523256 0.778397
s 1
f 32/1/1 14/1/2 33/1/3
f 33/1/3 14/1/2 15/1/4
f 35/1/5 32/1/1 34/1/6
f 5/1/7 4/1/8 37/1/9
f 37/1/9 4/1/8 36/1/10
f 37/1/9 36/1/10 38/1/11
f 38/1/11 36/1/10 35/1/5
f 26/1/12 5/1/7 37/1/9
f 26/1/12 37/1/9 38/1/11
f 40/1/13 38/1/11 39/1/14
f 41/1/15 38/1/11 40/1/13
f 29/1/16 42/1/17 30/1/18
f 42/1/17 29/1/16 31/1/19
f 3/1/20 43/1/21 44/1/22
f 44/1/22 43/1/21 45/1/23
f 45/1/23 43/1/21 12/1/24
f 8/1/25 12/1/24 46/1/26
f 46/1/26 12/1/24 43/1/21
f 48/1/27 44/1/22 45/1/23
f 48/1/27 45/1/23 7/1/28
f 7/1/28 45/1/23 6/1/29
f 23/1/30 50/1/31 24/1/32
f 20/1/33 19/1/34 49/1/35
f 21/1/36 51/1/37 22/1/38
f 50/1/31 51/1/37 62/1/39
f 62/1/39 51/1/37 63/1/40
f 48/1/27 50/1/31 47/2/41
f 47/2/41 50/1/31 62/1/39
f 25/1/42 48/1/27 7/1/28
f 52/1/43 69/1/44 58/1/45
f 26/1/12 25/1/42 5/1/7
f 72/1/46 71/1/47 61/1/48
f 71/1/47 62/1/49 61/1/48
f 62/1/49 63/1/50 61/1/48
f 63/1/50 64/1/51 61/1/48
f 64/1/52 49/1/35 61/1/53
f 49/1/35 19/1/34 61/1/53
f 19/1/34 18/1/54 61/1/53
f 56/1/55 68/1/56 69/1/44
f 52/1/43 56/1/55 69/1/44
f 56/1/55 53/1/57 68/1/56
f 53/1/57 1/1/58 68/1/56
f 70/1/59 61/1/60 69/1/61
f 18/1/54 19/1/34 52/1/62
f 19/1/63 27/1/63 52/1/64
f 27/1/65 59/1/66 52/1/43
f 59/1/66 56/1/55 52/1/43
f 18/1/67 58/1/67 61/1/67
f 70/1/59 72/1/68 61/1/60
f 70/1/69 69/1/70 72/1/70
f 60/1/71 66/1/72 71/1/47
f 66/1/72 65/1/73 71/1/47
f 65/1/73 3/3/74 71/1/47
f 3/3/74 62/1/49 71/1/47
f 3/3/74 47/2/75 62/1/49
f 55/1/76 54/1/77 56/1/55
f 54/1/77 53/1/57 56/1/55
f 2/1/78 34/1/6 56/1/79
f 27/1/80 19/1/34 20/1/33
f 61/1/81 58/1/82 69/1/83
f 57/1/84 59/1/66 27/1/65
f 39/1/14 2/1/78 59/1/85
f 2/1/86 56/1/86 59/1/86
f 11/1/87 65/1/87 66/1/87
f 53/1/88 17/1/89 66/1/90
f 17/1/91 11/1/92 66/1/92
f 67/1/93 3/3/93 65/1/93
f 11/1/94 10/1/95 65/1/96
f 10/1/95 67/1/97 65/1/96
f 4/1/8 13/1/98 36/1/10
f 34/1/6 55/1/99 56/1/79
f 34/1/6 32/1/1 55/1/99
f 32/1/1 33/1/3 55/1/99
f 33/1/3 15/1/4 55/1/99
f 55/1/99 15/1/4 54/1/100
f 15/1/4 16/1/101 54/1/100
f 16/1/102 17/1/103 54/1/104
f 17/1/89 53/1/88 54/1/105
f 66/1/106 60/1/106 53/1/107
f 28/1/108 30/1/18 27/1/80
f 30/1/109 57/1/109 27/1/110
f 57/1/111 40/1/112 59/1/112
f 40/1/13 39/1/14 59/1/85
f 10/1/95 9/1/113 67/1/97
f 9/1/113 46/1/26 67/1/97
f 43/1/21 3/1/20 67/1/97
f 30/1/18 21/1/36 22/1/38
f 30/1/18 42/1/17 57/1/114
f 28/1/108 20/1/33 21/1/36
f 41/1/15 57/1/114 42/1/17
f 41/1/15 40/1/13 57/1/114
f 46/1/26 43/1/21 67/1/97
f 8/1/25 14/1/2 12/1/24
f 60/1/115 1/1/115 53/1/116
f 5/1/7 25/1/42 7/1/28
f 35/1/5 34/1/6 2/1/78
f 41/1/15 42/1/17 31/1/19
f 31/1/19 29/1/16 23/1/30
f 8/1/25 15/1/4 14/1/2
f 31/1/19 23/1/30 24/1/32
f 32/1/1 35/1/5 13/1/98 14/1/2
f 44/1/22 48/1/27 47/2/41 3/1/20
f 6/1/29 45/1/23 12/1/24
f 39/1/14 38/1/11 35/1/5 2/1/78
f 10/1/95 16/1/101 15/1/4 9/1/113
f 69/1/70 68/1/70 71/1/70 72/1/70
f 13/1/98 6/1/29 12/1/24 14/1/2
f 52/1/62 58/1/117 18/1/54
f 36/1/10 13/1/98 35/1/5
f 6/1/29 4/1/8 5/1/7 7/1/28
f 29/1/16 30/1/18 22/1/38
f 49/1/35 51/1/37 21/1/36 20/1/33
f 68/1/118 1/1/118 60/1/119 71/1/118
f 46/1/26 9/1/113 8/1/25
f 24/1/32 25/1/42 26/1/12 31/1/19
f 41/1/15 31/1/19 26/1/12 38/1/11
f 64/1/52 63/1/40 51/1/37 49/1/35
f 22/1/38 23/1/30 29/1/16
f 50/1/31 48/1/27 25/1/42 24/1/32
f 11/1/94 17/1/120 16/1/101 10/1/95
f 50/1/31 23/1/30 22/1/38 51/1/37
f 30/1/18 28/1/108 21/1/36
f 13/1/98 4/1/8 6/1/29
f 15/1/4 8/1/25 9/1/113
f 28/1/108 27/1/80 20/1/33
