# Blender 4.3.2
# www.blender.org
o HEAD_EYE
v -0.069519 0.039309 0.089445
v -0.068702 0.039239 0.088872
v -0.069502 0.041013 0.089261
v -0.068686 0.040943 0.088688
v -0.068833 0.042601 0.088277
v -0.069649 0.042670 0.088850
v -0.069139 0.044167 0.087651
v -0.069955 0.044236 0.088224
v -0.069596 0.045598 0.086826
v -0.070412 0.045668 0.087399
v -0.070191 0.046856 0.085825
v -0.071007 0.046926 0.086398
v -0.070908 0.047907 0.084676
v -0.071724 0.047977 0.085249
v -0.071727 0.048721 0.083409
v -0.072544 0.048791 0.083982
v -0.072627 0.049276 0.082060
v -0.073444 0.049346 0.082633
v -0.073583 0.049558 0.080665
v -0.074399 0.049627 0.081238
v -0.074568 0.049558 0.079262
v -0.075384 0.049627 0.079835
v -0.075555 0.049276 0.077889
v -0.076372 0.049346 0.078462
v -0.076518 0.048721 0.076585
v -0.077335 0.048791 0.077158
v -0.077431 0.047907 0.075383
v -0.078248 0.047977 0.075957
v -0.078269 0.046857 0.074318
v -0.079085 0.046927 0.074892
v -0.079008 0.045599 0.073419
v -0.079824 0.045669 0.073992
v -0.079628 0.044167 0.072709
v -0.080445 0.044237 0.073282
v -0.080114 0.042602 0.072208
v -0.080930 0.042671 0.072781
v -0.080450 0.040944 0.071930
v -0.081267 0.041014 0.072503
v -0.080629 0.039240 0.071883
v -0.081446 0.039309 0.072456
v -0.080646 0.037536 0.072067
v -0.081462 0.037605 0.072640
v -0.080499 0.035878 0.072478
v -0.081315 0.035948 0.073051
v -0.080193 0.034312 0.073104
v -0.081009 0.034381 0.073678
v -0.079736 0.032880 0.073929
v -0.080552 0.032950 0.074502
v -0.079141 0.031622 0.074930
v -0.079957 0.031692 0.075503
v -0.078424 0.030572 0.076079
v -0.079240 0.030641 0.076652
v -0.077604 0.029758 0.077346
v -0.078421 0.029827 0.077919
v -0.076704 0.029202 0.078695
v -0.077521 0.029272 0.079268
v -0.075749 0.028921 0.080090
v -0.076565 0.028991 0.080663
v -0.074764 0.028921 0.081493
v -0.075580 0.028991 0.082066
v -0.073776 0.029202 0.082866
v -0.074593 0.029272 0.083439
v -0.072813 0.029757 0.084170
v -0.073630 0.029827 0.084744
v -0.071900 0.030571 0.085372
v -0.072717 0.030641 0.085945
v -0.071063 0.031621 0.086437
v -0.071879 0.031691 0.087010
v -0.070324 0.032879 0.087336
v -0.071140 0.032949 0.087909
v -0.069703 0.034311 0.088046
v -0.070520 0.034381 0.088619
v -0.069218 0.035877 0.088547
v -0.070034 0.035947 0.089120
v -0.068881 0.037535 0.088825
v -0.069698 0.037604 0.089398
v -0.074666 0.039239 0.080377
v -0.075482 0.039309 0.080951
v -0.069790 0.012041 0.088845
v -0.069587 0.010339 0.088876
v -0.068770 0.010426 0.088306
v -0.068973 0.012128 0.088275
v -0.069333 0.013783 0.088013
v -0.070150 0.013696 0.088583
v -0.069839 0.015347 0.087527
v -0.070656 0.015260 0.088097
v -0.070478 0.016777 0.086830
v -0.071295 0.016690 0.087400
v -0.071233 0.018033 0.085941
v -0.072050 0.017946 0.086511
v -0.072082 0.019082 0.084884
v -0.072899 0.018995 0.085454
v -0.073003 0.019895 0.083688
v -0.073820 0.019808 0.084258
v -0.073971 0.020450 0.082387
v -0.074788 0.020363 0.082957
v -0.074959 0.020731 0.081014
v -0.075776 0.020644 0.081584
v -0.075940 0.020731 0.079608
v -0.076757 0.020644 0.080179
v -0.076887 0.020450 0.078208
v -0.077704 0.020363 0.078778
v -0.077776 0.019896 0.076851
v -0.078592 0.019808 0.077421
v -0.078580 0.019083 0.075574
v -0.079397 0.018996 0.076144
v -0.079279 0.018034 0.074412
v -0.080096 0.017947 0.074982
v -0.079854 0.016778 0.073397
v -0.080670 0.016691 0.073967
v -0.080288 0.015348 0.072556
v -0.081105 0.015261 0.073126
v -0.080570 0.013785 0.071913
v -0.081387 0.013697 0.072483
v -0.080692 0.012129 0.071485
v -0.081509 0.012042 0.072055
v -0.080651 0.010427 0.071284
v -0.081468 0.010340 0.071854
v -0.080448 0.008725 0.071315
v -0.081265 0.008638 0.071885
v -0.080088 0.007070 0.071577
v -0.080905 0.006983 0.072147
v -0.079582 0.005506 0.072063
v -0.080399 0.005419 0.072633
v -0.078943 0.004077 0.072760
v -0.079760 0.003989 0.073330
v -0.078188 0.002820 0.073649
v -0.079005 0.002733 0.074219
v -0.077339 0.001771 0.074706
v -0.078156 0.001684 0.075276
v -0.076418 0.000958 0.075901
v -0.077235 0.000871 0.076472
v -0.075450 0.000404 0.077203
v -0.076267 0.000317 0.077773
v -0.074462 0.000123 0.078576
v -0.075279 0.000035 0.079146
v -0.073481 0.000122 0.079981
v -0.074298 0.000035 0.080551
v -0.072534 0.000403 0.081382
v -0.073351 0.000316 0.081952
v -0.071646 0.000958 0.082739
v -0.072462 0.000871 0.083309
v -0.070841 0.001770 0.084016
v -0.071658 0.001683 0.084586
v -0.070142 0.002819 0.085178
v -0.070959 0.002732 0.085748
v -0.069568 0.004075 0.086193
v -0.070384 0.003988 0.086763
v -0.069133 0.005505 0.087033
v -0.069950 0.005418 0.087604
v -0.068851 0.007069 0.087677
v -0.069668 0.006982 0.088247
v -0.068729 0.008724 0.088105
v -0.069546 0.008637 0.088675
v -0.074711 0.010427 0.079795
v -0.075527 0.010340 0.080365
v -0.058494 0.032060 0.098941
v -0.059116 0.032033 0.099723
v -0.051388 0.031883 0.104017
v -0.051967 0.031855 0.104834
v -0.043743 0.031730 0.108413
v -0.044282 0.031700 0.109260
v -0.035508 0.031599 0.112149
v -0.036012 0.031569 0.113023
v -0.026881 0.031496 0.115115
v -0.027349 0.031464 0.116019
v -0.017842 0.031420 0.117293
v -0.018275 0.031387 0.118228
v -0.008614 0.031374 0.118600
v -0.009000 0.031340 0.119567
v 0.000573 0.031360 0.118995
v 0.000241 0.031325 0.119996
v 0.009708 0.031378 0.118492
v 0.009424 0.031342 0.119526
v 0.018835 0.031427 0.117098
v 0.018596 0.031389 0.118165
v 0.027813 0.031505 0.114838
v 0.027632 0.031467 0.115936
v 0.036530 0.031614 0.111735
v 0.036410 0.031574 0.112863
v 0.044968 0.031752 0.107773
v 0.044921 0.031712 0.108928
v 0.052838 0.031916 0.103066
v 0.052879 0.031875 0.104239
v 0.060004 0.032103 0.097717
v 0.060137 0.032062 0.098904
v 0.065873 0.032292 0.092322
v 0.066085 0.032250 0.093527
v 0.066956 0.032331 0.091201
v 0.067682 0.032307 0.091888
v 0.069961 0.032448 0.087838
v 0.073554 0.032550 0.084931
v 0.072755 0.032571 0.084330
v -0.058494 0.017070 0.098417
v -0.059116 0.017042 0.099200
v 0.066956 0.017340 0.090677
v 0.065873 0.017301 0.091799
v 0.060004 0.017112 0.097194
v 0.052838 0.016926 0.102543
v 0.044968 0.016761 0.107250
v 0.036530 0.016623 0.111212
v 0.027813 0.016515 0.114314
v 0.018835 0.016436 0.116575
v 0.009708 0.016387 0.117969
v 0.000573 0.016369 0.118472
v -0.008614 0.016383 0.118076
v -0.017842 0.016429 0.116770
v -0.026881 0.016505 0.114591
v -0.035508 0.016608 0.111625
v -0.043743 0.016739 0.107890
v -0.051388 0.016892 0.103494
v 0.072755 0.017580 0.083807
v 0.069961 0.017457 0.087315
v 0.073554 0.017559 0.084407
v 0.067682 0.017316 0.091364
v -0.051967 0.016864 0.104310
v -0.044282 0.016709 0.108736
v -0.036012 0.016578 0.112500
v -0.027349 0.016473 0.115496
v -0.018275 0.016396 0.117704
v -0.009000 0.016349 0.119044
v 0.000241 0.016334 0.119473
v 0.009424 0.016351 0.119003
v 0.018596 0.016398 0.117641
v 0.027632 0.016476 0.115412
v 0.036410 0.016584 0.112340
v 0.044921 0.016721 0.108405
v 0.052879 0.016885 0.103716
v 0.060137 0.017071 0.098381
v 0.066085 0.017259 0.093004
vn 0.5773 0.0823 0.8123
vn 0.5773 0.0823 0.8124
vn 0.5710 0.2449 0.7836
vn 0.5710 0.2448 0.7836
vn 0.5491 0.4007 0.7334
vn 0.5122 0.5456 0.6633
vn 0.5123 0.5456 0.6633
vn 0.4615 0.6756 0.5750
vn 0.4614 0.6756 0.5750
vn 0.3980 0.7872 0.4711
vn 0.3237 0.8773 0.3543
vn 0.2406 0.9435 0.2279
vn 0.1509 0.9840 0.0952
vn 0.1510 0.9839 0.0952
vn 0.0572 0.9976 -0.0401
vn 0.0571 0.9976 -0.0401
vn -0.0382 0.9840 -0.1742
vn -0.1326 0.9435 -0.3036
vn -0.1325 0.9435 -0.3036
vn -0.2233 0.8773 -0.4248
vn -0.3078 0.7872 -0.5343
vn -0.3078 0.7873 -0.5343
vn -0.3841 0.6756 -0.6293
vn -0.4498 0.5457 -0.7071
vn -0.5032 0.4008 -0.7656
vn -0.5430 0.2449 -0.8032
vn -0.5679 0.0824 -0.8190
vn -0.5773 -0.0823 -0.8124
vn -0.5773 -0.0823 -0.8123
vn -0.5710 -0.2449 -0.7836
vn -0.5710 -0.2448 -0.7836
vn -0.5491 -0.4007 -0.7334
vn -0.5123 -0.5456 -0.6633
vn -0.5122 -0.5456 -0.6633
vn -0.4614 -0.6756 -0.5750
vn -0.3980 -0.7872 -0.4711
vn -0.3237 -0.8773 -0.3543
vn -0.2406 -0.9435 -0.2279
vn -0.1509 -0.9839 -0.0952
vn -0.0571 -0.9976 0.0401
vn 0.0382 -0.9840 0.1742
vn 0.1325 -0.9435 0.3036
vn 0.1326 -0.9435 0.3036
vn 0.2233 -0.8773 0.4248
vn 0.3079 -0.7872 0.5343
vn 0.3078 -0.7873 0.5343
vn 0.3840 -0.6757 0.6293
vn 0.4498 -0.5456 0.7071
vn 0.5033 -0.4008 0.7656
vn 0.5032 -0.4008 0.7656
vn 0.5430 -0.2449 0.8032
vn 0.5679 -0.0824 0.8190
vn 0.8165 -0.0697 -0.5732
vn 0.8165 -0.0698 -0.5732
vn -0.8165 0.0698 0.5732
vn -0.8165 0.0697 0.5732
vn 0.5645 0.0822 0.8213
vn 0.5373 0.2445 0.8072
vn 0.4954 0.4001 0.7710
vn 0.4401 0.5448 0.7138
vn 0.3727 0.6747 0.6371
vn 0.2952 0.7861 0.5431
vn 0.2096 0.8761 0.4342
vn 0.1183 0.9422 0.3135
vn 0.0237 0.9826 0.1842
vn -0.0714 0.9962 0.0499
vn -0.1647 0.9826 -0.0857
vn -0.2534 0.9423 -0.2190
vn -0.2534 0.9422 -0.2190
vn -0.3352 0.8762 -0.3464
vn -0.4079 0.7862 -0.4643
vn -0.4694 0.6748 -0.5695
vn -0.5182 0.5449 -0.6592
vn -0.5528 0.4002 -0.7309
vn -0.5723 0.2446 -0.7827
vn -0.5724 0.2446 -0.7827
vn -0.5763 0.0823 -0.8131
vn -0.5645 -0.0822 -0.8213
vn -0.5373 -0.2445 -0.8072
vn -0.4954 -0.4001 -0.7710
vn -0.4401 -0.5448 -0.7138
vn -0.3727 -0.6746 -0.6371
vn -0.3727 -0.6747 -0.6371
vn -0.2952 -0.7861 -0.5431
vn -0.2096 -0.8761 -0.4342
vn -0.1183 -0.9422 -0.3135
vn -0.0238 -0.9826 -0.1842
vn 0.0714 -0.9962 -0.0499
vn 0.1647 -0.9826 0.0857
vn 0.2534 -0.9422 0.2190
vn 0.3352 -0.8762 0.3464
vn 0.4079 -0.7862 0.4643
vn 0.4695 -0.6747 0.5695
vn 0.5182 -0.5449 0.6592
vn 0.5528 -0.4002 0.7309
vn 0.5724 -0.2446 0.7827
vn 0.5723 -0.2446 0.7827
vn 0.5763 -0.0823 0.8131
vn 0.8169 0.0871 -0.5701
vn 0.8169 0.0871 -0.5702
vn 0.8169 0.0872 -0.5701
vn -0.8169 -0.0871 0.5701
vn -0.8169 -0.0871 0.5702
vn -0.8169 -0.0872 0.5702
vn -0.8169 -0.0872 0.5701
vn -0.0000 0.9994 0.0349
vn -0.0000 0.9994 0.0348
vn -0.0000 0.9994 0.0350
vn -0.0001 0.9994 0.0349
vn -0.0001 0.9994 0.0348
vn -0.7830 0.0217 -0.6217
vn -0.7196 0.0242 -0.6940
vn -0.6770 0.0257 -0.7356
vn -0.5984 0.0280 -0.8007
vn -0.5135 0.0299 -0.8576
vn -0.4252 0.0316 -0.9045
vn -0.3355 0.0329 -0.9415
vn -0.2442 0.0338 -0.9691
vn -0.1511 0.0345 -0.9879
vn -0.0550 0.0348 -0.9979
vn 0.0430 0.0349 -0.9985
vn 0.1403 0.0346 -0.9895
vn 0.2344 0.0339 -0.9715
vn 0.3253 0.0330 -0.9450
vn 0.4133 0.0318 -0.9100
vn 0.4987 0.0303 -0.8663
vn 0.5815 0.0284 -0.8130
vn -0.7824 0.0217 -0.6225
vn -0.7459 0.0232 -0.6657
vn 0.6008 0.0279 -0.7989
vn 0.7644 -0.0225 0.6444
vn -0.5817 -0.0284 0.8129
vn -0.4993 -0.0302 0.8659
vn -0.4144 -0.0318 0.9095
vn -0.3270 -0.0330 0.9445
vn -0.2366 -0.0339 0.9710
vn -0.1430 -0.0345 0.9891
vn -0.0464 -0.0349 0.9983
vn 0.0512 -0.0349 0.9981
vn 0.1469 -0.0345 0.9886
vn 0.2396 -0.0339 0.9703
vn 0.3305 -0.0329 0.9432
vn 0.4199 -0.0317 0.9070
vn 0.5079 -0.0301 0.8609
vn 0.5925 -0.0281 0.8051
vn 0.6708 -0.0259 0.7412
vn 0.7165 -0.0243 0.6972
vn -0.0000 -0.9994 -0.0349
vn -0.0000 -0.9994 -0.0348
vn -0.0000 -0.9994 -0.0350
vn 0.0001 -0.9994 -0.0348
s 0
f 1//1 2//1 3//1
f 2//2 4//2 3//2
f 3//3 4//3 5//3
f 3//4 5//4 6//4
f 6//5 5//5 7//5
f 6//5 7//5 8//5
f 8//6 7//6 9//6
f 8//7 9//7 10//7
f 10//8 9//8 11//8
f 10//9 11//9 12//9
f 12//10 11//10 13//10
f 12//10 13//10 14//10
f 14//11 13//11 15//11
f 14//11 15//11 16//11
f 16//12 15//12 17//12
f 16//12 17//12 18//12
f 18//13 17//13 19//13
f 18//14 19//14 20//14
f 20//15 19//15 21//15
f 20//16 21//16 22//16
f 22//17 21//17 23//17
f 22//17 23//17 24//17
f 24//18 23//18 25//18
f 24//19 25//19 26//19
f 26//20 25//20 27//20
f 26//20 27//20 28//20
f 28//21 27//21 29//21
f 28//22 29//22 30//22
f 30//23 29//23 31//23
f 30//23 31//23 32//23
f 32//24 31//24 33//24
f 32//24 33//24 34//24
f 34//25 33//25 35//25
f 34//25 35//25 36//25
f 36//26 35//26 37//26
f 36//26 37//26 38//26
f 38//27 37//27 39//27
f 38//27 39//27 40//27
f 40//28 39//28 41//28
f 40//29 41//29 42//29
f 42//30 41//30 43//30
f 42//31 43//31 44//31
f 44//32 43//32 45//32
f 44//32 45//32 46//32
f 46//33 45//33 47//33
f 46//34 47//34 48//34
f 48//35 47//35 49//35
f 48//35 49//35 50//35
f 50//36 49//36 51//36
f 50//36 51//36 52//36
f 52//37 51//37 53//37
f 52//37 53//37 54//37
f 54//38 53//38 55//38
f 54//38 55//38 56//38
f 56//39 55//39 57//39
f 56//39 57//39 58//39
f 58//40 57//40 59//40
f 58//40 59//40 60//40
f 60//41 59//41 61//41
f 60//41 61//41 62//41
f 62//42 61//42 63//42
f 62//43 63//43 64//43
f 64//44 63//44 65//44
f 64//44 65//44 66//44
f 66//45 65//45 67//45
f 66//46 67//46 68//46
f 68//47 67//47 69//47
f 68//47 69//47 70//47
f 70//48 69//48 71//48
f 70//48 71//48 72//48
f 72//49 71//49 73//49
f 72//50 73//50 74//50
f 74//51 73//51 75//51
f 74//51 75//51 76//51
f 76//52 75//52 2//52
f 76//52 2//52 1//52
f 5//53 4//53 77//53
f 77//54 4//54 2//54
f 11//53 9//53 77//53
f 77//54 9//54 7//54
f 77//53 7//53 5//53
f 17//53 15//53 77//53
f 77//53 15//53 13//53
f 77//54 13//54 11//54
f 23//53 21//53 77//53
f 77//53 21//53 19//53
f 77//53 19//53 17//53
f 29//53 27//53 77//53
f 77//53 27//53 25//53
f 77//53 25//53 23//53
f 35//53 33//53 77//53
f 77//54 33//54 31//54
f 77//53 31//53 29//53
f 41//53 39//53 77//53
f 77//54 39//54 37//54
f 77//53 37//53 35//53
f 47//53 45//53 77//53
f 77//53 45//53 43//53
f 77//53 43//53 41//53
f 53//53 51//53 77//53
f 77//53 51//53 49//53
f 77//53 49//53 47//53
f 59//53 57//53 77//53
f 77//53 57//53 55//53
f 77//53 55//53 53//53
f 65//53 63//53 77//53
f 77//53 63//53 61//53
f 77//53 61//53 59//53
f 71//54 69//54 77//54
f 77//53 69//53 67//53
f 77//53 67//53 65//53
f 2//54 75//54 77//54
f 77//53 75//53 73//53
f 77//53 73//53 71//53
f 76//55 1//55 78//55
f 78//56 1//56 3//56
f 70//56 72//56 78//56
f 78//56 72//56 74//56
f 78//56 74//56 76//56
f 64//55 66//55 78//55
f 78//56 66//56 68//56
f 78//56 68//56 70//56
f 58//56 60//56 78//56
f 78//56 60//56 62//56
f 78//56 62//56 64//56
f 52//56 54//56 78//56
f 78//56 54//56 56//56
f 78//56 56//56 58//56
f 46//56 48//56 78//56
f 78//56 48//56 50//56
f 78//56 50//56 52//56
f 40//56 42//56 78//56
f 78//56 42//56 44//56
f 78//56 44//56 46//56
f 34//55 36//55 78//55
f 78//56 36//56 38//56
f 78//55 38//55 40//55
f 28//56 30//56 78//56
f 78//56 30//56 32//56
f 78//56 32//56 34//56
f 22//56 24//56 78//56
f 78//56 24//56 26//56
f 78//56 26//56 28//56
f 16//56 18//56 78//56
f 78//56 18//56 20//56
f 78//56 20//56 22//56
f 10//56 12//56 78//56
f 78//56 12//56 14//56
f 78//56 14//56 16//56
f 3//56 6//56 78//56
f 78//55 6//55 8//55
f 78//56 8//56 10//56
f 79//57 80//57 81//57
f 81//57 82//57 79//57
f 79//58 82//58 83//58
f 79//58 83//58 84//58
f 84//59 83//59 85//59
f 84//59 85//59 86//59
f 86//60 85//60 87//60
f 86//60 87//60 88//60
f 88//61 87//61 89//61
f 88//61 89//61 90//61
f 90//62 89//62 91//62
f 90//62 91//62 92//62
f 92//63 91//63 93//63
f 92//63 93//63 94//63
f 94//64 93//64 95//64
f 94//64 95//64 96//64
f 96//65 95//65 97//65
f 96//65 97//65 98//65
f 98//66 97//66 99//66
f 98//66 99//66 100//66
f 100//67 99//67 101//67
f 100//67 101//67 102//67
f 102//68 101//68 103//68
f 102//69 103//69 104//69
f 104//70 103//70 105//70
f 104//70 105//70 106//70
f 106//71 105//71 107//71
f 106//71 107//71 108//71
f 108//72 107//72 109//72
f 108//72 109//72 110//72
f 110//73 109//73 111//73
f 110//73 111//73 112//73
f 112//74 111//74 113//74
f 112//74 113//74 114//74
f 114//75 113//75 115//75
f 114//76 115//76 116//76
f 116//77 115//77 117//77
f 116//77 117//77 118//77
f 118//78 117//78 119//78
f 118//78 119//78 120//78
f 120//79 119//79 121//79
f 120//79 121//79 122//79
f 122//80 121//80 123//80
f 122//80 123//80 124//80
f 124//81 123//81 125//81
f 124//81 125//81 126//81
f 126//82 125//82 127//82
f 126//83 127//83 128//83
f 128//84 127//84 129//84
f 128//84 129//84 130//84
f 130//85 129//85 131//85
f 130//85 131//85 132//85
f 132//86 131//86 133//86
f 132//86 133//86 134//86
f 134//87 133//87 135//87
f 134//87 135//87 136//87
f 136//88 135//88 137//88
f 136//88 137//88 138//88
f 138//89 137//89 139//89
f 138//89 139//89 140//89
f 140//90 139//90 141//90
f 140//90 141//90 142//90
f 142//91 141//91 143//91
f 142//91 143//91 144//91
f 144//92 143//92 145//92
f 144//92 145//92 146//92
f 146//93 145//93 147//93
f 146//93 147//93 148//93
f 148//94 147//94 149//94
f 148//94 149//94 150//94
f 150//95 149//95 151//95
f 150//95 151//95 152//95
f 152//96 151//96 153//96
f 152//97 153//97 154//97
f 154//98 153//98 81//98
f 154//98 81//98 80//98
f 83//99 82//99 155//99
f 155//99 82//99 81//99
f 89//99 87//99 155//99
f 155//99 87//99 85//99
f 155//99 85//99 83//99
f 95//99 93//99 155//99
f 155//100 93//100 91//100
f 155//99 91//99 89//99
f 101//100 99//100 155//100
f 155//99 99//99 97//99
f 155//100 97//100 95//100
f 107//99 105//99 155//99
f 155//99 105//99 103//99
f 155//99 103//99 101//99
f 113//99 111//99 155//99
f 155//100 111//100 109//100
f 155//99 109//99 107//99
f 119//101 117//101 155//101
f 155//99 117//99 115//99
f 155//99 115//99 113//99
f 125//100 123//100 155//100
f 155//99 123//99 121//99
f 155//99 121//99 119//99
f 131//99 129//99 155//99
f 155//99 129//99 127//99
f 155//99 127//99 125//99
f 137//99 135//99 155//99
f 155//99 135//99 133//99
f 155//99 133//99 131//99
f 143//99 141//99 155//99
f 155//100 141//100 139//100
f 155//99 139//99 137//99
f 149//99 147//99 155//99
f 155//99 147//99 145//99
f 155//99 145//99 143//99
f 81//99 153//99 155//99
f 155//99 153//99 151//99
f 155//100 151//100 149//100
f 154//102 80//102 156//102
f 156//102 80//102 79//102
f 148//102 150//102 156//102
f 156//103 150//103 152//103
f 156//102 152//102 154//102
f 142//102 144//102 156//102
f 156//102 144//102 146//102
f 156//102 146//102 148//102
f 136//102 138//102 156//102
f 156//102 138//102 140//102
f 156//102 140//102 142//102
f 130//102 132//102 156//102
f 156//102 132//102 134//102
f 156//102 134//102 136//102
f 124//104 126//104 156//104
f 156//103 126//103 128//103
f 156//102 128//102 130//102
f 118//102 120//102 156//102
f 156//105 120//105 122//105
f 156//102 122//102 124//102
f 112//102 114//102 156//102
f 156//103 114//103 116//103
f 156//102 116//102 118//102
f 106//102 108//102 156//102
f 156//105 108//105 110//105
f 156//102 110//102 112//102
f 100//103 102//103 156//103
f 156//102 102//102 104//102
f 156//102 104//102 106//102
f 94//102 96//102 156//102
f 156//103 96//103 98//103
f 156//102 98//102 100//102
f 88//102 90//102 156//102
f 156//102 90//102 92//102
f 156//103 92//103 94//103
f 79//105 84//105 156//105
f 156//102 84//102 86//102
f 156//102 86//102 88//102
f 157//106 158//106 159//106
f 159//106 158//106 160//106
f 159//106 160//106 161//106
f 161//106 160//106 162//106
f 161//106 162//106 163//106
f 163//106 162//106 164//106
f 163//106 164//106 165//106
f 165//107 164//107 166//107
f 165//107 166//107 167//107
f 167//107 166//107 168//107
f 167//107 168//107 169//107
f 169//108 168//108 170//108
f 169//108 170//108 171//108
f 171//106 170//106 172//106
f 171//106 172//106 173//106
f 173//106 172//106 174//106
f 173//106 174//106 175//106
f 175//108 174//108 176//108
f 175//108 176//108 177//108
f 177//106 176//106 178//106
f 177//106 178//106 179//106
f 179//108 178//108 180//108
f 179//108 180//108 181//108
f 181//106 180//106 182//106
f 181//106 182//106 183//106
f 183//106 182//106 184//106
f 183//106 184//106 185//106
f 185//106 184//106 186//106
f 185//106 186//106 187//106
f 187//106 186//106 188//106
f 187//109 188//109 189//109
f 189//106 188//106 190//106
f 189//106 190//106 191//106
f 191//106 190//106 192//106
f 191//110 192//110 193//110
f 194//111 195//111 157//111
f 157//111 195//111 158//111
f 189//112 196//112 197//112
f 189//112 197//112 187//112
f 187//113 197//113 198//113
f 187//113 198//113 185//113
f 185//114 198//114 199//114
f 185//114 199//114 183//114
f 183//115 199//115 200//115
f 183//115 200//115 181//115
f 181//116 200//116 201//116
f 181//116 201//116 179//116
f 179//117 201//117 202//117
f 179//117 202//117 177//117
f 177//118 202//118 203//118
f 177//118 203//118 175//118
f 175//119 203//119 204//119
f 175//119 204//119 173//119
f 173//120 204//120 205//120
f 173//120 205//120 171//120
f 171//121 205//121 206//121
f 171//121 206//121 169//121
f 169//122 206//122 207//122
f 169//122 207//122 167//122
f 167//123 207//123 208//123
f 167//123 208//123 165//123
f 165//124 208//124 209//124
f 165//124 209//124 163//124
f 163//125 209//125 210//125
f 163//125 210//125 161//125
f 161//126 210//126 211//126
f 161//126 211//126 159//126
f 159//127 211//127 194//127
f 159//127 194//127 157//127
f 193//128 212//128 213//128
f 193//128 213//128 191//128
f 191//129 213//129 196//129
f 191//129 196//129 189//129
f 192//130 214//130 193//130
f 193//130 214//130 212//130
f 215//131 214//131 190//131
f 190//131 214//131 192//131
f 158//132 195//132 216//132
f 158//132 216//132 160//132
f 160//133 216//133 217//133
f 160//133 217//133 162//133
f 162//134 217//134 218//134
f 162//134 218//134 164//134
f 164//135 218//135 219//135
f 164//135 219//135 166//135
f 166//136 219//136 220//136
f 166//136 220//136 168//136
f 168//137 220//137 221//137
f 168//137 221//137 170//137
f 170//138 221//138 222//138
f 170//138 222//138 172//138
f 172//139 222//139 223//139
f 172//139 223//139 174//139
f 174//140 223//140 224//140
f 174//140 224//140 176//140
f 176//141 224//141 225//141
f 176//141 225//141 178//141
f 178//142 225//142 226//142
f 178//142 226//142 180//142
f 180//143 226//143 227//143
f 180//143 227//143 182//143
f 182//144 227//144 228//144
f 182//144 228//144 184//144
f 184//145 228//145 229//145
f 184//145 229//145 186//145
f 186//146 229//146 230//146
f 186//146 230//146 188//146
f 188//147 230//147 215//147
f 188//147 215//147 190//147
f 212//148 214//148 213//148
f 213//148 214//148 215//148
f 195//148 194//148 216//148
f 216//148 194//148 211//148
f 216//148 211//148 217//148
f 217//148 211//148 210//148
f 217//148 210//148 218//148
f 218//148 210//148 209//148
f 218//148 209//148 219//148
f 219//148 209//148 208//148
f 219//148 208//148 220//148
f 220//148 208//148 207//148
f 220//148 207//148 221//148
f 221//148 207//148 206//148
f 221//149 206//149 222//149
f 222//148 206//148 205//148
f 222//148 205//148 223//148
f 223//148 205//148 204//148
f 223//148 204//148 224//148
f 224//149 204//149 203//149
f 224//149 203//149 225//149
f 225//149 203//149 202//149
f 225//149 202//149 226//149
f 226//149 202//149 201//149
f 226//149 201//149 227//149
f 227//150 201//150 200//150
f 227//150 200//150 228//150
f 228//149 200//149 199//149
f 228//149 199//149 229//149
f 229//151 199//151 198//151
f 229//151 198//151 230//151
f 230//148 198//148 197//148
f 230//148 197//148 215//148
f 215//148 197//148 196//148
f 215//148 196//148 213//148
